<?xml version="1.0" encoding="UTF-8"?>
<svg id="Layer_1" data-name="Layer 1" xmlns="http://www.w3.org/2000/svg" viewBox="0 0 800 800">
  <defs>
    <style>
      .cls-1 {
        fill: #fff;
      }
    </style>
  </defs>
  <path class="cls-1" d="m579.02,308.61c-.38-2.5-1.94-4.73-4.66-6.65-2.16-1.51-4.99-2.74-8.45-3.58-1.3-3.86-3.14-7.13-5.81-9.53-2.81-2.57-6.24-4.06-10.46-4.18-.86-2.71-2.02-4.92-3.43-6.6-2.45-2.9-5.38-4.39-8.69-4.44-2.59-.05-5.47.91-8.52,2.9-5.02,3.26-10.63,9.29-16.51,18.02-.17.17-.14.48.1.89-.02.12-.05.17-.07.29-5.38,2.28-7.42,6.26-7.27,10.63.1,2.38.41,4.82,1.3,7.42-1.32,3.24-5.18,7.03-15.98,6.86-.19-4.54-.43-9.19-.77-14.23-1.15-17.76-6.96-37.92-11.33-55.18-1.37-5.47-2.88-10.92-4.54-16.34-.26-.91-.43-2.14-1.44-2.52-6.74-2.74-13.7-4.82-20.71-6.67-10.46-2.71-21.12-4.1-31.94-4.18-15.74-.1-30.84,1.56-45.94,6.05-15.46,4.56-29.98,11.04-42.79,20.21-7.54,5.42-14.64,11.38-21.26,17.86-.05.05-.07.1-.07.17,1.01,7.85,1.51,15.72,1.51,23.64,0,.14.67,13.44.67,13.44,0,0-14.76.89-25.82,8.38-12.58,8.54-23.86,24-27.58,28.97-.86,1.15-1.82,2.16-2.76,3.22-1.49-.19-2.83-.22-3.96-.05-4.51.7-5.93,4.3-2.95,11.88-13.66,6.58-22.32,16.06-25.97,24.5-1.46,3.38-2.11,6.62-1.99,9.5.14,3.1,1.27,5.9,3.36,8.16,2.86,3.1,7.01,4.94,12.5,4.97,2.16,3.74,5.06,6.36,8.86,7.75,3.43,1.3,7.54,1.27,12.36-.24,3.72,4.42,7.46,5.76,11.28,4.18,3.46-1.44,7.06-5.83,10.85-13.15,8.38-1.2,10.54-5.02,9.72-9.72-.86-4.82-4.82-10.46-8.52-15.17v-.02c3.46-1.7,5.9-3.5,7.42-5.38,1.32-1.61,1.92-3.26,1.92-4.97,2.76-2.4,7.27-5.16,12.1-7.7,8.59-4.54,19.42-4.73,19.42-4.63.17,1.01.6,13.39.65,14.21.26,5.11.55,10.2.89,15.31.02.58.22,1.01.53,1.34,11.33,11.09,22.03,22.8,32.57,34.63.6.67,1.22,1.27,1.87,1.82.1.05.12.19.05.29-2.88,4.51-5.81,9.02-8.78,13.54-3.7,5.59-8.57,11.69-14.59,18.26-5.45,5.98-11.5,11.57-18.19,16.78-1.42,1.1-2.93,2.59-4.66,2.74-8.02.74-15.86,1.78-23.69,3.7-.34.07-.65.29-.94.62-1.3,1.49-2.71,2.98-3.89,4.44-7.01,8.57-14.18,17.3-20.26,26.57-5.33,8.16-8.26,16.46-7.66,26.38.02.46.22.94.55,1.44,5.71,8.04,14.11,14.06,23.95,15.79,8.38,1.49,17.93-.53,24-6.72.22-.22.17-.24-.07-.1-4.85,2.69-9.48,4.63-15.43,4.44-9.6-.31-17.38-6.94-19.46-16.25-2.81-12.46,5.78-25.58,15.38-32.66,7.9-5.81,20.62-9.48,29.74-4.75,4.8,2.5,8.16,7.2,9.26,12.48,1.7,7.99-.72,15.7-4.9,22.63-3.53,5.86-7.75,11.69-12.74,16.42-.55.5-.48.62.22.36,2.02-.77,4.18-1.54,6.46-2.3,1.9-.65,4.42-2.06,7.51-4.25,4.32-3.05,9.24-6.46,13.75-8.42,5.04-2.18,10.32-3.38,15.89-3.62.17,0,.19.05.07.17-1.63,1.61-2.95,3.43-4.01,5.47-.07.1-.17.17-.31.19-5.54.22-10.46,1.82-14.83,5.3-4.94,3.94-8.78,9.53-12.53,13.87-1.8,2.09-3.98,3.79-6.53,5.11-.22.12-.19.17.02.19.86.05,1.7.05,2.52,0,3.53-.22,7.08-.43,10.63-.7.14,0,.14.02,0,.05-7.56,2.33-15.86,4.61-23.86,3.79-.19-.02-.22.02-.07.14.29.19.72.24.98.38,3.53,1.85,6.84,3.62,10.61,4.94.34.12.34.22-.02.31-4.73,1.3-9.65,2.59-14.59,2.98-10.1.77-22.42-.6-31.34-5.9-.02,0-.05,0-.05.02l-.07.1s-.02.1.02.14c18.36,14.71,43.66,16.8,65.28,8.86,1.63-.6,3.02-2.62,4.18-3.91,1.92-2.21,3.67-4.58,5.5-6.91,1.27-1.58,2.42-3.05,3.41-4.39,7.94-10.61,16.25-21.02,23.83-31.87.12-.19.17-.38.1-.58l-3.82-12.7c-.12-.43.02-.74.41-.96,10.01-5.38,19.25-11.64,27.79-18.79,4.08-3.43,7.73-6.98,10.9-10.66,8.71-10.03,15.86-21.07,21.5-33.07,1.37-2.9,2.54-6.14,3.77-9.26.29-.74.36-2.4,1.39-2.66,2.06-.55,4.13-1.13,6.19-1.7,6.62-1.87,12.91-4.56,18.82-8.06,13.42-7.97,22.51-19.2,27.31-33.72,1.46-4.39,3.82-18.17,5.4-29.35,9-.14,43.25-2.76,57.58-33.7,1.66,1.1,2.95,1.92,3.24,2.04,1.46.55,3,.74,4.61.53,3.1-.41,6.84-2.28,11.21-5.76,5.83-4.61,9.79-8.88,11.88-12.62,1.46-2.62,2.04-5.04,1.73-7.18Zm-297.38,60.53c-1.06,1.3-2.69,2.59-4.94,3.84-.14-.94-.1-1.97-.07-3.24.02-.38.02-.79.05-1.49,0-.62-.74-1.58-1.68-2.09-.96-.53-1.73-.43-1.75.19,0,.36,0,.94-.02,1.49-.1,3.41-.14,5.3,2.59,8.78,2.9,3.72,6.02,8.11,6.67,11.71.65,3.55-1.13,6.43-7.9,7.32-.22.05-.36.12-.41.26-1.63,3.22-3.22,5.81-4.73,7.7-1.54,1.92-3.02,3.17-4.46,3.79-.62.26-1.25.36-1.85.31-1.44-.12-2.83-1.13-4.15-3.05-.53-.72-1.54-1.39-2.26-1.44-.19-.02-.36,0-.46.05-4.32,1.56-7.7,1.78-10.3.82-1.99-.74-3.6-2.57-4.87-5.38-.31-.7-1.25-1.49-2.09-1.75-.24-.05-.43-.1-.58-.07-.6.05-1.18.07-1.73.07-3.22,0-5.38-.77-6.55-2.04-1.1-1.18-1.68-2.93-1.78-5.04-.1-2.35.48-5.04,1.73-7.87,3.72-8.5,13.42-18.19,28.97-23.69.55-.19.41-1.03-.36-1.85-.79-.82-1.87-1.32-2.45-1.13-1.39.5-2.74,1.03-4.03,1.61-1.03-3.91.02-5.81,2.62-6.22,1.51-.22,3.53.02,5.98.67.07.02.12.02.17.05,1.46.38,3.05.91,4.75,1.56,1.56.58,3.24,1.27,4.99,2.04,5.02,2.21,8.64,4.42,10.63,6.58,1.01,1.1,1.58,2.23,1.7,3.38.14,1.34-.31,2.71-1.44,4.1Zm17.54-17.98c-2.26,1.9-5.02,5.69-8.5,5.76-.17,0-.22-.07-.12-.19,1.06-1.39,1.75-2.74,2.14-3.98.89-3.02-1.15-6.5-5.11-5.57-2.9.67-5.95,3.46-8.11,5.5-.07.07-.22.07-.31-.05-1.32-1.66-2.18-2.69-2.57-3.07-2.52-2.57-9.91-8.45-13.49-8.06-.14.02-.19-.02-.07-.14.86-1.03,1.75-2.06,2.66-3.07.24-.24.6-.31,1.08-.19,2.5.65,4.78,1.75,6.79,3.34.14.12.36.07.46-.07,2.04-3.22,4.44-5.86,7.08-8.76.86-.96,1.97-1.94,3.24-1.44,2.52.96,4.25,2.66,5.16,5.11.1.24.24.38.46.46.12.02.22-.02.24-.14,1.03-6.48-5.14-10.32-10.56-12.38-.24-.1-.24-.17.02-.24,4.51-1.13,13.49-1.9,16.32,2.62,1.44,2.28.74,4.58-.46,6.82-.14.24-.05.53.22.65,8.18,4.61,10.39,11.3,3.43,17.14Zm27.86-10.58c-.86,1.44-1.8,2.83-2.83,4.15-.02.02-.05.05-.05.05-.02,0-.05-.02-.05-.02-.05-.02-.07-.07-.02-.1,2.81-4.68,4.61-11.21,2.95-16.58-.77-2.5-2.74-6.82-4.99-8.64-.22-.19-.26-.17-.12.1,1.61,2.78,1.82,6.96,1.22,9.84-1.51,7.08-5.3,12.77-11.38,17.06-1.94,1.37-3.98,2.62-6.12,3.7-.31.17-.38.1-.22-.22,3-5.38,2.83-10.56-.5-15.58-.07-.1-.07-.22.02-.34.84-1.25,1.9-2.54,2.45-3.82,2.21-5.04,1.03-9.38-2.06-13.75-.07-.14-.07-.24.05-.34,2.95-2.18,6.14-4.8,9.43-6,5.52-1.99,10.39,2.69,12.96,7.2,4.15,7.32,3.55,16.2-.74,23.28Zm29.62,54.46c-.02.1-.14.12-.19.05-1.15-1.34-2.88-2.86-3.74-3.7-4.82-4.73-9.77-9.31-14.86-13.75-.38-.34-.62-.65-.65-1.2-.1-7.37-.46-14.74-1.08-22.03-.02-.24.07-.48.22-.67,14.28-15.72,12.29-42.86-4.44-56.16-.1-.1-.17-.22-.17-.36-.58-6.38-1.2-12.79-1.9-19.18-.07-.67.19-1.06.67-1.42,8.62-6.34,17.81-11.28,27.41-15.91.17-.07.26-.05.34.12,2.81,6.96,5.28,13.56,7.27,20.74,2.62,9.38,4.51,17.71,5.69,24.98,2.23,13.61,2.28,27.79.1,42.6-1.06,7.22-2.62,13.87-4.66,19.97-2.95,8.78-6.29,17.45-10.01,25.92Zm-19.97,129.53c-.07.55-.14.55-.24,0-1.13-6.38-2.98-12.94-5.57-19.63v-.02h.02c5.47,4.51,6.67,13.37,5.78,19.66Zm14.35-10.13c-3.5-2.06-7.22-3.74-11.16-5.04-.36-.12-.6-.36-.72-.74-5.16-15.5-22.27-24.07-37.94-21.65-.02,0-.05-.02-.05-.05-.02-.02,0-.05.02-.07,13.61-5.38,27.43-.86,38.18,8.3,5.95,5.09,9.91,11.42,11.93,19.06.02.14-.14.29-.26.19Zm-6.55-30.48c-.5.43-.98.91-1.39,1.42-.14.19-.43.22-.62.05-4.15-3.96-9.07-6.43-14.76-7.42-.29-.05-.31-.17-.07-.31,7.54-5.14,14.21-11.23,20.42-17.9,2.76-2.98,5.38-6.17,7.87-9.6,5.4-7.49,9.84-15.34,13.34-23.59.05-.14.17-.19.31-.1l.12.1s.05.07.05.12c-.17.58-.26,1.42-.31,2.52-.41,9.19-3.07,18.82-8.06,26.76-.02.02-.02.05-.02.07,0,.05.02.07.05.1.05.02.1.02.14-.02,1.73-1.99,3.53-3.62,5.42-4.87,6.48-4.32,11.59-7.78,16.18-13.18.38-.48.48-.43.22.14-1.1,2.57-2.21,5.28-3.5,7.63-5.57,10.18-13.8,19.54-22.27,26.98-2.59,2.28-6.96,5.98-13.1,11.11Zm65.45-29.54c-7.25,13.06-17.04,24.84-28.46,34.42-6.22,5.23-12.77,10.01-19.63,14.35-.1.07-.26,0-.29-.12-.6-2.11-1.37-3.98-2.23-6.02-.05-.12-.02-.24.07-.34.24-.29.53-.53.82-.74,5.45-3.65,10.66-7.56,15.67-11.78,14.4-12.14,24.53-26.83,32.42-44.06.07-.14.17-.22.31-.19,2.69.17,5.35.12,8.04-.14.07-.02.12.05.1.12-2.14,4.92-3.91,9.31-6.82,14.52Zm70.22-88.15c-6.24,46.94-37.8,53.57-38.26,53.71.31-.22.6-.41.89-.62-2.52,1.15-5.18,2.14-8.09,2.93-13.7,3.72-27.46,3.53-41.28-.62-9.84-2.95-17.98-7.1-26.3-12.19-.07-.05-.1-.14-.07-.22,2.5-4.66,4.9-9.36,7.2-14.14,6.31-13.08,10.56-27.29,12.98-41.59.43-2.57,1.25-6.74,1.54-9.98.67-7.7.67-15.67,0-23.86-.53-6.41-.94-10.49-1.27-12.26-4.01-21.7-9.46-42.02-17.47-62.16-.05-.14-.22-.24-.38-.19-11.23,3.19-21.31,6.7-32.06,13.03-6.55,3.86-12.65,8.18-18.34,12.96-.02.05-.07.05-.12,0-.02-.02-.02-.1,0-.12.29-.31.67-.72,1.13-1.2,6.31-6.98,13.56-13.08,21.7-17.81,16.27-9.46,35.26-14.81,54.19-16.08,8.74-.82,17.47-1.13,26.23-.98,13.66.22,27.07,1.56,39.94,6.17.6.24.7.67.74.84,0,0,.02,0,.02.05.62,2.06,23.33,77.69,17.09,124.34Zm33.72-67.08c2.78,6.82,6.36,10.63,11.16,11.3.12,0,.22.02.31.02-.38,3.46.48,6.48,2.18,8.81.02.02.05.07.07.12,1.42,1.87,3.31,3.34,5.5,4.3-3.43,2.93-7.56,3.05-11.42,1.49-.05-.02-.1-.05-.12-.07-.12-.02-.22-.07-.31-.12-3.07-1.37-6.05-3.84-8.3-6.79-2.42-3.14-4.01-6.77-4.13-10.15-.12-3.53,1.32-6.74,5.06-8.9Zm-19.82,25.46c2.14-.22,9.84-2.78,9.84-2.78l4.7,2.14s-5.35.43-7.27,2.14c-1.92,1.73-1.92,11.98-2.35,12.19-.43.22-7.06-13.46-4.92-13.68Zm43.63,13.37l-3.72.74s-16.25,14.95-38.33,15.14c0,0-1.58-6.38-1.85-10.78,0,0,5.57,4.56,6.38,6.22.79,1.63,5.57-2.38,3.46-7.3-2.14-4.94.79-11.5,8.78-7.68,7.97,3.84,9.84,7.68,11.98,6.02,2.11-1.63-10.66-8.4-10.66-8.4,0,0,13.56,3.12,20.23,3.12s3.72,2.9,3.72,2.9Zm34.8-25.44c-1.8,2.95-5.26,6.29-10.42,9.89-3.79,2.64-6.98,4.03-9.55,4.3-.96.07-1.78.02-2.4-.22-.31-.12-.65-.36-.96-.72-.05-.05-.1-.1-.14-.14-.05-.07-.1-.17-.19-.24-.91-1.22-1.56-3-1.97-5.3-.02-.12-.07-.24-.17-.38,2.93-1.32,5.81-3.67,8.16-7.32.24-.34-.29-1.06-1.18-1.58-.89-.53-1.78-.67-2.02-.31-3.41,5.23-7.8,7.7-11.83,8.16-.84.1-1.63.1-2.38.02-.07,0-.14-.02-.22-.02-.65-.07-1.27-.22-1.85-.43-.96-.34-1.78-.91-2.42-1.66-.02-.02-.05-.05-.05-.07-1.56-1.87-2.16-4.61-1.22-7.9,3.31-.96,7.08-3.58,11.47-7.92.31-.31-.14-1.01-1.01-1.58-.86-.55-1.8-.74-2.11-.43-4.42,4.37-8.04,6.94-11.06,7.78-.17,0-.29.02-.38.1-.91.22-1.78.26-2.59.14-2.38-.36-4.49-3.26-6.6-8.57,0-.05-.02-.07-.02-.1-.1-.19-.17-.38-.24-.6,5.09-6.86,7.78-12.05,12.17-14.54,2.54-1.44,4.85-2.11,6.89-2.04,1.37.05,2.54.58,3.46,1.54,1.27,1.32,4.56,3.82,5.35,6.53.17.53,1.03,1.25,1.92,1.58.36.12.67.19.91.17,3.53-.19,5.98.53,7.68,1.92,2.02,1.63,3.48,4.25,4.61,7.51.19.55,1.08,1.25,1.97,1.56.14.05.29.07.41.1,3.22.65,5.57,1.46,7.1,2.42,1.22.79,1.97,1.85,2.21,3.12.31,1.54-.14,3.31-1.32,5.26Z"/>
  <path class="cls-1" d="m450.77,273.77c.09-.11.11-.18.06-.2-.04.13-.06.2-.06.2Z"/>
  <path class="cls-1" d="m466.51,304.33c-.53,2.16-.65,4.49-3.6,4.56-3.84.12-5.28-6.02-5.3-8.95-.02-.1.07-.19.17-.19l1.78-.02c.14,0,.26-.1.31-.22.74-1.82.74-3.65-.36-5.26-.29-.41-.19-.98.22-1.27.46-.31.96-.5,1.51-.55.48-.05.65-.31.55-.77-.72-3-2.81-13.68-7.92-11.78-.41.17-.94.72-1.54,1.68-1.87,3.05-2.04,5.69-2.66,8.95-1.18-4.1-1.44-8.21-.79-12.26.26-1.7.34-2.98,1.49-4.82,1.3-2.11,5.11-2.86,7.51-1.37,2.47,1.54,4.13,3.7,5.16,6.29,1.32,3.38,2.21,7.01,2.64,10.87.55,5.04.84,10.08.84,15.12Z"/>
  <path class="cls-1" d="m431.97,305.7c0,.34-.1.98-.26,1.92-.5,3.77-4.66,5.21-7.73,4.08-3.86-1.42-5.71-7.46-5.93-11.14,0-.14.12-.26.29-.26,1.27.19,3.12.72,3.43-1.2.14-.79.14-1.56.05-2.35-.1-.89-.89-1.34-1.01-1.97-.29-1.85,1.18-2.14,2.59-1.82.19.05.38-.14.31-.34-1.22-4.27-3-10.78-7.46-12.77-6.77-3.02-9.43,7.49-9.5,11.81-.05,2.06-.14,3.62-.31,4.66-.07-.07-.14-.19-.19-.31-1.73-4.73-2.54-9.65-2.42-14.81.1-3.5.98-7.66,2.78-9.43,4.1-4.03,11.18-3.55,16.2,1.68.02.02,3.48,5.02,4.51,7.97,2.78,7.9,4.58,16.01,4.66,24.29Z"/>
  <path class="cls-1" d="m467.95,334.81c.02,3.67-.62,7.06-1.99,10.15-1.8,4.15-4.63,6.31-8.64,8.11-.26.12-.46.34-.53.6-1.8,5.38-4.3,10.37-7.54,15.02-.1.14-.1.34-.02.5.91,1.78,1.97,3.6,2.62,5.42,1.1,3.1,1.9,6.26,2.42,9.5.02.14-.17.24-.26.1l-3.17-4.7c-.07-.12-.19-.12-.34-.05-3.62,2.14-6.79,3.46-11.04,4.03h-.12c-.1,0-.17-.02-.24-.05-.1-.05-.12-.19-.05-.29.36-.55.5-1.3.41-2.23-.82-7.39-2.74-16.66-7.73-22.46-.29-.34-.6-.62-.94-.86,3.98.43,8.11.5,11.78-.22,1.87-.38,3.74-3.62,5.06-5.62.07-.1.05-.14-.07-.12-8.83.72-17.23-.22-25.18-2.76-1.68-.55-3.65-1.46-5.93-2.76-.31-.19-.79-.7-1.25-.94-.19-.1-.26-.02-.22.17.96,5.71,3.31,9.94,8.81,11.14l2.98,9.58c.31,1.01.1,1.15-.67.43-3.22-2.98-6.74-5.78-9.38-9.22-1.22-1.56-3.36-4.54-4.68-7.56-.19-.38-.29-.38-.31.07-.12,1.49-.19,3.07-.26,4.7-.31,7.34,1.06,14.33,4.1,20.9.43.89.89,1.73,1.39,2.5.82,1.22,1.44,1.94,1.87,2.21.98.58,1.87,1.27,2.69,2.09-6.91-1.73-13.1-4.39-15.43-11.76-2.5-7.94-1.82-17.23-.14-25.44.58-2.76,1.42-5.38,2.47-7.82.17-.34.07-.41-.24-.22-2.69,1.66-4.22,3.6-6.24,6.17-.14.19-.22.17-.19-.07.26-3.72,1.61-6.79,4.01-9.26,3.48-3.58,9.91-5.74,14.69-3.46,2.33,1.13,3.67,2.71,4.1,4.82.26,1.42.12,1.46-.48.14-.31-.7-.91-1.34-1.82-1.92-2.86-1.9-6.96-.84-9.48,1.18-.43.34-.74.74-.96,1.18-.02.12,0,.24.1.31,11.16,6.79,22.01,10.97,35.3,10.8,3.5-.05,7.42-.46,10.63-2.02,4.61-2.23,5.16-9.94,3.07-13.94-.24-.43-.6-.6-1.08-.48-1.63.43-2.76,1.8-3.94,2.88-.38.31-.53.24-.46-.24.53-3.46,3.1-7.7,7.2-7.15,4.15.58,5.28,5.42,5.3,8.9Z"/>
  <path class="cls-1" d="m413.93,395.31c7.13,4.38,17.63,4.16,25.09.82.38-.17.75-.39,1.08-.65.2-.16.18-.21-.07-.16-8.95,1.82-17.44.72-25.46-3.31-3.52-1.77-7.91-5.04-9.74-8.72-.08-.16-.13-.16-.14.03-.02.24.01.47.09.68,1.86,4.94,4.92,8.71,9.15,11.31h0Z"/>
  <path class="cls-1" d="m282.78,532.62c4.96,4.93,14.37,3.5,21.02-3.19,6.64-6.69,8-16.11,3.04-21.04-4.96-4.93-14.37-3.5-21.02,3.19-6.64,6.69-8,16.11-3.04,21.04h0Z"/>
  <path class="cls-1" d="m267.44,370.7c.31-.52-.27-1.56-1.29-2.33-1.02-.77-2.1-.98-2.41-.46l-7.32,12.43c-.29.5.29,1.51,1.29,2.25,1.01.74,2.06.95,2.36.45l7.37-12.35h0Z"/>
  <path class="cls-1" d="m259.21,367.01c.3-.52-.29-1.57-1.32-2.34-1.03-.78-2.11-.98-2.41-.46l-7.18,12.52c-.29.5.3,1.52,1.32,2.27,1.01.75,2.07.95,2.36.45l7.23-12.44h0Z"/>
  <path class="cls-1" d="m271.35,419.05c-.11-.05-.22-.08-.34-.09.11.03.22.06.34.09Z"/>
  <path class="cls-1" d="m272.95,349.49c-.16-.11-.33-.22-.51-.3.17.1.34.2.51.3Z"/>
  <path class="cls-1" d="m554.35,295.62c1.77,1.6,2.13,4.3,3.76,6.06,2.68,2.9,7.6,2.16,10.8,4.48.45.32.87.72,1.09,1.23.6,1.41-.53,2.93-1.7,3.92-1.6,1.34-3.43,2.41-5.39,3.12-1.05.38-2.18.67-3.28.45-1.1-.22-2.13-1.08-2.23-2.19-.07-.75.27-1.47.39-2.22.3-1.96-1-3.8-2.38-5.22-1.38-1.43-2.98-2.8-3.55-4.7-.46-1.54-.23-3.4-1.34-4.56-1.4-1.45,1.3-2.65,3.84-.35Z"/>
  <path class="cls-1" d="m316.03,501.68c3.47,3.61,7.99,11.24-.16,25.88-.36.66-1.37.28-1.2-.46,1.28-5.74,2.92-16.31.2-24.87-.23-.71.64-1.1,1.15-.56Z"/>
  <path class="cls-1" d="m275.18,381.44c0-.22.29-.3.4-.11,1.04,1.84,3.66,6.95,2.06,9.15-1.97,2.7-4.42,1.72-5.16,2.7-.49.65-1.83,3.11-2.68,4.72-.12.23-.24.04-.41-.15-1.63-1.74-2.17-4.64-.13-8.16.7-1.2,4.55-1.46,4.55-3.42l1.38-4.73Z"/>
  <path class="cls-1" d="m420.26,260.61s-20.83-15-27.33,7.83c0,0-6-19.33,8-20.33,14-1,19.33,12.5,19.33,12.5Z"/>
  <path class="cls-1" d="m461.49,262.34s-3.12-6.27-8.46-6.16c-5.34.11-8.62,5.84-8.62,5.84,0,0-.65-11.24,7.34-11.27,7.99-.03,9.74,11.59,9.74,11.59Z"/>
</svg>