<?xml version="1.0" encoding="UTF-8"?>
<svg id="Layer_1" data-name="Layer 1" xmlns="http://www.w3.org/2000/svg" viewBox="0 0 800 800">
  <defs>
    <style>
      .cls-1 {
        fill: #fff;
      }

      .cls-2 {
        fill: #0f1e2f;
      }

      .cls-3 {
        fill: #102f4f;
      }

      .cls-4 {
        fill: #ccc;
      }

      .cls-5 {
        fill: #b70013;
      }

      .cls-6 {
        fill: #cd1e29;
      }
    </style>
  </defs>
  <path class="cls-1" d="m588.5,307.17c-.54-3.56-2.47-8.72-8.61-13.05-1.98-1.4-4.26-2.59-6.81-3.56-1.72-3.54-3.88-6.46-6.53-8.84-3.02-2.73-6.43-4.62-10.18-5.68-.83-1.52-1.77-2.9-2.81-4.14-4.24-5.04-9.72-7.76-15.85-7.88-.06,0-.31,0-.37,0-4.45,0-9.02,1.5-13.58,4.47-6.24,4.06-12.68,10.97-19.15,20.55-.04.06-.09.12-.13.19-2.62,1.81-4.69,4.08-6.18,6.67-1.82-13.1-5.3-26.7-8.48-39-.7-2.72-1.39-5.4-2.05-8-1.41-5.6-2.98-11.25-4.71-16.94-1.14-4.23-3.5-7.09-6.99-8.49-6.4-2.58-13.35-4.82-21.89-7.04-11.2-2.92-22.75-4.43-34.31-4.5h-1.39c-17.21,0-32.7,2.1-47.33,6.44-17.5,5.18-32.86,12.46-45.64,21.62-7.92,5.68-15.45,12-22.4,18.79-1.99,1.96-3.1,4.81-2.93,7.6.01.22.03.43.06.64.95,7.41,1.43,14.96,1.43,22.44,0,.23,0,.32.24,5.23-6.08,1.31-14.1,3.84-21.18,8.64-13.37,9.07-24.98,24.6-29.35,30.44l-.05.07c-.32.03-.66.02-.97.07-4.72.73-8.52,3.21-10.7,6.98-1.8,3.12-2.15,6.49-1.89,9.5-11.04,6.78-19.49,15.84-23.69,25.58-2.04,4.73-2.97,9.35-2.76,13.76.25,5.42,2.29,10.35,5.89,14.25,3.73,4.04,8.61,6.61,14.28,7.59,2.94,3.48,6.55,6.03,10.78,7.61,2.72,1.01,5.64,1.52,8.7,1.52,1.34,0,2.71-.1,4.11-.3,3.44,2.62,7.16,3.94,11.11,3.94,2.28,0,4.55-.46,6.74-1.38,4.89-2.04,9.24-6.4,13.49-13.61,4.45-1.37,7.85-3.64,10.13-6.79,1.84-2.53,3.8-6.85,2.71-13.01-.67-3.83-2.42-7.61-4.59-11.18.52-.53,1.01-1.07,1.47-1.62,1.44-1.76,2.5-3.66,3.19-5.64,1.66-1.14,4.14-2.67,7.86-4.63,1.82-.96,3.87-1.67,5.85-2.2.01.33.14,3.58.15,3.79.28,5.14.57,10.27.89,15.44.19,2.91,1.41,5.59,3.41,7.56,10.47,10.26,20.48,21.16,29.16,30.86-1.57,2.42-3.16,4.84-4.76,7.27-3.4,5.15-8,10.9-13.66,17.1-5.06,5.54-10.79,10.82-17.02,15.68,0,0-1.02.82-1.11.89-6.63.65-15.04,1.67-23.58,3.76-2.28.55-4.33,1.82-5.96,3.71-.48.55-.97,1.11-1.47,1.66-.89,1-1.78,1.99-2.56,2.95l-.46.57c-6.97,8.53-14.18,17.35-20.4,26.84-6.97,10.65-9.9,20.88-9.21,32.2.14,2.25.93,4.46,2.31,6.41,4.34,6.11,9.72,11.03,15.77,14.5-2.29.58-4.32,1.98-5.66,3.96,0,0-.14.21-.21.32-2.62,4.13-1.7,9.73,2.13,12.79,12.68,10.16,28.51,15.52,45.79,15.52,9.8,0,19.49-1.74,28.81-5.16,3.74-1.37,6.02-4.13,7.54-5.96l.52-.62c1.54-1.75,2.89-3.51,4.21-5.2.53-.69,1.07-1.38,1.59-2.05,1.34-1.68,2.54-3.24,3.6-4.65,2.6-3.48,5.25-6.94,7.9-10.41,5.37-7.02,10.92-14.29,16.16-21.79,1.77-2.59,2.27-5.79,1.37-8.76l-1.79-5.96c8.2-4.84,15.96-10.33,23.14-16.36,4.48-3.75,8.51-7.7,11.98-11.72,9.24-10.67,16.96-22.54,22.94-35.3,1.22-2.59,2.26-5.29,3.27-7.9.66-.18,1.33-.37,1.99-.56,7.4-2.09,14.51-5.14,21.12-9.06,15.39-9.13,25.99-22.24,31.51-38.95,1.34-4.06,3.14-13.75,4.64-23.34,14.07-1.64,38.83-7.82,53.55-30.61.74.09,1.48.15,2.22.15.85,0,1.72-.06,2.59-.17,4.96-.66,10.16-3.2,15.91-7.76,6.83-5.42,11.5-10.47,14.29-15.45,2.53-4.52,3.48-9,2.83-13.3Z"/>
  <g>
    <g>
      <path class="cls-3" d="m283.99,481.04c1.18-1.45,2.59-2.94,3.88-4.42.3-.34.61-.56.94-.64,7.82-1.91,15.68-2.93,23.69-3.68,1.72-.16,3.24-1.64,4.66-2.75,6.69-5.22,12.75-10.8,18.2-16.77,6.03-6.6,10.89-12.69,14.58-18.29,2.98-4.5,5.91-9.01,8.79-13.54.06-.09.04-.22-.05-.29-.66-.54-1.28-1.15-1.87-1.81-10.53-11.83-21.24-23.55-32.56-34.64-.33-.33-.51-.77-.55-1.34-.32-5.11-.61-10.21-.89-15.32-.05-.82-.48-13.21-.63-14.21-.02-.1-10.84.11-19.43,4.64-7.78,4.1-14.7,8.7-14.89,11.61,0,.15-2.12-1.06-2.23-.97-4.67,3.63-12.4,4.28-17.31.71-.12-.09-.23-.08-.33.03l-6.55,7.18c-.23.26-.49.28-.76.06-7.76-6.06-11.94-16.62-9.04-26.36,1.36-4.53,4.52-6.82,6.92-10.01,3.72-4.97,14.99-20.42,27.58-28.96,11.06-7.5,25.82-8.39,25.82-8.39,0,0-.67-13.29-.67-13.42,0-7.92-.5-15.81-1.51-23.66,0-.06.02-.12.06-.16,6.64-6.49,13.73-12.44,21.28-17.86,12.8-9.17,27.33-15.65,42.77-20.22,15.11-4.48,30.2-6.14,45.94-6.04,10.83.06,21.49,1.46,31.95,4.19,7.01,1.83,13.97,3.93,20.72,6.65,1,.4,1.16,1.62,1.44,2.54,1.64,5.41,3.16,10.85,4.54,16.33,4.34,17.26,10.17,37.43,11.31,55.18,1.03,15.97,1.44,28.15.63,44.75-.35,7.22-4.79,36.65-7.05,43.47-4.8,14.53-13.9,25.76-27.29,33.71-5.92,3.51-12.2,6.2-18.83,8.08-2.06.58-4.12,1.15-6.19,1.69-1.02.27-1.09,1.93-1.39,2.67-1.22,3.11-2.41,6.36-3.77,9.26-5.63,12.01-12.8,23.04-21.51,33.09-3.17,3.66-6.8,7.21-10.9,10.65-8.52,7.16-17.78,13.42-27.78,18.79-.39.21-.53.53-.4.96l3.8,12.69c.06.21.03.4-.09.57-7.58,10.86-15.89,21.27-23.82,31.87-1.01,1.35-2.14,2.82-3.41,4.41-1.83,2.31-3.57,4.69-5.51,6.9-1.15,1.31-2.53,3.3-4.16,3.9-21.62,7.95-46.93,5.86-65.29-8.84-.05-.04-.06-.09-.02-.15l.06-.09s.04-.03.06-.01c8.91,5.3,21.24,6.66,31.34,5.89,4.94-.38,9.86-1.68,14.6-2.96.36-.1.36-.2,0-.33-3.76-1.31-7.08-3.09-10.61-4.94-.26-.14-.68-.18-.96-.38-.16-.11-.14-.16.05-.14,8,.82,16.29-1.46,23.87-3.78.14-.04.14-.06,0-.05-3.55.25-7.1.48-10.63.69-.82.05-1.66.05-2.51,0-.24-.01-.25-.08-.04-.18,2.56-1.32,4.74-3.03,6.53-5.11,3.75-4.35,7.58-9.95,12.52-13.89,4.36-3.47,9.3-5.08,14.85-5.3.12,0,.24-.08.3-.19,1.06-2.03,2.39-3.85,4.01-5.46.11-.11.09-.16-.07-.16-5.56.23-10.85,1.44-15.88,3.63-4.53,1.97-9.43,5.38-13.76,8.43-3.1,2.18-5.61,3.58-7.52,4.23-2.27.76-4.42,1.54-6.44,2.31-.7.27-.77.14-.23-.37,5-4.71,9.24-10.55,12.76-16.41,4.16-6.92,6.6-14.64,4.9-22.62-1.12-5.27-4.48-9.98-9.28-12.47-9.12-4.73-21.82-1.07-29.72,4.75-9.6,7.07-18.19,20.19-15.4,32.65,2.09,9.32,9.86,15.95,19.47,16.25,5.96.19,10.59-1.74,15.43-4.44.26-.15.28-.11.08.1-6.06,6.2-15.61,8.21-24,6.73-9.84-1.73-18.24-7.76-23.95-15.81-.34-.49-.53-.96-.56-1.44-.6-9.89,2.33-18.21,7.66-26.36,6.07-9.27,13.25-18.01,20.26-26.58Z"/>
      <path class="cls-1" d="m370.65,243.7l.05.13c.04.11.17.17.28.13,1.16-.38,3.01-.86,5.54-1.42,6.34-1.4,11.94-2.42,16.8-3.04,4.77-.61,10.79-1.1,18.07-1.45,15.36-.75,30.43.95,45.21,5.08,1.04.29,2.12.52,2.4,1.41,0,0,.11.35.32,1.04,3.49,11.66,42.73,135.55-17.39,174.38.46-.14,32-6.76,38.26-53.71,6.22-46.66-16.47-122.28-17.1-124.35,0-.03-.01-.04-.01-.04-.05-.16-.15-.61-.76-.83-12.85-4.61-26.26-5.96-39.92-6.19-8.75-.14-17.5.19-26.23,1.01-2.99.98-6.28,1.6-9.09,2.39-1.5.42-3.01.81-4.53,1.17-2.46.57-6.37,1.91-11.74,4.01-.11.04-.16.16-.12.27Z"/>
      <path class="cls-4" d="m319.12,271.05s.09.04.13,0c5.67-4.78,11.78-9.1,18.32-12.97,10.74-6.34,20.83-9.83,32.06-13.03.16-.05.34.04.4.2,8.01,20.12,13.45,40.45,17.46,62.14.33,1.77.75,5.86,1.27,12.26.66,8.19.66,16.15-.01,23.88-.28,3.22-1.09,7.41-1.53,9.98-2.43,14.3-6.68,28.51-12.98,41.59-2.3,4.77-4.7,9.48-7.2,14.14-.04.07-.01.16.06.21,8.35,5.1,16.47,9.25,26.32,12.2,13.82,4.14,27.57,4.34,41.26.62,20.73-5.64,31.26-20.64,36.84-40.46,2.5-8.87,5.91-24.42,4.31-46.62-3.24-45.02-11.82-73.29-11.82-73.29,0,0-3.24-11.58-5.04-17.36-.28-.9-1.37-1.12-2.4-1.41-14.78-4.14-29.85-5.83-45.21-5.08-7.27.35-13.3.84-18.07,1.45-4.86.62-10.46,1.64-16.8,3.04-2.53.56-4.37,1.03-5.54,1.42-.11.04-.24-.02-.28-.13l-.05-.13c-.04-.11.01-.23.12-.27,5.38-2.11,9.29-3.44,11.74-4.01,1.52-.35,3.03-.74,4.53-1.17,2.81-.79,6.1-1.41,9.09-2.39-18.94,1.27-37.92,6.61-54.2,16.07-8.14,4.73-15.37,10.82-21.7,17.8-.45.49-.82.89-1.12,1.2-.03.03-.03.09,0,.13Zm84.71,10.16c.05-2.4.65-4.56,1.78-6.47.52-.88,1.16-1.71,1.91-2.48,0,0,0,0,0-.01.23-.31,5.3-7,15.28,1.19,0,.02,0,.05.05.1,1.93,2.29,3.42,4.91,4.46,7.87,2.79,7.9,4.58,16,4.64,24.3,0,.33-.08.96-.25,1.91.15.04.27.09.38.17.12.08.16.19.14.33-.76,5-1.29,11.63-6.89,13.9-4.08,1.66-8.29,1.02-11.62-1.89-1.38-1.21-2.45-2.53-3.19-3.97-3.1-5.99-4.47-12.6-4.11-19.84-.07-.08-.13-.19-.18-.32-1.74-4.72-2.54-9.64-2.42-14.79Z"/>
      <path class="cls-4" d="m450.77,273.77c.09-.11.11-.18.06-.2-.04.13-.06.2-.06.2Z"/>
      <path class="cls-3" d="m457.87,272.07c2.46,1.52,4.12,3.69,5.15,6.28,1.33,3.37,2.21,6.99,2.64,10.87.56,5.04.85,10.07.85,15.1-.54,2.16-.66,4.5-3.61,4.58-3.84.1-5.28-6.03-5.31-8.96,0-.11.08-.19.19-.19l1.77-.02c.14,0,.27-.09.33-.22.74-1.81.73-3.64-.38-5.25-.29-.41-.19-.98.23-1.28.45-.32.96-.51,1.5-.56.47-.05.66-.3.55-.76-.71-3-2.81-13.68-7.91-11.78-.42.16-.93.72-1.53,1.69-1.88,3.03-2.03,5.68-2.67,8.95-1.17-4.12-1.44-8.21-.8-12.28.27-1.7.35-2.97,1.49-4.81,1.31-2.11,5.12-2.85,7.53-1.36Z"/>
      <path class="cls-3" d="m422.81,273.45s3.47,5.01,4.51,7.97c2.79,7.9,4.58,16,4.64,24.3,0,.33-.08.96-.25,1.91-.5,3.77-4.67,5.2-7.74,4.08-3.86-1.41-5.7-7.46-5.92-11.14,0-.15.12-.27.27-.25,1.27.18,3.12.71,3.44-1.22.13-.78.15-1.56.05-2.35-.11-.87-.9-1.34-1.01-1.96-.3-1.84,1.18-2.13,2.58-1.82.2.04.38-.14.32-.34-1.23-4.27-2.99-10.78-7.47-12.78-6.76-3.01-9.44,7.5-9.51,11.81-.04,2.07-.14,3.62-.31,4.66-.07-.08-.13-.19-.18-.32-1.74-4.72-2.54-9.64-2.42-14.79.08-3.52.98-7.67,2.77-9.44,4.09-4.03,11.18-3.56,16.21,1.67Z"/>
      <path class="cls-4" d="m365.54,281.57c-1.99-7.2-4.46-13.78-7.29-20.75-.06-.15-.17-.19-.32-.12-9.61,4.63-18.81,9.58-27.41,15.92-.49.36-.76.74-.69,1.4.7,6.39,1.33,12.79,1.9,19.2.01.14.07.26.19.35,16.72,13.3,18.71,40.45,4.44,56.17-.16.18-.24.41-.22.66.62,7.32.98,14.66,1.09,22.05,0,.55.26.86.65,1.2,5.08,4.43,10.03,9.01,14.84,13.74.86.85,2.59,2.36,3.74,3.7.06.07.17.05.21-.03,3.7-8.49,7.03-17.14,9.99-25.94,2.05-6.09,3.6-12.75,4.66-19.97,2.17-14.8,2.14-28.99-.09-42.58-1.2-7.29-3.09-15.62-5.69-24.99h0Z"/>
      <path class="cls-1" d="m406.43,296.32c-.36,7.24,1.01,13.85,4.11,19.84.74,1.44,1.81,2.76,3.19,3.97,3.33,2.92,7.54,3.55,11.62,1.89,5.6-2.27,6.13-8.9,6.89-13.9.02-.14-.03-.25-.14-.33-.11-.08-.23-.13-.38-.17-.5,3.77-4.67,5.2-7.74,4.08-3.86-1.41-5.7-7.46-5.92-11.14,0-.15.12-.27.27-.25,1.27.18,3.12.71,3.44-1.22.13-.78.15-1.56.05-2.35-.11-.87-.9-1.34-1.01-1.96-.3-1.84,1.18-2.13,2.58-1.82.2.04.38-.14.32-.34-1.23-4.27-2.99-10.78-7.47-12.78-6.76-3.01-9.44,7.5-9.51,11.81-.04,2.07-.14,3.62-.31,4.66h0Z"/>
      <path class="cls-1" d="m449.66,290.52c-.05,4.47.35,9,1.2,13.6.75,4.02,3.37,13.98,9.23,13.12,3.55-.52,5.23-3.75,5.93-6.87.45-2.03.61-4.04.49-6.03-.54,2.16-.66,4.5-3.61,4.58-3.84.1-5.28-6.03-5.31-8.96,0-.11.08-.19.19-.19l1.77-.02c.14,0,.27-.09.33-.22.74-1.81.73-3.64-.38-5.25-.29-.41-.19-.98.23-1.28.45-.32.96-.51,1.5-.56.47-.05.66-.3.55-.76-.71-3-2.81-13.68-7.91-11.78-.42.16-.93.72-1.53,1.69-1.88,3.03-2.03,5.68-2.67,8.95h0Z"/>
      <path class="cls-4" d="m531.13,320.26c-.82,1.04-1.66,1.88-2.51,2.51-.96.71-1.96,1.38-2.98,1.98-.1.06-.22-.03-.2-.14.48-2.57.77-5.08.01-7.63-.4-1.34-1.34-2.88-1.97-4.29-.11-.25-.08-.55.08-.78,2.02-2.86,4.48-5.02,6.94-7.43.96-.95,1.67-2.03,2.11-3.25.06-.16.26-.23.4-.13,4.52,2.91,6.23,8.14,3.03,12.91-1.47,2.2-3.27,4.18-4.9,6.25Z"/>
      <path class="cls-4" d="m322.05,319.42c2.25,1.84,4.22,6.15,4.99,8.65,1.65,5.38-.14,11.91-2.96,16.58-.03.04-.02.08.02.11h0s.08.02.11-.02c1.02-1.33,1.97-2.72,2.84-4.16,4.28-7.09,4.9-15.96.73-23.29-2.56-4.51-7.43-9.18-12.95-7.19-3.3,1.19-6.49,3.82-9.42,6-.12.09-.14.2-.05.33,3.08,4.39,4.26,8.71,2.06,13.76-.55,1.28-1.6,2.57-2.46,3.82-.08.11-.08.23,0,.34,3.34,5.01,3.5,10.2.49,15.57-.17.31-.1.38.21.22,2.14-1.09,4.18-2.33,6.13-3.7,6.08-4.3,9.86-9.98,11.36-17.06.61-2.88.39-7.06-1.21-9.85-.14-.25-.1-.28.12-.1h0Z"/>
      <path class="cls-4" d="m533.42,334.86c-.37.16-.46.06-.28-.3,2.29-4.48.92-9.05-2.49-12.49-.11-.11-.1-.22.02-.31,2.34-1.97,4.44-3.6,6.31-4.89,2.04-1.4,4.6-1.79,6.77-.36,2.4,1.57,4.01,4.56,3.36,7.39-1.21,5.23-9.31,9.01-13.68,10.95Z"/>
      <path class="cls-4" d="m289.97,336.71c-.22-.07-.38-.22-.46-.46-.91-2.45-2.63-4.15-5.15-5.12-1.28-.49-2.39.48-3.26,1.45-2.62,2.91-5.03,5.55-7.07,8.77-.09.15-.31.18-.45.07-2.03-1.59-4.3-2.7-6.81-3.34-.48-.12-.84-.05-1.08.21-.92,1.01-1.8,2.02-2.67,3.05-.1.12-.07.17.09.15,3.58-.37,10.96,5.5,13.49,8.05.39.39,1.25,1.42,2.58,3.09.08.1.22.11.31.03,2.16-2.03,5.2-4.83,8.12-5.5,3.95-.92,5.98,2.56,5.1,5.58-.37,1.26-1.08,2.6-2.13,4-.09.12-.05.18.12.17,3.49-.07,6.23-3.85,8.5-5.74,6.96-5.85,4.76-12.54-3.44-17.14-.25-.14-.34-.42-.21-.65,1.2-2.23,1.91-4.53.47-6.81-2.85-4.52-11.81-3.76-16.33-2.62-.26.07-.27.14-.03.24,5.43,2.06,11.61,5.91,10.57,12.38-.02.1-.13.16-.24.13h0Z"/>
      <path class="cls-3" d="m421.53,382.22c-.82-.81-1.72-1.5-2.69-2.08-.44-.26-1.06-1-1.86-2.21-.51-.77-.98-1.61-1.4-2.51-3.06-6.58-4.43-13.54-4.11-20.89.07-1.64.16-3.21.26-4.72.03-.44.14-.45.31-.05,1.33,3.02,3.45,5.98,4.67,7.56,2.65,3.42,6.17,6.22,9.39,9.21.76.71.99.57.68-.43l-3.09-9.93c-.08-.26.14-.52.41-.48,2.7.42,5.71.56,7.62,2.79,4.98,5.8,6.89,15.07,7.71,22.47.11.94-.03,1.68-.41,2.23-.07.1-.03.23.07.29.09.05.2.07.35.05,4.23-.57,7.4-1.91,11.05-4.04.14-.08.25-.06.33.06l3.18,4.7c.08.13.28.05.26-.1-.52-3.25-1.33-6.42-2.43-9.51-.65-1.83-1.69-3.63-2.61-5.43-.08-.16-.07-.35.03-.5,3.23-4.65,5.73-9.66,7.51-15.02.08-.26.28-.48.53-.59,4.02-1.81,6.85-3.96,8.65-8.11,1.35-3.11,2.02-6.5,1.99-10.16-.03-3.49-1.14-8.33-5.31-8.9-4.09-.55-6.66,3.7-7.19,7.14-.08.49.07.57.44.24,1.2-1.07,2.32-2.43,3.95-2.86.49-.13.85.03,1.08.48,2.08,4,1.53,11.7-3.08,13.94-3.2,1.55-7.12,1.96-10.64,2.01-13.29.18-24.14-3.99-35.28-10.81-.1-.06-.14-.19-.09-.3.2-.45.52-.84.94-1.18,2.53-2.02,6.62-3.07,9.5-1.19.9.59,1.5,1.23,1.82,1.93.59,1.32.75,1.27.47-.15-.41-2.1-1.78-3.71-4.1-4.82-4.78-2.29-11.2-.12-14.68,3.46-2.4,2.46-3.74,5.54-4.01,9.25-.02.25.05.27.2.08,2.02-2.56,3.55-4.51,6.24-6.16.31-.19.39-.12.25.22-1.08,2.45-1.9,5.05-2.47,7.81-1.7,8.2-2.36,17.51.14,25.45,2.31,7.35,8.51,10.01,15.43,11.75h0Z"/>
      <path class="cls-6" d="m421.53,382.22c1.59.6,3.42,1.02,5.49,1.26,4.16.49,8.31.51,12.44.04-.15.02-.26,0-.35-.05-.1-.06-.14-.19-.07-.29.38-.55.51-1.28.41-2.23-.82-7.4-2.73-16.67-7.71-22.47-1.92-2.24-4.93-2.37-7.62-2.79-.27-.04-.49.22-.41.48l3.09,9.93c.31,1,.08,1.15-.68.43-3.22-2.99-6.74-5.79-9.39-9.21-1.22-1.58-3.35-4.54-4.67-7.56-.18-.4-.28-.38-.31.05-.11,1.51-.19,3.08-.26,4.72-.32,7.35,1.05,14.31,4.11,20.89.42.9.89,1.74,1.4,2.51.8,1.21,1.42,1.94,1.86,2.21.97.58,1.87,1.27,2.69,2.08h0Z"/>
      <path class="cls-1" d="m422.39,348.9c-1.68-.54-3.65-1.46-5.92-2.75-.32-.18-.8-.7-1.25-.93-.19-.1-.27-.04-.23.17.98,5.79,3.41,10.07,9.1,11.19,5.77,1.13,12.68,1.94,18.48.81,1.87-.37,3.74-3.62,5.07-5.6.07-.11.04-.15-.08-.14-8.83.72-17.22-.2-25.17-2.76h0Z"/>
      <path class="cls-4" d="m276.32,360.6c.03.12-.01.3-.12.55-.55,1.24-1.17,2.49-1.88,3.74-.06.11.03.23.15.22,1.1-.16,5.06-1.05,5.35-2.33.3-1.35-2.24-4.27-3.14-4.96-1.64-1.26-3.3-2.48-4.98-3.69-.37-.27-.71-.23-1.01.12-3.4,3.93-6.53,8.06-9.36,12.41-.3.46-.25.51.15.13,1.9-1.77,3.7-3.63,5.42-5.57.15-.17.41-.17.56,0,.76.83,3.57,3.52,4.76,2.5,1.22-1.04,2.47-2.11,3.76-3.22.18-.15.3-.11.35.11h0Z"/>
      <path class="cls-2" d="m413.93,395.32c7.13,4.38,17.63,4.16,25.09.82.38-.17.75-.39,1.08-.65.2-.16.18-.21-.07-.16-8.95,1.82-17.44.72-25.46-3.31-3.52-1.77-7.91-5.04-9.74-8.72-.08-.16-.13-.16-.14.03-.02.24.01.47.09.68,1.86,4.94,4.92,8.71,9.15,11.31h0Z"/>
      <path class="cls-6" d="m361.56,456.13c-.05.05-.09.06-.15.02h0c-.05-.04-.06-.09-.03-.15,5-7.95,7.67-17.58,8.06-26.78.05-1.09.15-1.94.31-2.51.01-.05,0-.09-.05-.12l-.11-.08c-.15-.1-.25-.07-.32.09-3.49,8.25-7.94,16.11-13.34,23.57-2.48,3.44-5.11,6.64-7.87,9.6-6.21,6.68-12.89,12.78-20.43,17.9-.23.16-.21.27.07.31,5.68.99,10.61,3.47,14.77,7.43.18.17.47.15.63-.05.4-.51.87-.98,1.39-1.42,6.14-5.13,10.51-8.83,13.11-11.11,8.47-7.43,16.69-16.8,22.26-26.96,1.3-2.37,2.4-5.08,3.51-7.64.25-.57.17-.62-.23-.14-4.56,5.41-9.69,8.85-16.17,13.16-1.88,1.26-3.69,2.88-5.41,4.87h0Z"/>
      <path class="cls-4" d="m359.33,497.04c.86,2.03,1.64,3.9,2.22,6.01.03.13.19.19.3.12,6.86-4.34,13.4-9.11,19.61-14.33,11.44-9.6,21.22-21.38,28.48-34.43,2.89-5.2,4.69-9.58,6.81-14.5.03-.07-.03-.15-.1-.14-2.67.27-5.35.33-8.03.15-.15-.01-.26.05-.32.19-7.89,17.24-18.01,31.91-32.43,44.07-5,4.21-10.22,8.14-15.65,11.79-.31.21-.59.45-.84.73-.09.11-.11.22-.05.35h0Z"/>
      <path class="cls-4" d="m301.22,486.99c15.67-2.41,32.77,6.16,37.93,21.67.12.37.37.62.73.74,3.93,1.3,7.64,2.98,11.14,5.04.14.08.31-.05.27-.2-2-7.63-5.97-13.98-11.91-19.04-10.76-9.17-24.59-13.68-38.19-8.31-.03,0-.04.04-.03.07,0,.03.03.04.06.04h0Z"/>
      <path class="cls-4" d="m336.7,524.57c.87-6.3-.31-15.15-5.81-19.66-.02-.02-.03-.02-.02.01,2.59,6.71,4.45,13.26,5.56,19.65.1.55.18.55.26,0h0Z"/>
      <path class="cls-6" d="m282.78,532.62c4.96,4.93,14.37,3.5,21.02-3.19,6.64-6.69,8-16.11,3.04-21.04-4.96-4.93-14.37-3.5-21.02,3.19-6.64,6.69-8,16.11-3.04,21.04h0Z"/>
    </g>
    <g>
      <path class="cls-3" d="m222.91,379.79c3.64-8.44,12.32-17.92,25.95-24.51-2.96-7.57-1.55-11.17,2.97-11.87,1.93-.3,4.42-.04,7.37.69.21-.34,20.25,4.44,28.05,13.36,1.99,2.28,3.2,5.43,3.41,7.6.18,1.93-.43,3.82-1.92,5.63-1.52,1.85-3.97,3.66-7.42,5.38h0c3.68,4.72,7.66,10.35,8.51,15.17.83,4.71-1.34,8.52-9.71,9.72-3.78,7.33-7.38,11.72-10.86,13.16-3.81,1.58-7.55.23-11.26-4.18-4.84,1.5-8.93,1.53-12.37.25-3.78-1.4-6.69-4.03-8.86-7.76-5.48-.02-9.65-1.88-12.5-4.96-2.09-2.26-3.21-5.07-3.35-8.17-.13-2.87.53-6.12,1.99-9.51Z"/>
      <path class="cls-4" d="m228.38,389.89c.09,2.12.67,3.86,1.77,5.05,1.17,1.27,3.33,2.03,6.56,2.03.54,0,1.11-.02,1.71-.06.16-.01.35.01.58.09.85.26,1.79,1.05,2.1,1.75,1.27,2.79,2.88,4.63,4.87,5.37,2.58.96,5.97.74,10.29-.8.11-.06.26-.08.45-.07.73.07,1.74.72,2.26,1.46,1.33,1.91,2.71,2.91,4.15,3.03.61.05,1.23-.05,1.86-.32,1.44-.61,2.92-1.87,4.45-3.78,1.53-1.91,3.11-4.48,4.73-7.71.07-.14.2-.23.41-.26,6.78-.91,8.55-3.79,7.91-7.33-.65-3.59-3.78-7.99-6.69-11.7-2.73-3.48-2.68-5.38-2.59-8.81.01-.53.03-1.11.03-1.47.01-.64.79-.74,1.74-.21.95.53,1.7,1.47,1.69,2.11-.01.69-.03,1.1-.04,1.49-.04,1.27-.07,2.29.07,3.23,2.25-1.25,3.88-2.54,4.94-3.85,1.11-1.37,1.58-2.74,1.44-4.08-.12-1.15-.7-2.29-1.72-3.38-1.99-2.16-5.62-4.38-10.63-6.58-1.75-.77-3.43-1.46-4.99-2.04-1.71-.64-3.29-1.17-4.74-1.55-.06-.01-.12-.03-.17-.05-2.44-.64-4.47-.89-5.98-.67-2.6.4-3.65,2.3-2.63,6.2,1.3-.56,2.65-1.09,4.04-1.59.57-.2,1.66.29,2.44,1.11.77.82.93,1.65.36,1.85-15.53,5.48-25.25,15.19-28.97,23.68-1.24,2.83-1.81,5.52-1.72,7.88Z"/>
      <path class="cls-3" d="m267.44,370.71c.31-.52-.27-1.56-1.29-2.33-1.02-.77-2.1-.98-2.41-.46l-7.32,12.43c-.29.5.29,1.51,1.29,2.25,1.01.74,2.06.95,2.36.45l7.37-12.35h0Z"/>
      <path class="cls-3" d="m259.21,367.02c.3-.52-.29-1.57-1.32-2.34-1.03-.78-2.11-.98-2.41-.46l-7.18,12.52c-.29.5.3,1.52,1.32,2.27,1.01.75,2.07.95,2.36.45l7.23-12.44h0Z"/>
    </g>
    <path class="cls-5" d="m271.35,419.06c-.11-.05-.22-.08-.34-.09.11.03.22.06.34.09Z"/>
    <path class="cls-6" d="m228.38,389.89c.09,2.12.67,3.86,1.77,5.05,1.17,1.27,3.33,2.03,6.56,2.03.54,0,1.11-.02,1.71-.06.16-.01.35.01.58.09.85.26,1.79,1.05,2.1,1.75,1.27,2.79,2.88,4.63,4.87,5.37,2.58.96,5.97.74,10.29-.8.11-.06.26-.08.45-.07.73.07,1.74.72,2.26,1.46,1.33,1.91,2.71,2.91,4.15,3.03-.05-.13-.09-.27-.13-.41-.96-3.19-.82-6.59-.66-9.92-4.19,1.73-8.85,3.48-13.12,1.97-3.49-1.23-6.06-4.73-6.2-8.42-2.92-.31-4.93-3.39-4.98-6.33-.05-2.93,1.38-5.68,2.96-8.15,2.58-4.04,5.73-7.78,9.66-10.53,4.11-2.89,8.44-3.97,13.36-4.3-.06-.12-.11-.23-.16-.35-.2-.48-.31-.99-.39-1.52,0,0-.35-1.9-.22-2.83.12-.9.44-1.77.98-2.52.4-.56.93-1.03,1.53-1.38-1.71-.64-3.29-1.17-4.74-1.55-.06-.01-.12-.03-.17-.05-2.44-.64-4.47-.89-5.98-.67-2.6.4-3.65,2.3-2.63,6.2,1.3-.56,2.65-1.09,4.04-1.59.57-.2,1.66.29,2.44,1.11.77.82.93,1.65.36,1.85-15.53,5.48-25.25,15.19-28.97,23.68-1.24,2.83-1.81,5.52-1.72,7.88Z"/>
    <path class="cls-5" d="m272.94,349.49c-.16-.11-.33-.22-.51-.3.17.1.34.2.51.3Z"/>
    <path class="cls-3" d="m507.12,309.32s2.43,12.94-19.78,11.18l-.78,44.78s44.52,2.19,60.53-35.23l-39.97-20.72Z"/>
    <g>
      <path class="cls-3" d="m518.82,327.37s-6.65-3.62-9.81-8.53c-2.91-4.52-3.63-8.61-3.77-12.46-.16-4.38,1.89-8.35,7.27-10.65l.08-.27c-.25-.41-.27-.72-.11-.91,5.88-8.73,11.52-14.76,16.52-18.01,3.06-1.99,5.93-2.97,8.53-2.92,3.3.06,6.23,1.54,8.68,4.46,1.41,1.67,2.56,3.87,3.43,6.59,4.23.13,7.65,1.62,10.48,4.17,2.66,2.4,4.49,5.67,5.8,9.54,3.46.85,6.28,2.05,8.44,3.58,2.73,1.92,4.28,4.16,4.66,6.65.33,2.14-.24,4.55-1.71,7.17-2.1,3.75-6.06,8-11.88,12.62-4.38,3.48-8.13,5.35-11.21,5.76-1.62.22-3.16.04-4.61-.52-.88-.34-11.11-7.38-11.85-7.93-.35.55-8,7.99-18.92,1.66Z"/>
      <path class="cls-4" d="m531.69,308.64c3.31-.96,7.08-3.59,11.46-7.94.31-.31-.14-1.01-1-1.56-.86-.56-1.81-.76-2.12-.45-4.41,4.38-8.04,6.95-11.06,7.78-.16,0-.3.04-.39.1-.92.21-1.77.26-2.58.14-2.37-.35-4.49-3.25-6.6-8.57-.01-.03-.02-.06-.04-.09-.08-.19-.15-.39-.23-.59,5.09-6.86,7.76-12.05,12.17-14.54,2.54-1.44,4.86-2.12,6.88-2.04,1.38.06,2.55.56,3.46,1.52,1.26,1.34,4.56,3.84,5.36,6.54.16.54,1.02,1.25,1.92,1.58.36.13.67.19.91.17,3.53-.18,5.99.54,7.68,1.92,2.01,1.64,3.48,4.26,4.61,7.51.19.55,1.07,1.25,1.97,1.56.14.05.28.09.4.11h0c3.21.63,5.58,1.44,7.09,2.42,1.23.79,1.97,1.83,2.22,3.1.3,1.55-.14,3.32-1.32,5.28-1.79,2.95-5.26,6.27-10.42,9.88-3.79,2.65-6.97,4.04-9.54,4.29-.98.09-1.78.02-2.4-.2-.33-.12-.66-.36-.98-.72-.04-.05-.08-.1-.13-.15-.05-.08-.12-.16-.19-.24-.91-1.21-1.58-3-1.98-5.31-.02-.11-.08-.24-.16-.37,2.93-1.32,5.8-3.69,8.16-7.32.23-.35-.3-1.07-1.18-1.59-.88-.53-1.79-.67-2.02-.32-3.41,5.24-7.8,7.72-11.82,8.17-.84.09-1.64.1-2.39.02-.07-.01-.14-.02-.21-.02-.66-.08-1.29-.23-1.86-.43-.94-.34-1.77-.91-2.41-1.66-.02-.02-.04-.05-.06-.07-1.54-1.87-2.15-4.6-1.21-7.89h0Z"/>
      <path class="cls-6" d="m521.68,325.21s-.08-.04-.12-.05c-.1-.04-.21-.09-.31-.13-3.07-1.36-6.03-3.84-8.29-6.78-2.42-3.15-4.01-6.78-4.14-10.17-.13-3.51,1.33-6.74,5.06-8.91,2.78,6.83,6.36,10.65,11.17,11.31.1.01.2.03.31.04-.38,3.46.49,6.48,2.18,8.8.02.04.05.07.08.11,1.41,1.88,3.29,3.34,5.49,4.3-3.44,2.94-7.58,3.05-11.44,1.48h0Z"/>
    </g>
    <path class="cls-4" d="m533.96,338.75s-16.23,14.97-38.31,15.15c0,0-1.6-6.39-1.86-10.77,0,0,5.59,4.56,6.39,6.21.8,1.64,5.59-2.37,3.46-7.3-2.13-4.93.8-11.5,8.78-7.67,7.98,3.83,9.84,7.67,11.97,6.02,2.13-1.64-10.64-8.4-10.64-8.4,0,0,13.57,3.1,20.22,3.1,6.65,0,3.72,2.92,3.72,2.92l-3.72.73Z"/>
    <path class="cls-6" d="m503.9,321.86s-7.7,2.57-9.84,2.78c-2.14.21,4.49,13.9,4.92,13.69s.43-10.48,2.35-12.19c1.92-1.71,7.27-2.14,7.27-2.14l-4.71-2.14Z"/>
    <path class="cls-1" d="m554.35,295.62c1.77,1.6,2.13,4.3,3.76,6.06,2.68,2.9,7.6,2.16,10.8,4.48.45.32.87.72,1.09,1.23.6,1.41-.53,2.93-1.7,3.92-1.6,1.34-3.43,2.41-5.39,3.12-1.05.38-2.18.67-3.28.45-1.1-.22-2.13-1.08-2.23-2.19-.07-.75.27-1.47.39-2.22.3-1.96-1-3.8-2.38-5.22-1.38-1.43-2.98-2.8-3.55-4.7-.46-1.54-.23-3.4-1.34-4.56-1.4-1.45,1.3-2.65,3.84-.35Z"/>
    <path class="cls-1" d="m409.32,452.01c-.22.67-11.49,25.22-40.41,44.46l.45-2.25s25.37-19.08,37.05-41.31l2.92-.9Z"/>
    <path class="cls-3" d="m316.03,501.69c3.47,3.61,7.99,11.24-.16,25.88-.36.66-1.37.28-1.2-.46,1.28-5.74,2.92-16.31.2-24.87-.23-.71.64-1.1,1.15-.56Z"/>
    <path class="cls-1" d="m275.17,381.45c0-.22.29-.3.4-.11,1.04,1.84,3.66,6.95,2.06,9.15-1.97,2.7-4.42,1.72-5.16,2.7-.49.65-1.83,3.11-2.68,4.72-.12.23-.24.04-.41-.15-1.63-1.74-2.17-4.64-.13-8.16.7-1.2,4.55-1.46,4.55-3.42l1.38-4.73Z"/>
    <path class="cls-3" d="m420.25,260.61s-20.83-15-27.33,7.83c0,0-6-19.33,8-20.33,14-1,19.33,12.5,19.33,12.5Z"/>
    <path class="cls-3" d="m461.49,262.35s-3.12-6.27-8.46-6.16c-5.34.11-8.62,5.84-8.62,5.84,0,0-.65-11.24,7.34-11.27,7.99-.03,9.74,11.59,9.74,11.59Z"/>
  </g>
</svg>