<?xml version="1.0" encoding="UTF-8"?>
<svg id="Layer_1" data-name="Layer 1" xmlns="http://www.w3.org/2000/svg" viewBox="0 0 800 800">
  <defs>
    <style>
      .cls-1 {
        fill: #fff;
      }

      .cls-2 {
        fill: #0f1e2f;
      }

      .cls-3 {
        fill: #102f4f;
      }

      .cls-4 {
        fill: #ccc;
      }

      .cls-5 {
        fill: #b70013;
      }

      .cls-6 {
        fill: #cd1e29;
      }
    </style>
  </defs>
  <path class="cls-1" d="m185.24,490.25c-8.25,0-15.81-2.56-21.86-7.41-1.71-1.37-2.14-3.89-.96-5.75.03-.05.06-.09.09-.14.77-1.12,2.07-1.86,3.43-1.92-3.2-1.66-6.04-4.15-8.29-7.33-.64-.91-.99-1.89-1.06-2.92-.33-5.39,1.07-10.25,4.39-15.33,2.99-4.56,6.45-8.8,9.81-12.9l.22-.26c.37-.46.8-.93,1.22-1.41.24-.27.48-.54.71-.8.75-.86,1.69-1.44,2.72-1.69,4.12-1.01,8.19-1.5,11.39-1.81.07-.05.47-.38.6-.48,3.02-2.35,5.79-4.9,8.23-7.58,2.74-2.99,4.96-5.78,6.61-8.27.82-1.24,1.63-2.47,2.42-3.7-4.22-4.72-9.1-10.04-14.21-15.05-.93-.92-1.46-2.1-1.55-3.43-.16-2.5-.3-4.97-.43-7.44,0-.1-.07-1.87-.09-2.2-1.09.26-2.24.64-3.25,1.18-3.34,1.76-4.68,2.84-5.13,3.26-.61,1.66-2.21,2.83-4.06,2.83h0c-.23,0-.45-.02-.65-.05-1.53.68-3.24,1.06-4.95,1.06-.96,0-1.89-.11-2.78-.33l-1.14,1.25c-.86.95-2.1,1.51-3.38,1.51-1.03,0-2.01-.34-2.84-.99-5.33-4.16-7.67-11.13-5.83-17.32.74-2.47,2.15-4.04,3.17-5.19.33-.37.62-.69.84-.99l.25-.33c2.1-2.8,7.66-10.25,14.06-14.59,3.44-2.33,7.41-3.54,10.35-4.15-.13-2.63-.13-2.67-.13-2.78,0-3.61-.23-7.26-.69-10.84,0-.08-.02-.16-.02-.23-.09-1.27.41-2.58,1.32-3.48h0c3.33-3.26,6.95-6.29,10.75-9.02,6.13-4.39,13.49-7.88,21.89-10.37,7.02-2.08,14.44-3.09,22.7-3.09h.67c5.55.03,11.08.76,16.45,2.16,4.09,1.07,7.43,2.14,10.5,3.38,2.4.96,2.99,3.16,3.19,3.88l.03.09c.81,2.66,1.56,5.37,2.24,8.06.32,1.26.65,2.55.99,3.86,1.92,7.42,4.09,15.83,4.58,23.49.5,7.74.71,13.82.31,22.03-.17,3.51-2.32,18.19-3.61,22.08-2.63,7.98-7.69,14.23-15.04,18.59-3.16,1.87-6.55,3.33-10.1,4.33-.37.1-.74.21-1.11.31l-.03.07c-.49,1.28-1,2.6-1.59,3.86-2.87,6.11-6.57,11.81-11,16.93-1.66,1.92-3.59,3.81-5.73,5.61-3.51,2.95-7.3,5.62-11.31,7.97l.93,3.1c.41,1.32.19,2.78-.62,3.96-2.51,3.6-5.19,7.1-7.77,10.48-1.27,1.67-2.55,3.33-3.8,5.01-.51.68-1.08,1.43-1.73,2.23-.25.31-.5.64-.76.97-.63.82-1.29,1.66-2.02,2.5-.08.1-.17.2-.26.3-.71.85-1.78,2.14-3.5,2.78-4.45,1.64-9.09,2.47-13.77,2.47Zm-.71-41.14c-2.28,0-5.09.98-7.14,2.49-3.54,2.61-6.65,7.32-5.76,11.3.59,2.62,2.67,4.37,5.3,4.46h.25c1.74,0,3.18-.61,4.94-1.59.66-.38,1.41-.59,2.19-.59,1.1-1.34,2.19-2.9,3.25-4.66,1.74-2.88,2.34-5.42,1.84-7.77-.29-1.35-1.12-2.49-2.24-3.07-.71-.37-1.6-.56-2.62-.56Z"/>
  <path class="cls-1" d="m250.39,413.93c-1.64,0-3.19-.94-3.92-2.5-.91-1.95-.23-4.27,1.57-5.44,23.22-15,11.62-62.12,7-77.69-5.23-1.35-10.6-2.04-15.97-2.04-1.05,0-2.12.03-3.18.08-3.36.16-6.17.39-8.36.67-2.2.28-4.79.75-7.71,1.4-1.39.31-2.01.49-2.25.57-.44.14-.93.22-1.39.22h0c-1.81,0-3.47-1.13-4.13-2.82,0-.02-.04-.11-.05-.13-.39-1.06-.35-2.31.12-3.34.46-1.02,1.35-1.87,2.39-2.29,2.83-1.11,4.87-1.8,6.28-2.13.67-.16,1.33-.33,1.99-.51.59-.17,1.23-.32,1.88-.48.84-.2,1.63-.39,2.32-.62.31-.1.62-.17.94-.2,3.69-.34,7.43-.52,11.13-.52.66,0,1.31,0,1.97.02,8.4.14,14.76,1.13,20.61,3.23,1.5.54,2.61,1.72,3.06,3.26,0,0,0,.01,0,.02.6,1.98,11.45,38.55,8.37,61.66-3.23,24.23-19.69,28.99-21.62,29.47-.36.09-.72.14-1.08.14Z"/>
  <path class="cls-1" d="m237.53,416.32c-3.89,0-7.83-.59-11.72-1.75-4.58-1.37-8.67-3.26-13.69-6.33-1.98-1.16-2.7-3.74-1.58-5.83,1.16-2.17,2.3-4.4,3.38-6.65,2.74-5.69,4.72-12.04,5.88-18.87l.14-.78c.19-1.1.46-2.6.55-3.68.3-3.46.3-7.08,0-10.77-.32-3.96-.5-5.15-.56-5.47-1.75-9.48-3.94-17.7-6.81-25.55-3.75,1.21-7.19,2.62-10.78,4.74-2.94,1.74-5.71,3.7-8.23,5.83-.78.66-1.79,1.03-2.81,1.03h0c-1.13,0-2.24-.46-3.04-1.24,0,0-.09-.09-.13-.13-.04-.04-.12-.14-.12-.14-.68-.79-1.06-1.81-1.06-2.85,0-1.11.43-2.19,1.19-2.99,0,0,.3-.32.49-.53,3.47-3.82,7.33-6.98,11.47-9.39,8.19-4.76,17.87-7.64,27.98-8.31.1,0,.19,0,.29,0,1.19,0,2.3.49,3.09,1.3,1.26-.09,2.6-.17,4.04-.24,1.2-.06,2.41-.09,3.6-.09,6.59,0,13.16.9,19.54,2.69l.08.02c2.13.58,3.48,1.77,4.03,3.53.85,2.71,2.3,7.88,2.45,8.44.32,1.08,4.31,14.71,5.85,36.18.62,8.59-.11,16.42-2.23,23.93-3.46,12.26-10.25,19.61-20.76,22.47-3.48.95-7.02,1.43-10.53,1.43Zm-.35-68.15c.32.65.48,1.38.44,2.12-.14,2.73.36,5.14,1.5,7.35.11.21.29.43.55.65.28.25.48.28.62.28s.29-.03.46-.1c.22-.33.4-1.24.53-2.02-.12-.54-.14-1.11-.04-1.68.02-.13.04-.23.05-.32-.04-3.12-.69-6.44-1.99-10.12-.3-.84-.69-1.56-1.19-2.21-.56-.41-.94-.58-1.15-.65-.02.03-.05.05-.07.07-.09.09-.19.22-.27.35-.1.17-.24.46-.25,1-.04,1.85.22,3.58.81,5.27Z"/>
  <path class="cls-1" d="m254.73,343.49c-.64,0-1.28-.14-1.89-.42-1.8-.84-2.78-2.86-2.39-4.81,0,0,.04-.19.14-.51.38-1.14,1.21-2.06,2.3-2.56.57-.26,1.18-.39,1.79-.39.56,0,1.12.11,1.65.33,1.26.52,2.21,1.62,2.55,2.94.34,1.35.03,2.76-.87,3.86-.83,1.02-2.04,1.56-3.29,1.56Z"/>
  <path class="cls-1" d="m260.45,360.46c-4.37,0-6.78-4.42-6.83-8.58,0-.1,0-.2,0-.3-1.72-.19-3.18-1.41-3.66-3.11-.73-2.58-.9-5.19-.5-7.76l.03-.23c.13-.86.32-2.15,1.28-3.7,1.18-1.89,3.43-3.07,5.87-3.07,1.33,0,2.61.35,3.69,1.02,1.91,1.18,3.37,2.95,4.22,5.11.78,1.97,1.3,4.11,1.55,6.35.29,2.57.43,5.18.44,7.74,0,.35-.04.71-.13,1.05l-.06.28c-.99,4.42-4.03,5.15-5.75,5.19-.04,0-.12,0-.16,0Z"/>
  <path class="cls-1" d="m242.79,361.98c-.87,0-1.71-.15-2.51-.44-3.36-1.23-4.9-4.72-5.45-7.43-.1.04-.21.07-.31.1-.4.12-.81.17-1.21.17-1.21,0-2.39-.51-3.22-1.44-.41-.46-.72-.99-.93-1.59-1-2.72-1.48-5.65-1.41-8.66.03-1.51.36-5.29,2.62-7.52,1.66-1.63,3.89-2.54,6.28-2.54,2.82,0,5.55,1.22,7.67,3.42.49.52,2.45,3.46,3.13,5.4,1.64,4.65,2.45,8.94,2.48,13.11,0,.45-.05.93-.17,1.62-.5,3.36-3.41,5.79-6.96,5.79Z"/>
  <path class="cls-1" d="m209.29,401.97c-1.24,0-2.46-.55-3.28-1.48-.28-.33-.75-.76-1.08-1.08-.19-.18-.37-.34-.5-.48-2.25-2.21-4.59-4.38-6.96-6.44-1.45-1.26-1.78-2.74-1.79-3.77-.05-3.44-.22-6.91-.51-10.31-.09-1.35.35-2.63,1.21-3.58,2.51-2.76,3.75-6.69,3.42-10.8-.33-4.05-2.17-7.69-5.04-9.98-.95-.73-1.6-1.91-1.7-3.18-.28-3.1-.58-6.18-.9-9.14-.19-1.84.56-3.51,2.06-4.61,4.84-3.57,9.96-6.19,13.89-8.09.58-.28,1.29-.44,1.94-.44,1.79,0,3.39,1.08,4.08,2.74,1.28,3.16,2.6,6.59,3.68,10.49,1.29,4.64,2.24,8.84,2.84,12.48,1.14,6.95,1.16,14.3.05,21.83-.55,3.73-1.36,7.21-2.42,10.37-1.46,4.33-3.12,8.65-4.95,12.84-.69,1.57-2.29,2.63-4.01,2.63h0Z"/>
  <path class="cls-1" d="m240.28,367.2c-2.32,0-4.5-.83-6.3-2.41-1.07-.94-1.92-2.01-2.53-3.18-1.84-3.55-2.67-7.5-2.45-11.74,0-.16.02-.31.05-.47.02-.11.08-.54.1-1.64.07-3.93,2.25-10.18,7.79-10.18.96,0,1.93.21,2.87.63,3.93,1.75,5.19,6.12,5.94,8.73l.05.17c.39,1.3.13,2.77-.71,3.89,0,0,0,0,0,.01,0,.07,0,.15,0,.22.14-.01.28-.02.43-.02.35,0,.7.04,1.04.13.6.15,1.15.4,1.64.75,1.36.93,2.1,2.6,1.84,4.32l-.08.53c-.38,2.65-1.1,7.58-5.89,9.52-1.22.5-2.49.75-3.76.75h0Z"/>
  <path class="cls-1" d="m258.81,364.49c-4.14,0-7.18-3.6-8.35-9.87-.46-2.48-.68-4.97-.65-7.39,0-.26.03-.52.08-.77.05-.26.09-.51.14-.76.24-1.38.54-3.1,1.72-5.01.52-.84,1.39-2.02,2.9-2.58.68-.25,1.37-.38,2.07-.38,5.35,0,6.82,6.41,7.38,8.82l.06.28c.25,1.06.14,2.15-.31,3.09,1.52.61,2.61,2.05,2.71,3.75.08,1.35-.03,2.73-.33,4.09-.82,3.7-3.23,6.18-6.44,6.65-.32.05-.65.07-.97.07h0Z"/>
  <path class="cls-1" d="m290.68,368.09c-1.28,0-2.55-.59-3.37-1.58-.82-.99-1.17-2.34-.94-3.6.12-.62.22-1.3.11-1.66-.03-.07-.19-.39-.3-.61-.16-.31-.31-.61-.44-.91-.68-1.5-.51-3.27.43-4.62,1.03-1.46,2.19-2.58,3.2-3.56.21-.21.43-.41.65-.63.65-1.73,2.32-2.89,4.17-2.89.86,0,1.76.28,2.48.75,2.07,1.33,3.51,3.36,3.99,5.68.46,2.22-.02,4.54-1.36,6.53-.6.89-1.25,1.68-1.83,2.38-.24.3-.49.59-.72.89-.65.83-1.32,1.48-2.04,2.02-.59.43-1.2.84-1.81,1.2-.66.39-1.45.61-2.22.61Z"/>
  <path class="cls-1" d="m184.67,380.35c-1.54,0-2.98-.83-3.76-2.16-.79-1.36-.79-3.02.01-4.43.65-1.16.64-1.92-.07-2.98-1.03-1.51-1.01-3.5.05-5.02.11-.16.23-.32.34-.48.15-.21.38-.53.45-.65.21-.48.42-.96-.58-2.39-1.39-1.99-.95-4.67.98-6.1l.6-.45c1.44-1.09,3.08-2.32,5.05-3.04.89-.32,1.81-.48,2.74-.48,3.37,0,6.63,2.2,8.72,5.88,2.69,4.73,2.53,10.7-.41,15.58-.5.82-1.05,1.63-1.64,2.4-.82,1.06-2.11,1.71-3.46,1.71-.85,0-1.71-.26-2.42-.74,0,0-.02-.01-.03-.02-.33.26-.66.52-1.01.76-1.1.78-2.28,1.49-3.49,2.11-.65.33-1.35.51-2.07.51h0Z"/>
  <path class="cls-1" d="m294.33,372.99c-1.5,0-2.94-.8-3.72-2.07-.81-1.31-.86-2.94-.14-4.37.07-.14.21-.4-.41-1.02-.02-.02-.04-.04-.06-.07-.83-.87-1.29-2.11-1.22-3.31.07-1.21.65-2.36,1.6-3.14,1.2-1.02,2.34-1.9,3.35-2.59,1.3-.89,2.78-1.37,4.27-1.37,1.35,0,2.67.39,3.81,1.14,2.77,1.82,4.16,5.09,3.45,8.14-.96,4.15-5.11,6.5-9.04,8.25-.6.27-1.24.41-1.88.41Z"/>
  <path class="cls-1" d="m177.57,383.57c-1.6,0-3.13-.9-3.88-2.31-.5.19-1.04.3-1.57.3-1.36,0-2.67-.64-3.5-1.72-.68-.85-.89-1.08-.92-1.12-.9-.91-2.72-2.22-3.54-2.57-1.63-.04-3.15-1.02-3.84-2.51-.71-1.52-.45-3.37.63-4.66.46-.55.92-1.08,1.4-1.6.89-.98,2.17-1.54,3.51-1.54.42,0,.85.05,1.27.16.38.1.75.21,1.12.34.13-.15.25-.29.38-.44-.54-.78-.82-1.72-.77-2.71.11-1.9,1.45-3.5,3.33-3.99.84-.21,2.51-.56,4.5-.56,4.77,0,7.04,2.01,8.1,3.7.61.97,1.15,2.33,1.03,4.05,1.85,1.68,2.94,3.68,3.14,5.82.15,1.6-.11,4.72-3.51,7.58-.18.15-.37.34-.57.54-1.2,1.19-3.21,3.17-6.21,3.24-.03,0-.07,0-.1,0Z"/>
  <path class="cls-1" d="m256.27,396.76c-1.13,0-2.24-.46-3.06-1.25-1.01.36-2.14.65-3.43.83-.19.03-.44.04-.63.04-.79,0-1.57-.2-2.25-.59-1.06-.6-1.86-1.69-2.13-2.88-.02-.09-.04-.19-.05-.28-.09.32-.22.63-.39.93-.78,1.38-2.23,2.2-3.76,2.2-.35,0-.7-.04-1.05-.13-2.32-.58-8.47-2.13-10.49-8.55-1.01-3.19-1.25-6.91-.74-11.08-.15-.12-.28-.25-.41-.39-.84-.91-1.24-2.11-1.13-3.38.21-2.77,1.26-5.17,3.15-7.1,2.05-2.11,5.14-3.42,8.05-3.42,1.42,0,2.75.3,3.97.88,2.34,1.12,3.88,3.03,4.35,5.38.06.28.15.75.14,1.32,2.02.56,4.03.82,6.13.82,0,0,.54,0,.63,0-.39-.68-.73-1.69-.52-2.99.54-3.53,3.25-7.11,7.38-7.11.3,0,.61.02.92.06,3.79.51,6.26,3.86,6.3,8.53.02,2.37-.42,4.61-1.32,6.65-1.21,2.77-3.06,4.33-4.83,5.35-.64,1.64-1.4,3.21-2.28,4.72.15.33.29.68.42,1.04.62,1.72,1.08,3.52,1.37,5.34.2,1.24-.17,2.56-.97,3.52-.84.99-2.06,1.56-3.36,1.56Zm-12.65-8.38c.66.66,1.07,1.5,1.21,2.38,0,0,0-.01,0-.02-.12-.94-.26-1.78-.42-2.53-.26.08-.53.14-.8.18Z"/>
  <path class="cls-1" d="m246.3,396.55c-1.19,0-2.4-.07-3.59-.21-1.33-.16-2.55-.44-3.64-.85-.57-.21-1.09-.55-1.53-.98-.14-.14-.29-.26-.46-.36-.82-.49-1.5-1.2-2.29-2.38-.37-.57-.71-1.16-.99-1.78-1.76-3.79-2.56-7.84-2.38-12.07.04-.83.08-1.63.13-2.39.16-2.38,2.04-4.18,4.36-4.18,1.38,0,3.16.71,4.05,2.71.08.18.17.37.28.56.49-.18,1.02-.28,1.56-.28.22,0,.46.02.68.05l.45.07c1.49.21,3.97.56,5.84,2.74,2.53,2.95,4.08,7.25,4.73,13.16.05.49.06.94.02,1.35.19,2.31-1.48,4.37-3.79,4.65,0,0-.02,0-.03,0-1.12.13-2.27.19-3.39.19h0Z"/>
  <path class="cls-1" d="m247.73,384.06c-2.02,0-4.23-.24-6.75-.73-2.98-.59-6.74-2.61-7.81-8.91-.23-1.25.12-2.58.95-3.58.82-.98,2.07-1.56,3.34-1.56.7,0,1.38.16,2.02.49.46.24.81.5,1.04.69.89.49,1.45.72,1.78.82,2.54.82,5.24,1.24,8.02,1.24.79,0,1.61-.03,2.42-.1.12-.01.25-.02.37-.02,1.61,0,3.12.9,3.86,2.33s.62,3.19-.29,4.51l-.19.3c-.95,1.46-2.39,3.67-4.97,4.18-1.17.23-2.45.34-3.82.34Z"/>
  <path class="cls-1" d="m163.35,388.45c-1.58,0-3.05-.87-3.8-2.26-.37-.69-1.09-2.51.27-4.59,1.46-2.24,3.1-4.41,4.86-6.45.89-1.03,2.18-1.63,3.52-1.63.98,0,1.93.31,2.74.89.84.6,1.68,1.22,2.5,1.85.05.04,3.93,3.06,3.11,6.76-.71,3.2-4.17,4.16-6.16,4.46-.21.03-.43.05-.64.05-.8,0-1.59-.23-2.27-.64-.2-.04-.39-.08-.58-.14-.15.14-.3.29-.45.43-.91.85-1.95,1.28-3.1,1.28Z"/>
  <path class="cls-1" d="m243.15,403.66c-3.18,0-6.11-.77-8.49-2.23-2.87-1.76-4.95-4.32-6.18-7.6-.27-.73-.37-1.48-.31-2.24.2-2.22,2.08-4,4.32-4,1.65,0,3.2.99,3.92,2.48.27.54,1.44,1.58,2.75,2.24,2.07,1.04,4.15,1.54,6.36,1.54,1,0,2.05-.11,3.1-.32.28-.06.64-.1.93-.1,1.87,0,3.52,1.18,4.12,2.94.61,1.79,0,3.71-1.52,4.89-.42.32-.88.6-1.37.82-2.31,1.04-4.95,1.58-7.63,1.58h0Z"/>
  <path class="cls-1" d="m202.66,445.5c-1.17,0-2.28-.45-3.12-1.25-1.38-1.31-2.97-2.11-4.87-2.44-1.76-.29-3.18-1.61-3.58-3.36s.32-3.55,1.83-4.6c3.08-2.09,6.06-4.71,9.13-8.01,1.21-1.3,2.37-2.72,3.45-4.21,2.4-3.31,4.4-6.85,5.94-10.5.69-1.64,2.29-2.7,4.06-2.7.84,0,1.73.27,2.43.73.05.03.09.06.14.09,1.45,1.03,2.2,2.93,1.77,4.66-.01.1-.02.22-.03.36,0,.13-.01.26-.02.39.89-.62,1.79-.77,2.47-.77,1.45,0,2.82.74,3.62,1.95.48.74,1.17,2.28.28,4.31l-.29.66c-.48,1.11-.97,2.26-1.58,3.37-3.43,6.25-8.23,11.15-11.66,14.15-1.3,1.14-3.45,2.96-6.39,5.42-.9,1.14-2.2,1.77-3.6,1.77Z"/>
  <path class="cls-1" d="m211.79,454.01c-2,0-3.76-1.35-4.27-3.29-.19-.7-.5-1.43-.87-2.31-.66-1.56-.39-3.33.7-4.63.02-.02.04-.05.06-.07.36-.41.77-.77,1.23-1.08,2.48-1.67,4.89-3.48,7.17-5.4,6.05-5.1,10.65-11.37,14.47-19.71.72-1.59,2.32-2.61,4.06-2.61.09,0,.2,0,.3.01h0c.41.03.81.04,1.22.04.64,0,1.29-.03,1.92-.1.15-.02.3-.02.45-.02,1.44,0,2.83.74,3.63,1.94.8,1.2.95,2.77.4,4.1l-.38.9c-.91,2.13-1.78,4.14-3.11,6.53-3.71,6.68-8.8,12.83-14.71,17.79-3.12,2.62-6.46,5.06-9.91,7.24-.69.44-1.54.68-2.36.68h0Z"/>
  <path class="cls-1" d="m206.68,459.43c-.76,0-1.55-.21-2.21-.59-1.44-.85-2.97-1.54-4.56-2.07-1.49-.5-2.61-1.63-3.1-3.1-1.5-4.51-6.28-7.66-11.61-7.66-.64,0-1.28.05-1.9.14-.05,0-.1.02-.15.02-.17.02-.34.03-.51.03-1.91,0-3.61-1.27-4.16-3.1-.65-2.16.49-4.48,2.58-5.29,2.37-.94,4.84-1.41,7.35-1.41,5.36,0,10.69,2.12,15.41,6.14,3.53,3.01,5.93,6.83,7.11,11.36.34,1.29.05,2.73-.76,3.79-.83,1.08-2.14,1.73-3.5,1.73Z"/>
  <path class="cls-1" d="m199.67,464.5c-1.76,0-3.86-1.18-4.31-3.76-.49-2.79-1.31-5.7-2.45-8.66-.5-1.29-.35-2.76.41-3.93.8-1.22,2.16-1.96,3.62-1.96,1.01,0,1.98.36,2.75.99h0c4.1,3.37,4.9,9.32,4.33,13.4-.39,2.7-2.52,3.92-4.34,3.92h0Z"/>
  <path class="cls-1" d="m177.46,469.59c-2.61,0-5-.95-6.73-2.67-4.14-4.12-3.51-11.25,1.44-16.23,2.66-2.68,6.12-4.22,9.49-4.22,2.61,0,5,.95,6.73,2.67,4.14,4.12,3.51,11.25-1.44,16.23-2.66,2.68-6.12,4.22-9.49,4.22h0Z"/>
  <path class="cls-1" d="m165.79,411.42c-1.87,0-3.63-.64-5.27-1.91-.71.1-1.4.16-2.07.16-1.44,0-2.81-.24-4.08-.71-2.02-.75-3.74-1.98-5.13-3.66-2.71-.45-5.04-1.66-6.81-3.58-1.69-1.82-2.64-4.13-2.76-6.67-.1-2.07.34-4.25,1.31-6.48,2.02-4.69,6.11-9.04,11.45-12.28-.15-1.45-.01-3.08.85-4.58,1-1.74,2.75-2.88,4.93-3.21.47-.07.96-.11,1.48-.11,1.08,0,2.25.16,3.59.47,3.02.51,11.79,3.13,15.9,7.82,1.46,1.67,2.49,4,2.69,6.09.2,2.09-.45,4.11-1.88,5.86-.26.32-.55.63-.86.93,1.09,1.75,1.97,3.61,2.3,5.49.5,2.86-.4,4.86-1.25,6.03-1.08,1.49-2.7,2.56-4.83,3.19-2.03,3.47-4.09,5.56-6.41,6.53-1.02.42-2.07.64-3.13.64Z"/>
  <path class="cls-1" d="m164.45,408.04c-.17,0-.34,0-.52-.02-1.04-.09-2.42-.48-3.79-1.71-.84.17-1.65.26-2.43.26-1.13,0-2.19-.18-3.17-.55-1.55-.58-2.84-1.65-3.87-3.2-2.32-.16-4.14-.94-5.42-2.34-1.22-1.31-1.91-3.11-1.99-5.18-.07-1.81.33-3.73,1.19-5.7,1.82-4.16,5.44-7.95,10.15-10.78-.16-1.62.15-3.04.94-4.24.91-1.39,2.38-2.3,4.14-2.57.4-.06.81-.09,1.23-.09,1.01,0,2.12.16,3.4.5.05.01.1.03.15.04.85.23,1.69.51,2.63.86.79.3,1.68.66,2.62,1.07,3.05,1.34,5.19,2.71,6.56,4.2,1.41,1.53,1.84,3.08,1.94,4.11.13,1.28-.06,3.19-1.64,5.13-.25.31-.52.61-.83.89,1.02,1.56,1.83,3.19,2.13,4.86.45,2.49-.36,4.27-1.13,5.32-.95,1.31-2.37,2.25-4.22,2.81-.61,1.05-1.2,1.94-1.81,2.7-1.21,1.51-2.47,2.53-3.85,3.11-.79.33-1.6.5-2.42.5Z"/>
  <path class="cls-1" d="m162.54,396.29c-1.49,0-2.68-.65-3.41-1.19-2.32-1.72-3.07-4.56-1.77-6.75l3.52-5.98c.84-1.42,2.34-2.26,4.02-2.26,1.2,0,2.39.42,3.46,1.23,2.31,1.74,3.04,4.59,1.73,6.79l-3.55,5.94c-.84,1.4-2.33,2.23-4,2.23Z"/>
  <path class="cls-1" d="m158.65,394.56c-1.48,0-2.67-.65-3.41-1.19-2.35-1.73-3.09-4.49-1.81-6.72l3.45-6.03c.83-1.45,2.34-2.31,4.04-2.31,1.51,0,2.71.67,3.45,1.22,2.34,1.76,3.07,4.53,1.77,6.75l-3.48,5.99c-.84,1.43-2.34,2.28-4.02,2.28h0Z"/>
  <path class="cls-1" d="m168.26,409.18c-.05-.02-.11-.04-.16-.04.05.02.11.03.16.04Z"/>
  <path class="cls-1" d="m164.31,408.04c-.12,0-.25,0-.37-.02-1.04-.09-2.42-.48-3.79-1.71-.84.17-1.65.26-2.43.26-1.13,0-2.19-.18-3.17-.55-1.55-.58-2.84-1.65-3.87-3.2-2.32-.16-4.14-.94-5.42-2.34-1.22-1.31-1.91-3.11-1.99-5.18-.07-1.81.33-3.73,1.19-5.7,1.82-4.16,5.44-7.95,10.15-10.78-.16-1.62.15-3.04.94-4.24.91-1.39,2.38-2.3,4.14-2.57.4-.06.81-.09,1.23-.09,1.01,0,2.12.16,3.4.5.05.01.1.03.15.04.85.23,1.69.51,2.63.86,1.56.59,2.64,2.02,2.78,3.68.1,1.17-.28,2.31-1.03,3.18.37,1.14.25,2.39-.35,3.45-.71,1.27-2.02,2.09-3.47,2.18-1.88.13-3.11.5-4.25,1.3-1.23.86-2.4,2.16-3.49,3.86-.24.38-.41.68-.52.9,1.26.72,2.11,2.06,2.17,3.59,0,.03.08.13.13.15.05.02.15.02.22.02.81,0,2.17-.56,2.99-.9.53-.22,1.09-.33,1.65-.33.88,0,1.75.27,2.48.79,1.21.85,1.9,2.26,1.83,3.73-.06,1.22-.12,2.48.14,3.32.5,1.38.26,2.92-.64,4.09-.82,1.07-2.09,1.68-3.42,1.68Z"/>
  <path class="cls-1" d="m169.03,380c-.76,0-1.52-.2-2.22-.62l-.12-.07c-2.04-1.13-2.81-3.68-1.74-5.75.76-1.48,2.27-2.34,3.84-2.34.62,0,1.25.13,1.85.42.29.14.56.3.84.49,1.92,1.32,2.45,3.93,1.18,5.89-.82,1.28-2.21,1.98-3.63,1.98Z"/>
  <path class="cls-1" d="m272.56,387.61c-.57,0-.88-.02-.88-.02-2.32-.13-4.15-2.06-4.1-4.39l.38-21.56c.02-1.19.53-2.32,1.41-3.12.8-.72,1.83-1.12,2.9-1.12.11,0,.23,0,.34.01.55.04,1.08.07,1.56.07h0c2.15,0,3.11-.44,3.34-.63-.18-1.53.46-3.05,1.71-3.98.76-.56,1.66-.85,2.57-.85.68,0,1.36.16,1.99.48l19.24,9.98c2.01,1.04,2.87,3.45,1.98,5.53-7.98,18.65-28.43,19.6-32.45,19.6Z"/>
  <path class="cls-1" d="m303.83,372.66c-1.08,0-2.13-.2-3.14-.58-.67-.26-2.58-1.52-4.19-2.62-1.35.64-3,1.11-4.87,1.11-2.16,0-4.29-.61-6.36-1.8-.07-.04-.14-.09-.21-.13-2.76-1.67-4.75-3.47-5.98-5.37-2.09-3.25-2.42-6.22-2.5-8.18-.13-3.43,1.38-6.33,4.18-8.21.03-.04.05-.08.08-.12,3.09-4.58,6.17-7.88,9.14-9.81,2.15-1.4,4.29-2.1,6.37-2.1h.17c2.86.05,5.42,1.33,7.4,3.68.51.61.98,1.3,1.38,2.06,1.81.49,3.45,1.39,4.9,2.7,1.27,1.15,2.31,2.56,3.13,4.28,1.25.47,2.37,1.04,3.32,1.72,2.87,2.03,3.77,4.42,4.02,6.08.31,2-.14,4.09-1.32,6.21-1.32,2.36-3.55,4.77-6.8,7.35-2.72,2.16-5.18,3.36-7.51,3.67-.4.05-.81.08-1.2.08Z"/>
  <path class="cls-1" d="m303.27,369.06c-.8,0-1.56-.13-2.25-.38-.84-.31-1.58-.82-2.21-1.52-.02-.02-.17-.2-.23-.27-.05-.06-.11-.13-.16-.19-.34-.46-.64-.96-.9-1.51-.21.01-.42.02-.63.02-.33,0-.64-.02-.95-.05-.03,0-.15-.02-.18-.02-.64-.08-1.26-.22-1.84-.43-1.14-.41-2.15-1.1-2.94-2.01-.04-.04-.08-.09-.12-.14-.82-1-1.37-2.17-1.62-3.44-3.4-1.12-4.95-5.02-5.56-6.57,0,0-.15-.38-.15-.38-.53-1.38-.31-2.93.57-4.11.6-.81,1.13-1.58,1.62-2.28,1.69-2.43,3.15-4.53,5.57-5.9,1.81-1.03,3.59-1.55,5.28-1.55.11,0,.22,0,.33,0,1.78.07,3.43.81,4.63,2.08.09.09.21.2.34.32.6.56,1.45,1.35,2.16,2.37,1.86.18,3.45.8,4.73,1.85,1.16.95,2.12,2.22,2.89,3.86,1.42.38,2.58.85,3.5,1.45,1.57,1.01,2.62,2.54,2.97,4.29.25,1.26.24,3.26-1.19,5.61-1.2,1.98-3.24,3.96-6.23,6.05-2.44,1.7-4.61,2.63-6.65,2.82-.29.03-.55.04-.8.04Z"/>
  <path class="cls-1" d="m291.12,368.79c-1.31,0-2.64-.27-3.95-.8-.02,0-.31-.13-.31-.13-2.12-.94-4.13-2.56-5.69-4.59-1.77-2.3-2.79-4.92-2.88-7.37-.13-3.44,1.55-6.42,4.58-8.18.67-.39,1.41-.58,2.17-.58.47,0,.94.08,1.4.23,1.18.4,2.13,1.3,2.6,2.46.66,1.62,1.43,2.72,1.97,2.79,1.15.12,2.2.69,2.92,1.58s1.06,2.04.93,3.19c-.06.51.03.92.25,1.22,0,.01.02.03.03.04.24.3.53.52.89.67,1.36.59,2.33,1.85,2.55,3.32.22,1.47-.33,2.95-1.46,3.92-1.71,1.46-3.78,2.23-5.99,2.23Z"/>
  <path class="cls-1" d="m276.27,382.12c-1.98,0-3.71-1.35-4.19-3.27-.09-.35-.87-3.53-1.02-5.97-.1-1.71.81-3.32,2.34-4.1.62-.32,1.3-.47,1.97-.47.14,0,.28,0,.42.02.19-.65.48-1.26.85-1.83,1.24-1.89,3.28-2.97,5.6-2.97.18,0,.35,0,.53.02.66-.39,1.42-.61,2.21-.61.32,0,.64.04.96.11,2.35.54,6.8,1.39,8.78,1.39,3.89,0,5.44,1.77,6.06,3.26.77,1.85.29,4.02-1.21,5.52-.61.6-1.38,1.02-2.22,1.18l-.7.14c-2.67,2.13-10.38,7.51-20.34,7.59h-.04Z"/>
  <path class="cls-1" d="m277.87,374.62c-3,0-4.1-2.46-5.27-5.06-1.51-3.37-1.58-4.69-1.6-5.18-.13-2.56,1.59-4.67,4.01-4.95.51-.09,2.3-.62,3.87-1.15.44-.15.91-.22,1.37-.22.61,0,1.22.13,1.79.39l2.27,1.03c1.79.81,2.81,2.74,2.47,4.67-.34,1.94-1.95,3.4-3.91,3.56-.11,0-.23.02-.35.04-.07.59-.12,1.23-.15,1.6-.14,1.65-.31,3.7-2.55,4.82-.6.3-1.27.46-1.94.46h0Z"/>
  <path class="cls-1" d="m307.46,363.37c-.42,0-.83-.04-1.24-.12-2.44-.49-4.3-2.5-4.52-4.88-.04-.44-.02-.85.02-1.2l-.04-.04c-.78-.78-1.95-1.96-2.49-3.79-.14-.48-.21-.9-.26-1.24-.84-1.32-1-2.92-.38-4.37.75-1.77,2.56-2.92,4.59-2.92,1.53,0,3.05.62,4.28,1.74,1.09.99,1.63,2.13,1.99,2.89.02.04.03.08.05.11.19.05.43.11.63.15,1.09.25,2.57.6,3.97,1.61.9.65,1.57,1.46,1.97,2.41,1,2.35.23,4.99-2.01,6.88-1.16.98-2.47,1.74-3.89,2.26-.6.22-1.54.52-2.68.52Z"/>
  <path class="cls-1" d="m215.24,450.77c-.84,0-1.68-.24-2.4-.73-1.45-.97-2.17-2.72-1.83-4.43l.22-1.08c.21-1.04.79-1.97,1.64-2.6.11-.08,11.52-8.76,16.61-18.45.53-1.02,1.45-1.78,2.55-2.12l1.41-.43c.42-.13.84-.19,1.27-.19,1.15,0,2.27.46,3.09,1.3,1.13,1.16,1.52,2.85,1,4.38-.68,2.02-7.08,14.26-21.16,23.63-.72.48-1.56.72-2.39.72Z"/>
  <path class="cls-1" d="m189.44,465.9c-1.42,0-2.74-.63-3.62-1.74-.88-1.1-1.21-2.52-.9-3.9.86-3.86.93-7.41.2-9.72-.45-1.41-.2-2.95.66-4.13.87-1.18,2.26-1.89,3.73-1.89,1.27,0,2.5.53,3.38,1.45,2.45,2.54,5.78,8.21.58,17.55-.82,1.47-2.36,2.38-4.04,2.38Z"/>
  <path class="cls-1" d="m167.46,403.36c-.74,0-2.15-.2-3.34-1.54-1.71-1.83-2.8-5.19-.6-8.99.6-1.04,1.45-1.63,2.17-2.01l.24-.8c.47-1.94,2.22-3.38,4.3-3.38,1.58,0,3.05.85,3.84,2.23,2.13,3.78,2.37,6.83.73,9.08-.98,1.34-2.14,2.01-3.08,2.36-.11.2-.24.43-.38.71-.75,1.41-2.27,2.33-3.86,2.33Z"/>
  <path class="cls-1" d="m226.8,340.97c-1.89,0-3.56-1.23-4.12-3.04-.37-1.19-2.06-7.34.91-11.69,1.05-1.54,3.08-3.43,6.76-3.69.35-.02.68-.04,1.01-.04,7.22,0,11.33,5.52,12.62,8.77.7,1.78.15,3.82-1.36,4.99-.78.61-1.72.91-2.65.91-.88,0-1.77-.27-2.52-.81-.55-.38-2.51-1.51-4.08-1.51-.51,0-1.56,0-2.41,2.97-.52,1.84-2.19,3.11-4.1,3.13h-.05Z"/>
  <path class="cls-1" d="m259.82,338.04c-1.58,0-3.08-.87-3.84-2.34-.07-.13-.18-.28-.28-.41-.15.15-.3.32-.39.48-.75,1.42-2.16,2.22-3.71,2.22-.32,0-.65-.03-.97-.11-1.9-.41-3.23-2.13-3.34-4.07-.05-.8-.15-4.94,2.45-7.7,1.4-1.49,3.26-2.28,5.38-2.29,5.25,0,8.29,4.65,8.98,9.26.31,2.1-.94,4.12-2.97,4.76-.43.14-.87.2-1.3.2Z"/>
  <g>
    <g>
      <path class="cls-3" d="m174.35,439.02c.57-.7,1.25-1.41,1.87-2.13.14-.16.29-.27.45-.31,3.77-.92,7.55-1.41,11.41-1.77.83-.08,1.56-.79,2.24-1.32,3.22-2.51,6.14-5.2,8.76-8.07,2.9-3.18,5.24-6.11,7.02-8.81,1.43-2.17,2.84-4.34,4.23-6.52.03-.04.02-.11-.02-.14-.32-.26-.61-.55-.9-.87-5.07-5.7-10.23-11.34-15.68-16.68-.16-.16-.25-.37-.26-.64-.15-2.46-.3-4.92-.43-7.38-.02-.39-.23-6.36-.3-6.84,0-.05-5.22.05-9.36,2.24-3.74,1.97-7.08,4.19-7.17,5.59,0,.07-1.02-.51-1.07-.47-2.25,1.75-5.97,2.06-8.34.34-.06-.04-.11-.04-.16.01l-3.15,3.46c-.11.12-.23.13-.37.03-3.74-2.92-5.75-8-4.35-12.69.65-2.18,2.18-3.28,3.33-4.82,1.79-2.39,7.22-9.83,13.28-13.94,5.33-3.61,12.43-4.04,12.43-4.04,0,0-.32-6.4-.32-6.46,0-3.81-.24-7.61-.73-11.39,0-.03,0-.06.03-.08,3.19-3.12,6.61-5.99,10.25-8.6,6.16-4.42,13.16-7.53,20.6-9.74,7.27-2.16,14.54-2.96,22.12-2.91,5.22.03,10.35.7,15.39,2.02,3.38.88,6.73,1.89,9.98,3.2.48.19.56.78.69,1.22.79,2.6,1.52,5.22,2.19,7.86,2.09,8.31,4.9,18.02,5.45,26.57.5,7.69.69,13.55.3,21.55-.17,3.48-2.31,17.65-3.39,20.93-2.31,6.99-6.69,12.41-13.14,16.23-2.85,1.69-5.87,2.99-9.07,3.89-.99.28-1.98.55-2.98.81-.49.13-.53.93-.67,1.28-.59,1.5-1.16,3.06-1.82,4.46-2.71,5.79-6.16,11.09-10.36,15.93-1.53,1.76-3.28,3.47-5.25,5.13-4.1,3.45-8.56,6.46-13.38,9.05-.19.1-.25.26-.19.46l1.83,6.11c.03.1.01.19-.04.28-3.65,5.23-7.65,10.24-11.47,15.35-.48.65-1.03,1.36-1.64,2.12-.88,1.11-1.72,2.26-2.65,3.32-.55.63-1.22,1.59-2,1.88-10.41,3.83-22.6,2.82-31.44-4.26-.03-.02-.03-.04-.01-.07l.03-.04s.02-.01.03,0c4.29,2.55,10.23,3.21,15.09,2.83,2.38-.18,4.75-.81,7.03-1.43.17-.05.17-.1,0-.16-1.81-.63-3.41-1.49-5.11-2.38-.12-.07-.33-.09-.46-.19-.08-.05-.07-.08.03-.07,3.85.39,7.84-.7,11.5-1.82.07-.02.07-.03,0-.02-1.71.12-3.42.23-5.12.33-.39.02-.8.02-1.21,0-.11,0-.12-.04-.02-.09,1.23-.64,2.28-1.46,3.15-2.46,1.81-2.1,3.65-4.79,6.03-6.69,2.1-1.67,4.48-2.44,7.15-2.55.06,0,.11-.04.14-.09.51-.98,1.15-1.85,1.93-2.63.05-.05.04-.08-.03-.08-2.68.11-5.22.69-7.65,1.75-2.18.95-4.54,2.59-6.63,4.06-1.49,1.05-2.7,1.73-3.62,2.04-1.09.37-2.13.74-3.1,1.11-.34.13-.37.07-.11-.18,2.41-2.27,4.45-5.08,6.15-7.9,2-3.33,3.18-7.05,2.36-10.89-.54-2.54-2.16-4.8-4.47-6.01-4.39-2.28-10.51-.51-14.31,2.29-4.62,3.4-8.76,9.72-7.41,15.72,1.01,4.49,4.75,7.68,9.38,7.82,2.87.09,5.1-.84,7.43-2.14.12-.07.14-.05.04.05-2.92,2.99-7.52,3.95-11.55,3.24-4.74-.83-8.78-3.73-11.53-7.61-.16-.23-.25-.46-.27-.69-.29-4.76,1.12-8.77,3.69-12.69,2.92-4.46,6.38-8.67,9.76-12.8Z"/>
      <path class="cls-1" d="m216.08,324.74l.02.06c.02.05.08.08.14.06.56-.19,1.45-.41,2.67-.68,3.05-.68,5.75-1.16,8.09-1.46,2.3-.3,5.2-.53,8.7-.7,7.4-.36,14.65.46,21.77,2.45.5.14,1.02.25,1.16.68,0,0,.05.17.15.5,1.68,5.62,20.58,65.27-8.38,83.97.22-.07,15.41-3.26,18.42-25.86,3-22.47-7.93-58.88-8.23-59.88,0-.01,0-.02,0-.02-.02-.08-.07-.29-.37-.4-6.19-2.22-12.64-2.87-19.22-2.98-4.21-.07-8.42.09-12.63.48-1.44.47-3.02.77-4.38,1.15-.72.2-1.45.39-2.18.56-1.18.27-3.07.92-5.66,1.93-.05.02-.08.08-.06.13Z"/>
      <path class="cls-4" d="m191.27,337.91s.04.02.06,0c2.73-2.3,5.67-4.38,8.82-6.24,5.17-3.05,10.03-4.74,15.44-6.28.08-.02.16.02.19.1,3.86,9.69,6.48,19.48,8.41,29.92.16.85.36,2.82.61,5.9.32,3.95.32,7.78,0,11.5-.14,1.55-.52,3.57-.73,4.81-1.17,6.88-3.22,13.73-6.25,20.02-1.11,2.3-2.26,4.57-3.47,6.81-.02.03,0,.08.03.1,4.02,2.45,7.93,4.45,12.67,5.87,6.65,1.99,13.28,2.09,19.87.3,9.98-2.71,15.05-9.94,17.74-19.48,1.2-4.27,2.85-11.76,2.08-22.45-1.56-21.68-5.69-35.29-5.69-35.29,0,0-1.56-5.58-2.43-8.36-.13-.43-.66-.54-1.16-.68-7.12-1.99-14.37-2.81-21.77-2.45-3.5.17-6.4.4-8.7.7-2.34.3-5.04.79-8.09,1.46-1.22.27-2.11.5-2.67.68-.05.02-.12-.01-.14-.06l-.02-.06c-.02-.05,0-.11.06-.13,2.59-1.02,4.47-1.66,5.66-1.93.73-.17,1.46-.36,2.18-.56,1.35-.38,2.94-.68,4.38-1.15-9.12.61-18.26,3.18-26.1,7.74-3.92,2.28-7.4,5.21-10.45,8.57-.22.24-.39.43-.54.58-.02.02-.02.04,0,.06Zm40.79,4.89c.03-1.16.31-2.2.86-3.11.25-.42.56-.82.92-1.19,0,0,0,0,0,0,.11-.15,2.55-3.37,7.36.57,0,.01,0,.02.02.05.93,1.1,1.65,2.36,2.15,3.79,1.34,3.8,2.21,7.7,2.23,11.7,0,.16-.04.46-.12.92.07.02.13.04.18.08.06.04.08.09.07.16-.36,2.41-.62,5.6-3.32,6.69-1.97.8-3.99.49-5.59-.91-.67-.58-1.18-1.22-1.54-1.91-1.49-2.88-2.15-6.07-1.98-9.55-.03-.04-.06-.09-.09-.15-.84-2.27-1.23-4.64-1.17-7.12Z"/>
      <path class="cls-4" d="m254.66,339.22c.04-.05.05-.09.03-.1-.02.06-.03.1-.03.1Z"/>
      <path class="cls-3" d="m258.08,338.4c1.18.73,1.99,1.77,2.48,3.03.64,1.62,1.06,3.37,1.27,5.24.27,2.43.41,4.85.41,7.27-.26,1.04-.32,2.17-1.74,2.2-1.85.05-2.54-2.91-2.56-4.31,0-.05.04-.09.09-.09h.85c.07-.01.13-.05.16-.12.36-.87.35-1.75-.18-2.53-.14-.2-.09-.47.11-.61.22-.15.46-.24.72-.27.23-.02.32-.14.26-.37-.34-1.44-1.35-6.59-3.81-5.67-.2.08-.45.35-.74.81-.91,1.46-.98,2.73-1.28,4.31-.56-1.98-.69-3.95-.38-5.91.13-.82.17-1.43.72-2.32.63-1.01,2.47-1.37,3.62-.66Z"/>
      <path class="cls-3" d="m241.2,339.06s1.67,2.41,2.17,3.84c1.34,3.8,2.21,7.7,2.23,11.7,0,.16-.04.46-.12.92-.24,1.81-2.25,2.5-3.73,1.97-1.86-.68-2.75-3.59-2.85-5.36,0-.07.06-.13.13-.12.61.09,1.5.34,1.66-.59.06-.38.07-.75.02-1.13-.05-.42-.44-.65-.48-.94-.14-.89.57-1.03,1.24-.88.1.02.18-.07.15-.16-.59-2.06-1.44-5.19-3.6-6.15-3.25-1.45-4.54,3.61-4.58,5.69-.02,1-.07,1.74-.15,2.24-.03-.04-.06-.09-.09-.15-.84-2.27-1.23-4.64-1.17-7.12.04-1.7.47-3.69,1.34-4.54,1.97-1.94,5.38-1.72,7.81.81Z"/>
      <path class="cls-4" d="m213.62,342.98c-.96-3.47-2.15-6.63-3.51-9.99-.03-.07-.08-.09-.15-.06-4.63,2.23-9.06,4.61-13.2,7.67-.23.17-.36.36-.33.67.34,3.08.64,6.16.91,9.24,0,.07.03.12.09.17,8.05,6.4,9.01,19.48,2.14,27.05-.08.09-.12.2-.11.32.3,3.52.47,7.06.53,10.62,0,.26.13.42.31.58,2.45,2.13,4.83,4.34,7.15,6.62.42.41,1.25,1.14,1.8,1.78.03.03.08.02.1-.02,1.78-4.09,3.39-8.25,4.81-12.49.99-2.93,1.73-6.14,2.24-9.62,1.04-7.12,1.03-13.96-.04-20.5-.58-3.51-1.49-7.52-2.74-12.03h0Z"/>
      <path class="cls-1" d="m233.31,350.08c-.17,3.48.49,6.67,1.98,9.55.36.69.87,1.33,1.54,1.91,1.6,1.4,3.63,1.71,5.59.91,2.7-1.09,2.95-4.28,3.32-6.69.01-.07-.01-.12-.07-.16-.05-.04-.11-.06-.18-.08-.24,1.81-2.25,2.5-3.73,1.97-1.86-.68-2.75-3.59-2.85-5.36,0-.07.06-.13.13-.12.61.09,1.5.34,1.66-.59.06-.38.07-.75.02-1.13-.05-.42-.44-.65-.48-.94-.14-.89.57-1.03,1.24-.88.1.02.18-.07.15-.16-.59-2.06-1.44-5.19-3.6-6.15-3.25-1.45-4.54,3.61-4.58,5.69-.02,1-.07,1.74-.15,2.24h0Z"/>
      <path class="cls-1" d="m254.12,347.29c-.03,2.15.17,4.33.58,6.55.36,1.94,1.62,6.73,4.44,6.32,1.71-.25,2.52-1.8,2.85-3.31.22-.98.3-1.95.24-2.91-.26,1.04-.32,2.17-1.74,2.2-1.85.05-2.54-2.91-2.56-4.31,0-.05.04-.09.09-.09h.85c.07-.01.13-.05.16-.12.36-.87.35-1.75-.18-2.53-.14-.2-.09-.47.11-.61.22-.15.46-.24.72-.27.23-.02.32-.14.26-.37-.34-1.44-1.35-6.59-3.81-5.67-.2.08-.45.35-.74.81-.91,1.46-.98,2.73-1.28,4.31h0Z"/>
      <path class="cls-4" d="m293.35,361.61c-.4.5-.8.91-1.21,1.21-.46.34-.94.66-1.44.95-.05.03-.11-.01-.1-.07.23-1.24.37-2.45,0-3.68-.19-.65-.64-1.39-.95-2.06-.05-.12-.04-.26.04-.37.97-1.38,2.16-2.42,3.34-3.58.46-.46.8-.98,1.02-1.56.03-.08.12-.11.19-.06,2.18,1.4,3,3.92,1.46,6.21-.71,1.06-1.57,2.01-2.36,3.01Z"/>
      <path class="cls-4" d="m192.68,361.2c1.08.89,2.03,2.96,2.4,4.16.8,2.59-.07,5.73-1.42,7.98-.01.02,0,.04.01.05h0s.04.01.05,0c.49-.64.95-1.31,1.37-2,2.06-3.41,2.36-7.69.35-11.21-1.23-2.17-3.58-4.42-6.24-3.46-1.59.57-3.13,1.84-4.54,2.89-.06.04-.07.1-.03.16,1.48,2.11,2.05,4.19.99,6.63-.27.62-.77,1.24-1.19,1.84-.04.05-.04.11,0,.16,1.61,2.41,1.69,4.91.24,7.5-.08.15-.05.18.1.11,1.03-.53,2.02-1.12,2.95-1.78,2.93-2.07,4.75-4.81,5.47-8.22.29-1.39.19-3.4-.58-4.74-.07-.12-.05-.14.06-.05h0Z"/>
      <path class="cls-4" d="m294.46,368.64c-.18.08-.22.03-.13-.14,1.1-2.16.44-4.36-1.2-6.01-.05-.05-.05-.1,0-.15,1.13-.95,2.14-1.74,3.04-2.35.98-.67,2.21-.86,3.26-.17,1.15.76,1.93,2.19,1.62,3.56-.58,2.52-4.48,4.34-6.59,5.27Z"/>
      <path class="cls-4" d="m177.23,369.52c-.11-.03-.18-.11-.22-.22-.44-1.18-1.27-2-2.48-2.46-.62-.24-1.15.23-1.57.7-1.26,1.4-2.42,2.67-3.4,4.22-.04.07-.15.09-.22.03-.98-.76-2.07-1.3-3.28-1.61-.23-.06-.4-.03-.52.1-.44.48-.87.97-1.29,1.47-.05.06-.03.08.04.07,1.72-.18,5.28,2.65,6.49,3.88.19.19.6.68,1.24,1.49.04.05.11.05.15.02,1.04-.98,2.51-2.32,3.91-2.65,1.9-.44,2.88,1.23,2.45,2.68-.18.61-.52,1.25-1.03,1.93-.04.06-.02.08.06.08,1.68-.04,3-1.85,4.09-2.77,3.35-2.82,2.29-6.04-1.66-8.25-.12-.07-.16-.2-.1-.31.58-1.07.92-2.18.23-3.28-1.37-2.18-5.69-1.81-7.86-1.26-.13.03-.13.07-.01.12,2.61.99,5.59,2.84,5.09,5.96,0,.05-.06.08-.11.06h0Z"/>
      <path class="cls-3" d="m240.58,391.44c-.39-.39-.83-.72-1.29-1-.21-.13-.51-.48-.9-1.06-.25-.37-.47-.78-.67-1.21-1.47-3.17-2.13-6.52-1.98-10.06.03-.79.08-1.55.13-2.27.01-.21.07-.22.15-.02.64,1.45,1.66,2.88,2.25,3.64,1.28,1.65,2.97,3,4.52,4.43.37.34.48.27.33-.21l-1.49-4.78c-.04-.13.07-.25.2-.23,1.3.2,2.75.27,3.67,1.35,2.4,2.79,3.32,7.26,3.71,10.82.05.45-.01.81-.2,1.07-.03.05-.02.11.03.14.04.02.1.03.17.02,2.04-.28,3.57-.92,5.32-1.95.07-.04.12-.03.16.03l1.53,2.26c.04.06.14.02.12-.05-.25-1.56-.64-3.09-1.17-4.58-.31-.88-.82-1.75-1.26-2.61-.04-.08-.03-.17.02-.24,1.55-2.24,2.76-4.65,3.62-7.23.04-.13.13-.23.26-.28,1.94-.87,3.3-1.91,4.17-3.9.65-1.5.97-3.13.96-4.89-.01-1.68-.55-4.01-2.56-4.28-1.97-.26-3.21,1.78-3.46,3.44-.04.23.03.27.21.11.58-.51,1.12-1.17,1.9-1.38.24-.06.41.01.52.23,1,1.93.74,5.63-1.48,6.71-1.54.74-3.43.94-5.12.97-6.4.09-11.62-1.92-16.99-5.2-.05-.03-.07-.09-.04-.14.1-.22.25-.4.45-.57,1.22-.97,3.19-1.48,4.57-.57.43.28.72.59.88.93.28.63.36.61.23-.07-.2-1.01-.86-1.78-1.97-2.32-2.3-1.1-5.39-.06-7.07,1.66-1.16,1.19-1.8,2.67-1.93,4.45-.01.12.02.13.1.04.97-1.23,1.71-2.17,3.01-2.96.15-.09.19-.06.12.1-.52,1.18-.92,2.43-1.19,3.76-.82,3.95-1.14,8.43.07,12.26,1.11,3.54,4.1,4.82,7.43,5.66h0Z"/>
      <path class="cls-6" d="m240.58,391.44c.77.29,1.65.49,2.64.61,2,.24,4,.24,5.99.02-.07,0-.13,0-.17-.02-.05-.03-.07-.09-.03-.14.18-.26.25-.62.2-1.07-.39-3.56-1.31-8.03-3.71-10.82-.92-1.08-2.37-1.14-3.67-1.35-.13-.02-.24.11-.2.23l1.49,4.78c.15.48.04.55-.33.21-1.55-1.44-3.25-2.79-4.52-4.43-.59-.76-1.61-2.19-2.25-3.64-.09-.19-.14-.19-.15.02-.05.73-.09,1.48-.13,2.27-.15,3.54.51,6.89,1.98,10.06.2.43.43.84.67,1.21.39.58.69.94.9,1.06.47.28.9.61,1.29,1h0Z"/>
      <path class="cls-1" d="m240.99,375.39c-.81-.26-1.76-.7-2.85-1.32-.15-.09-.39-.34-.6-.45-.09-.05-.13-.02-.11.08.47,2.79,1.64,4.85,4.38,5.39,2.78.55,6.11.94,8.9.39.9-.18,1.8-1.74,2.44-2.7.03-.05.02-.07-.04-.07-4.25.35-8.29-.1-12.12-1.33h0Z"/>
      <path class="cls-4" d="m170.66,381.03c.01.06,0,.15-.06.27-.26.6-.56,1.2-.91,1.8-.03.05.01.11.07.1.53-.08,2.44-.5,2.58-1.12.14-.65-1.08-2.06-1.51-2.39-.79-.6-1.59-1.2-2.4-1.78-.18-.13-.34-.11-.49.06-1.64,1.89-3.14,3.88-4.51,5.97-.14.22-.12.24.07.06.91-.85,1.78-1.75,2.61-2.68.07-.08.2-.08.27,0,.37.4,1.72,1.69,2.29,1.2.59-.5,1.19-1.02,1.81-1.55.09-.07.14-.05.17.05h0Z"/>
      <path class="cls-2" d="m236.92,397.74c3.43,2.11,8.49,2,12.08.39.19-.08.36-.19.52-.31.1-.08.09-.1-.03-.08-4.31.88-8.4.35-12.26-1.59-1.69-.85-3.81-2.43-4.69-4.2-.04-.08-.06-.08-.07.01-.01.12,0,.23.04.33.9,2.38,2.37,4.19,4.4,5.45h0Z"/>
      <path class="cls-6" d="m211.7,427.03s-.04.03-.07,0h0s-.03-.04-.01-.07c2.41-3.83,3.69-8.47,3.88-12.89.02-.53.07-.93.15-1.21,0-.02,0-.04-.02-.06l-.05-.04c-.07-.05-.12-.03-.15.04-1.68,3.97-3.82,7.76-6.42,11.35-1.2,1.65-2.46,3.19-3.79,4.62-2.99,3.22-6.2,6.15-9.83,8.62-.11.08-.1.13.03.15,2.74.48,5.11,1.67,7.11,3.58.09.08.23.07.3-.02.19-.25.42-.47.67-.68,2.95-2.47,5.06-4.25,6.31-5.35,4.08-3.58,8.04-8.09,10.72-12.98.62-1.14,1.16-2.45,1.69-3.68.12-.28.08-.3-.11-.07-2.2,2.6-4.67,4.26-7.79,6.34-.91.6-1.78,1.39-2.6,2.35h0Z"/>
      <path class="cls-4" d="m210.63,446.73c.42.98.79,1.88,1.07,2.89.02.06.09.09.15.06,3.3-2.09,6.45-4.39,9.44-6.9,5.51-4.62,10.22-10.29,13.71-16.58,1.39-2.51,2.26-4.62,3.28-6.98.01-.03-.01-.07-.05-.07-1.29.13-2.57.16-3.86.07-.07,0-.12.02-.15.09-3.8,8.3-8.67,15.37-15.62,21.22-2.41,2.03-4.92,3.92-7.54,5.68-.15.1-.28.22-.4.35-.04.05-.05.11-.03.17h0Z"/>
      <path class="cls-4" d="m182.65,441.89c7.54-1.16,15.78,2.97,18.27,10.43.06.18.18.3.35.36,1.89.62,3.68,1.43,5.37,2.43.07.04.15-.02.13-.1-.96-3.67-2.87-6.73-5.74-9.17-5.18-4.42-11.84-6.59-18.39-4-.01,0-.02.02-.02.03,0,.01.02.02.03.02h0Z"/>
      <path class="cls-4" d="m199.73,459.98c.42-3.03-.15-7.29-2.8-9.47-.01-.01-.01,0,0,0,1.25,3.23,2.14,6.38,2.68,9.46.05.26.09.26.13,0h0Z"/>
      <path class="cls-6" d="m173.77,463.86c2.39,2.37,6.92,1.69,10.12-1.53,3.2-3.22,3.85-7.76,1.46-10.13-2.39-2.37-6.92-1.69-10.12,1.53-3.2,3.22-3.85,7.76-1.46,10.13h0Z"/>
    </g>
    <g>
      <path class="cls-3" d="m144.94,390.27c1.75-4.07,5.93-8.63,12.5-11.8-1.42-3.64-.75-5.38,1.43-5.72.93-.14,2.13-.02,3.55.33.1-.16,9.75,2.14,13.51,6.43.96,1.1,1.54,2.62,1.64,3.66.09.93-.21,1.84-.92,2.71-.73.89-1.91,1.76-3.57,2.59h0c1.77,2.27,3.69,4.98,4.1,7.31.4,2.27-.65,4.1-4.68,4.68-1.82,3.53-3.56,5.64-5.23,6.34-1.83.76-3.63.11-5.42-2.01-2.33.72-4.3.74-5.96.12-1.82-.68-3.22-1.94-4.26-3.74-2.64,0-4.65-.9-6.02-2.39-1.01-1.09-1.54-2.44-1.61-3.93-.06-1.38.26-2.95.96-4.58Z"/>
      <path class="cls-4" d="m147.58,395.13c.04,1.02.32,1.86.85,2.43.56.61,1.6.98,3.16.98.26,0,.53,0,.82-.03.08,0,.17,0,.28.04.41.13.86.5,1.01.84.61,1.34,1.39,2.23,2.34,2.59,1.24.46,2.87.36,4.95-.39.05-.03.13-.04.22-.03.35.03.84.35,1.09.7.64.92,1.31,1.4,2,1.46.29.03.59-.03.89-.15.69-.29,1.41-.9,2.14-1.82.74-.92,1.5-2.16,2.28-3.71.03-.07.1-.11.2-.12,3.27-.44,4.12-1.82,3.81-3.53-.31-1.73-1.82-3.85-3.22-5.63-1.31-1.68-1.29-2.59-1.25-4.24,0-.26.01-.53.02-.71,0-.31.38-.36.84-.1.46.25.82.71.81,1.01,0,.33-.01.53-.02.72-.02.61-.04,1.1.03,1.56,1.08-.6,1.87-1.22,2.38-1.86.54-.66.76-1.32.7-1.97-.06-.56-.34-1.1-.83-1.63-.96-1.04-2.71-2.11-5.12-3.17-.84-.37-1.65-.7-2.4-.98-.82-.31-1.58-.56-2.28-.75-.03,0-.06-.01-.08-.02-1.18-.31-2.15-.43-2.88-.32-1.25.19-1.76,1.11-1.26,2.99.63-.27,1.28-.53,1.95-.77.28-.1.8.14,1.17.54.37.39.45.79.17.89-7.48,2.64-12.16,7.32-13.95,11.4-.6,1.36-.87,2.66-.83,3.79Z"/>
      <path class="cls-3" d="m166.38,385.89c.15-.25-.13-.75-.62-1.12-.49-.37-1.01-.47-1.16-.22l-3.53,5.99c-.14.24.14.73.62,1.08.48.36.99.46,1.14.22l3.55-5.95h0Z"/>
      <path class="cls-3" d="m162.42,384.12c.15-.25-.14-.76-.63-1.13-.5-.37-1.02-.47-1.16-.22l-3.46,6.03c-.14.24.15.73.63,1.09.49.36,1,.46,1.14.22l3.48-5.99h0Z"/>
    </g>
    <path class="cls-5" d="m168.26,409.18c-.05-.02-.11-.04-.16-.04.05.02.11.03.16.04Z"/>
    <path class="cls-6" d="m147.58,395.13c.04,1.02.32,1.86.85,2.43.56.61,1.6.98,3.16.98.26,0,.53,0,.82-.03.08,0,.17,0,.28.04.41.13.86.5,1.01.84.61,1.34,1.39,2.23,2.34,2.59,1.24.46,2.87.36,4.95-.39.05-.03.13-.04.22-.03.35.03.84.35,1.09.7.64.92,1.31,1.4,2,1.46-.02-.06-.04-.13-.06-.2-.46-1.53-.39-3.17-.32-4.78-2.02.83-4.26,1.68-6.32.95-1.68-.59-2.92-2.28-2.99-4.06-1.4-.15-2.37-1.63-2.4-3.05-.03-1.41.66-2.74,1.43-3.93,1.24-1.94,2.76-3.75,4.65-5.07,1.98-1.39,4.07-1.91,6.43-2.07-.03-.06-.05-.11-.08-.17-.1-.23-.15-.48-.19-.73,0,0-.17-.91-.11-1.36.06-.44.21-.85.47-1.21.19-.27.45-.49.74-.66-.82-.31-1.58-.56-2.28-.75-.03,0-.06-.01-.08-.02-1.18-.31-2.15-.43-2.88-.32-1.25.19-1.76,1.11-1.26,2.99.63-.27,1.28-.53,1.95-.77.28-.1.8.14,1.17.54.37.39.45.79.17.89-7.48,2.64-12.16,7.32-13.95,11.4-.6,1.36-.87,2.66-.83,3.79Z"/>
    <path class="cls-5" d="m169.03,375.68c-.08-.05-.16-.1-.25-.14.08.05.16.1.25.14Z"/>
    <path class="cls-3" d="m281.79,356.34s1.17,6.23-9.53,5.38l-.38,21.56s21.44,1.05,29.15-16.97l-19.24-9.98Z"/>
    <g>
      <path class="cls-3" d="m287.43,365.03s-3.2-1.74-4.72-4.1c-1.4-2.18-1.75-4.15-1.81-6-.08-2.11.91-4.02,3.5-5.13l.04-.13c-.12-.2-.13-.35-.06-.44,2.83-4.2,5.55-7.11,7.95-8.67,1.47-.96,2.86-1.43,4.11-1.41,1.59.03,3,.74,4.18,2.15.68.81,1.23,1.86,1.65,3.17,2.04.06,3.68.78,5.04,2.01,1.28,1.16,2.16,2.73,2.79,4.59,1.67.41,3.02.99,4.06,1.72,1.31.93,2.06,2,2.24,3.2.16,1.03-.12,2.19-.82,3.45-1.01,1.81-2.92,3.85-5.72,6.08-2.11,1.67-3.91,2.58-5.4,2.78-.78.1-1.52.02-2.22-.25-.43-.16-5.35-3.55-5.71-3.82-.17.26-3.85,3.85-9.11.8Z"/>
      <path class="cls-4" d="m293.62,356.01c1.6-.46,3.41-1.73,5.52-3.82.15-.15-.07-.48-.48-.75-.41-.27-.87-.37-1.02-.22-2.12,2.11-3.87,3.35-5.32,3.75-.08,0-.14.02-.19.05-.44.1-.85.12-1.24.07-1.14-.17-2.16-1.57-3.18-4.13,0-.01-.01-.03-.02-.05-.04-.09-.07-.19-.11-.28,2.45-3.3,3.74-5.8,5.86-7,1.22-.69,2.34-1.02,3.31-.98.67.03,1.23.27,1.67.73.61.64,2.2,1.85,2.58,3.15.08.26.49.6.92.76.17.06.32.09.44.08,1.7-.09,2.88.26,3.7.92.97.79,1.67,2.05,2.22,3.62.09.27.52.6.95.75.07.02.13.04.19.05h0c1.55.3,2.68.7,3.42,1.17.59.38.95.88,1.07,1.49.15.75-.07,1.6-.64,2.54-.86,1.42-2.53,3.02-5.02,4.76-1.82,1.27-3.36,1.95-4.59,2.06-.47.05-.86.01-1.16-.1-.16-.06-.32-.17-.47-.35-.02-.02-.04-.05-.06-.07-.03-.04-.06-.08-.09-.11-.44-.58-.76-1.44-.96-2.56,0-.06-.04-.12-.08-.18,1.41-.64,2.79-1.78,3.93-3.53.11-.17-.14-.51-.57-.77-.43-.25-.86-.32-.97-.15-1.64,2.52-3.76,3.72-5.69,3.94-.4.05-.79.05-1.15.01-.03,0-.07,0-.1-.01-.32-.04-.62-.11-.89-.21-.45-.16-.85-.44-1.16-.8,0-.01-.02-.02-.03-.03-.74-.9-1.04-2.21-.58-3.8h0Z"/>
      <path class="cls-6" d="m288.8,363.99s-.04-.02-.06-.02c-.05-.02-.1-.04-.15-.06-1.48-.65-2.9-1.85-3.99-3.26-1.17-1.52-1.93-3.27-1.99-4.9-.06-1.69.64-3.24,2.44-4.29,1.34,3.29,3.06,5.13,5.38,5.44.05,0,.1.01.15.02-.18,1.67.24,3.12,1.05,4.24.01.02.02.04.04.05.68.9,1.58,1.61,2.65,2.07-1.66,1.42-3.65,1.47-5.51.71h0Z"/>
    </g>
    <path class="cls-4" d="m294.72,370.51s-7.82,7.21-18.45,7.29c0,0-.77-3.08-.9-5.18,0,0,2.69,2.2,3.07,2.99s2.69-1.14,1.67-3.52.38-5.54,4.23-3.69c3.84,1.85,4.74,3.69,5.77,2.9s-5.12-4.04-5.12-4.04c0,0,6.53,1.49,9.74,1.49s1.79,1.41,1.79,1.41l-1.79.35Z"/>
    <path class="cls-6" d="m280.24,362.38s-3.71,1.24-4.74,1.34,2.16,6.69,2.37,6.59.21-5.05,1.13-5.87c.93-.82,3.5-1.03,3.5-1.03l-2.27-1.03Z"/>
    <path class="cls-1" d="m304.53,349.74c.85.77,1.03,2.07,1.81,2.92,1.29,1.39,3.66,1.04,5.2,2.16.22.16.42.35.52.59.29.68-.25,1.41-.82,1.89-.77.65-1.65,1.16-2.6,1.5-.51.18-1.05.32-1.58.22s-1.02-.52-1.07-1.05c-.03-.36.13-.71.19-1.07.14-.95-.48-1.83-1.15-2.52s-1.44-1.35-1.71-2.26c-.22-.74-.11-1.64-.65-2.2-.67-.7.63-1.28,1.85-.17Z"/>
    <path class="cls-1" d="m234.7,425.05c-.11.32-5.53,12.14-19.46,21.41l.22-1.08s12.22-9.19,17.84-19.89l1.41-.43Z"/>
    <path class="cls-3" d="m189.78,448.96c1.67,1.74,3.85,5.41-.08,12.46-.18.32-.66.13-.58-.22.62-2.76,1.41-7.86.1-11.97-.11-.34.31-.53.56-.27Z"/>
    <path class="cls-1" d="m170.11,391.07c0-.11.14-.14.19-.05.5.89,1.76,3.35.99,4.41-.95,1.3-2.13.83-2.48,1.3-.23.31-.88,1.5-1.29,2.27-.06.11-.11.02-.2-.07-.78-.84-1.04-2.23-.06-3.93.33-.58,2.19-.7,2.19-1.65l.67-2.28Z"/>
    <path class="cls-3" d="m239.97,332.88s-10.03-7.22-13.16,3.77c0,0-2.89-9.31,3.85-9.79,6.74-.48,9.31,6.02,9.31,6.02Z"/>
    <path class="cls-3" d="m259.82,333.72s-1.5-3.02-4.08-2.97-4.15,2.81-4.15,2.81c0,0-.31-5.41,3.54-5.43s4.69,5.58,4.69,5.58Z"/>
  </g>
  <g>
    <g>
      <path class="cls-6" d="m405.08,356.1c-.38-1.99-1.14-3.69-2.29-5.11-1.14-1.42-2.66-2.52-4.54-3.31-1.88-.79-4.08-1.19-6.58-1.19h-41.53l-20.6-.08,2.53,1.47c1.91,1.09,3.3,2.59,4.17,4.5.8,1.74,1.04,3.58.74,5.51l-1.28,6.19-.36,1.71h0s-4.83,23.3-4.83,23.3h0l-3.03,14.63h11.04l20.6.08-2.53-1.47c-1.91-1.09-3.3-2.59-4.17-4.5-.8-1.76-1.04-3.61-.74-5.55l.66-3.2h30.49c2.51,0,4.85-.39,7.03-1.19,2.18-.79,4.14-1.89,5.89-3.31,1.74-1.42,3.23-3.12,4.46-5.11,1.23-1.99,2.09-4.21,2.58-6.66l2.13-10.06c.49-2.45.54-4.67.16-6.66Zm-21.09,10.34l-.65,2.7c-.22,1.09-.74,1.96-1.55,2.62-.82.65-1.77.98-2.86.98h-23.18l1.11-5.35.98-4.54h23.22c1.09,0,1.91.33,2.45.98.54.65.71,1.53.49,2.62Z"/>
      <path class="cls-6" d="m468.95,397.83c-.82-1.8-1.06-3.69-.72-5.69l.73-3.53.89-4.19-.03.03,3.62-17.53c.65-3.05.74-5.83.25-8.34-.49-2.51-1.46-4.66-2.9-6.46-1.44-1.8-3.35-3.19-5.72-4.17-.29-.12-.61-.21-.91-.32-1.66-.76-3.39-1.15-5.18-1.15h-40.96l-1.8,8.83c-.44,2.29-.1,4.12,1.02,5.48,1.12,1.36,2.82,2.04,5.11,2.04h30.13l-.99,4.77c-.31-.01-.61-.03-.94-.03h-26.65c-2.34,0-4.54.37-6.58,1.1-2.04.74-3.88,1.77-5.52,3.11-1.64,1.34-3.02,2.97-4.17,4.91-1.14,1.94-1.96,4.1-2.45,6.5-.65,3.05-.74,5.85-.25,8.38.49,2.53,1.47,4.7,2.94,6.5,1.47,1.8,3.39,3.19,5.76,4.17,2.37.98,5.14,1.47,8.3,1.47h4.66c3.92,0,7.78-.89,11.57-2.66,2.59-1.21,5.01-2.66,7.29-4.31l-1.44,6.96h11.04l20.6.08-2.53-1.47c-1.91-1.09-3.3-2.59-4.17-4.5Zm-40.06-10.47c-.82,0-1.43-.25-1.84-.74-.41-.49-.53-1.14-.37-1.96v-.08c.16-.82.56-1.47,1.19-1.96.63-.49,1.35-.74,2.17-.74h18.4l-.57,2.7c-.16.82-.56,1.49-1.19,2-.63.52-1.38.78-2.25.78h-15.53Z"/>
      <path class="cls-6" d="m535.01,346.49c-6.7,0-13.04,1.05-19.01,3.15-1.77.62-3.48,1.33-5.14,2.11l1.09-5.25h-11.04l-20.6-.08,2.53,1.47c1.91,1.09,3.3,2.59,4.17,4.5.8,1.76,1.04,3.61.74,5.55l-1.13,5.45-.51,2.41v-.02s-7.85,37.95-7.85,37.95h21.83l7-33.8c.51-2.09,1.54-3.78,3.1-5.08,1.61-1.34,3.56-2,5.85-2h26.24l3.27-16.35h-10.55Z"/>
      <path class="cls-6" d="m580.55,362.84c2.94,0,5.49-.87,7.64-2.62,2.15-1.74,3.53-4.09,4.13-7.03l1.39-6.7h-14.85l1.44-6.95h-21.83l-1.44,6.95h-8.21l-3.35,16.35h8.18l-5.31,25.67c-.49,2.29-.56,4.37-.2,6.25.35,1.88,1.08,3.47,2.17,4.78,1.09,1.31,2.51,2.33,4.25,3.07,1.74.74,3.79,1.1,6.13,1.1h22.48l3.43-16.35h-16.23l5.09-24.53h5.08Z"/>
      <path class="cls-6" d="m614.72,346.49c-2.13,0-4.14.34-6.05,1.02-1.91.68-3.61,1.63-5.11,2.86-1.5,1.23-2.78,2.7-3.84,4.41-1.06,1.72-1.81,3.61-2.25,5.68l-1.14,5.56c-.44,2.07-.49,4.01-.16,5.81.33,1.8.98,3.37,1.96,4.7.98,1.34,2.28,2.44,3.88,3.31,1.61.87,3.47,1.42,5.6,1.63l25.51,2.53c1.09.11,1.53.68,1.31,1.72-.11.49-.34.89-.7,1.19-.36.3-.78.45-1.27.45h-30.66c-2.94,0-5.51.87-7.69,2.62-2.18,1.74-3.57,4.09-4.17,7.03l-1.39,6.7h48.07c2.13,0,4.14-.34,6.05-1.02,1.91-.68,3.61-1.63,5.11-2.86,1.5-1.23,2.77-2.7,3.8-4.41,1.03-1.72,1.77-3.61,2.21-5.68l1.14-5.64c.44-2.07.49-4.01.16-5.8-.33-1.8-1-3.37-2-4.7-1.01-1.34-2.32-2.44-3.92-3.31-1.61-.87-3.48-1.42-5.6-1.63l-23.87-2.53c-1.04-.11-1.44-.68-1.23-1.72.27-1.03.93-1.55,1.96-1.55h26.74c2.94,0,5.49-.87,7.64-2.62,2.15-1.74,3.53-4.09,4.13-7.03l1.39-6.7h-45.62Z"/>
    </g>
    <g>
      <path class="cls-1" d="m375.4,471.42c-.8-1.75-1.05-3.6-.74-5.54l1.15-5.53.49-2.33v.02s7.85-37.95,7.85-37.95h-31.8l-21.06,32.9-8.46-32.9h-39.57l2.53,1.39c1.91,1.09,3.3,2.59,4.17,4.5.8,1.76,1.04,3.6.74,5.54l-1.15,5.57-.48,2.3v-.02s-7.85,37.95-7.85,37.95h21.83l5.65-27.3,7.02,27.3h21.83l19.1-29.84-6.18,29.84h11.04l20.6.08-2.53-1.47c-1.91-1.09-3.3-2.59-4.17-4.5Z"/>
      <path class="cls-1" d="m458.06,440.43c.65-3.05.74-5.83.25-8.34-.49-2.51-1.46-4.65-2.9-6.42-1.44-1.77-3.35-3.15-5.72-4.13-2.37-.98-5.11-1.47-8.22-1.47h-28.94c-3.11,0-6.05.49-8.83,1.47-2.78.98-5.27,2.36-7.48,4.13-2.21,1.77-4.06,3.91-5.56,6.42-1.5,2.51-2.58,5.29-3.23,8.34l-3.35,16.52c-.65,3.05-.74,5.83-.25,8.34.49,2.51,1.46,4.65,2.9,6.42,1.44,1.77,3.35,3.15,5.72,4.13,2.37.98,5.11,1.47,8.22,1.47h28.94c3.11,0,6.05-.49,8.83-1.47,2.78-.98,5.27-2.36,7.48-4.13,2.21-1.77,4.06-3.91,5.56-6.42,1.5-2.51,2.58-5.29,3.23-8.34l3.35-16.52Zm-22.57,3.27l-2.04,9.97c-.49,2.18-1.54,3.94-3.15,5.27-1.61,1.34-3.56,2-5.85,2h-12.02c-2.29,0-3.97-.67-5.03-2-1.06-1.34-1.35-3.09-.86-5.27l2.04-9.97c.49-2.18,1.54-3.94,3.15-5.27,1.61-1.34,3.56-2,5.85-2h12.02c2.29,0,3.97.67,5.03,2,1.06,1.34,1.35,3.09.86,5.27Z"/>
      <path class="cls-1" d="m500.41,420.07l-20.6-.08,2.53,1.47c1.91,1.09,3.3,2.59,4.17,4.5.8,1.76,1.04,3.6.74,5.54l-1.15,5.57-.48,2.3v-.02s-4.46,21.6-4.46,21.6h-23.42l-3.43,16.35h32.38c1.96,0,3.8-.3,5.52-.9,1.72-.6,3.24-1.46,4.58-2.58,1.33-1.12,2.48-2.45,3.43-4.01.95-1.55,1.62-3.28,2-5.19l9.24-44.56h-11.04Z"/>
      <path class="cls-1" d="m584.13,432.09c-.49-2.51-1.46-4.65-2.9-6.42-1.44-1.77-3.35-3.15-5.72-4.13-2.37-.98-5.11-1.47-8.22-1.47h-28.94c-3.11,0-6.05.49-8.83,1.47-2.78.98-5.27,2.36-7.48,4.13-2.21,1.77-4.06,3.91-5.56,6.42-1.5,2.51-2.58,5.29-3.23,8.34l-3.35,16.52c-.65,3.05-.74,5.83-.25,8.34.49,2.51,1.46,4.65,2.9,6.42,1.44,1.77,3.35,3.15,5.72,4.13,2.37.98,5.11,1.47,8.22,1.47h28.94c3.11,0,6.05-.49,8.83-1.47,2.78-.98,5.27-2.36,7.48-4.13,2.21-1.77,4.06-3.91,5.56-6.42,1.5-2.51,2.58-5.29,3.23-8.34l3.35-16.52c.65-3.05.74-5.83.25-8.34Zm-22.81,11.61l-2.04,9.97c-.49,2.18-1.54,3.94-3.15,5.27-1.61,1.34-3.56,2-5.85,2h-12.02c-2.29,0-3.97-.67-5.03-2-1.06-1.34-1.35-3.09-.86-5.27l2.04-9.97c.49-2.18,1.54-3.94,3.15-5.27,1.61-1.34,3.56-2,5.85-2h12.02c2.29,0,3.97.67,5.03,2,1.06,1.34,1.35,3.09.86,5.27Z"/>
    </g>
  </g>
</svg>