<?xml version="1.0" encoding="UTF-8"?>
<svg id="Layer_1" data-name="Layer 1" xmlns="http://www.w3.org/2000/svg" viewBox="0 0 800 800">
  <defs>
    <style>
      .cls-1 {
        fill: #fff;
      }

      .cls-2 {
        fill: #0f1e2f;
      }

      .cls-3 {
        fill: #102f4f;
      }

      .cls-4 {
        fill: #ccc;
      }

      .cls-5 {
        fill: #b70013;
      }

      .cls-6 {
        fill: #cd1e29;
      }
    </style>
  </defs>
  <g>
    <g>
      <path class="cls-3" d="m152.25,427.01c.39-.48.86-.98,1.29-1.47.1-.11.2-.19.31-.21,2.61-.64,5.23-.98,7.9-1.23.57-.05,1.08-.55,1.55-.92,2.23-1.74,4.25-3.6,6.07-5.59,2.01-2.2,3.63-4.23,4.86-6.1.99-1.5,1.97-3,2.93-4.51.02-.03.01-.07-.02-.1-.22-.18-.43-.38-.62-.6-3.51-3.94-7.08-7.85-10.85-11.55-.11-.11-.17-.26-.18-.45-.11-1.7-.2-3.4-.3-5.11-.02-.27-.16-4.4-.21-4.74,0-.03-3.61.04-6.48,1.55-2.59,1.37-4.9,2.9-4.96,3.87,0,.05-.71-.35-.74-.32-1.56,1.21-4.13,1.43-5.77.24-.04-.03-.08-.03-.11,0l-2.18,2.39c-.08.09-.16.09-.25.02-2.59-2.02-3.98-5.54-3.01-8.79.45-1.51,1.51-2.27,2.31-3.34,1.24-1.66,5-6.81,9.19-9.65,3.69-2.5,8.61-2.8,8.61-2.8,0,0-.22-4.43-.22-4.47,0-2.64-.17-5.27-.5-7.89,0-.02,0-.04.02-.05,2.21-2.16,4.58-4.15,7.09-5.95,4.27-3.06,9.11-5.22,14.26-6.74,5.04-1.49,10.07-2.05,15.31-2.01,3.61.02,7.16.49,10.65,1.4,2.34.61,4.66,1.31,6.91,2.22.33.13.39.54.48.85.55,1.8,1.05,3.62,1.51,5.44,1.45,5.75,3.39,12.48,3.77,18.39.34,5.32.48,9.38.21,14.92-.12,2.41-1.6,12.22-2.35,14.49-1.6,4.84-4.63,8.59-9.1,11.24-1.97,1.17-4.07,2.07-6.28,2.69-.69.19-1.37.38-2.06.56-.34.09-.36.64-.46.89-.41,1.04-.8,2.12-1.26,3.09-1.88,4-4.27,7.68-7.17,11.03-1.06,1.22-2.27,2.4-3.63,3.55-2.84,2.39-5.93,4.47-9.26,6.26-.13.07-.18.18-.13.32l1.27,4.23c.02.07,0,.13-.03.19-2.53,3.62-5.3,7.09-7.94,10.62-.34.45-.71.94-1.14,1.47-.61.77-1.19,1.56-1.84,2.3-.38.44-.84,1.1-1.39,1.3-7.21,2.65-15.64,1.95-21.76-2.95-.02-.01-.02-.03,0-.05l.02-.03s.01,0,.02,0c2.97,1.77,7.08,2.22,10.45,1.96,1.65-.13,3.29-.56,4.87-.99.12-.03.12-.07,0-.11-1.25-.44-2.36-1.03-3.54-1.65-.09-.05-.23-.06-.32-.13-.05-.04-.05-.05.02-.05,2.67.27,5.43-.49,7.96-1.26.05-.01.05-.02,0-.02-1.18.08-2.37.16-3.54.23-.27.02-.55.02-.84,0-.08,0-.08-.03-.01-.06.85-.44,1.58-1.01,2.18-1.7,1.25-1.45,2.53-3.32,4.17-4.63,1.45-1.16,3.1-1.69,4.95-1.77.04,0,.08-.03.1-.06.35-.68.8-1.28,1.34-1.82.04-.04.03-.05-.02-.05-1.85.08-3.62.48-5.29,1.21-1.51.66-3.14,1.79-4.59,2.81-1.03.73-1.87,1.19-2.51,1.41-.76.25-1.47.51-2.15.77-.23.09-.26.05-.08-.12,1.67-1.57,3.08-3.52,4.25-5.47,1.39-2.31,2.2-4.88,1.63-7.54-.37-1.76-1.49-3.33-3.09-4.16-3.04-1.58-7.27-.36-9.91,1.58-3.2,2.36-6.06,6.73-5.13,10.88.7,3.11,3.29,5.32,6.49,5.42,1.99.06,3.53-.58,5.14-1.48.09-.05.09-.04.03.03-2.02,2.07-5.2,2.74-8,2.24-3.28-.58-6.08-2.59-7.98-5.27-.11-.16-.18-.32-.19-.48-.2-3.3.78-6.07,2.55-8.79,2.02-3.09,4.42-6,6.75-8.86Z"/>
      <path class="cls-1" d="m181.13,347.9l.02.04s.06.06.09.04c.39-.13,1-.29,1.85-.47,2.11-.47,3.98-.81,5.6-1.01,1.59-.2,3.6-.37,6.02-.48,5.12-.25,10.14.32,15.07,1.69.35.1.71.17.8.47,0,0,.04.12.11.35,1.16,3.89,14.24,45.18-5.8,58.13.15-.05,10.67-2.25,12.75-17.9,2.07-15.55-5.49-40.76-5.7-41.45,0,0,0-.01,0-.01-.02-.05-.05-.2-.25-.28-4.28-1.54-8.75-1.99-13.31-2.06-2.92-.05-5.83.06-8.74.34-1,.33-2.09.53-3.03.8-.5.14-1,.27-1.51.39-.82.19-2.12.64-3.91,1.34-.04.01-.05.05-.04.09Z"/>
      <path class="cls-4" d="m163.96,357.02s.03.01.04,0c1.89-1.59,3.93-3.03,6.11-4.32,3.58-2.11,6.94-3.28,10.69-4.34.05-.02.11.01.13.07,2.67,6.71,4.48,13.48,5.82,20.71.11.59.25,1.95.42,4.09.22,2.73.22,5.38,0,7.96-.09,1.07-.36,2.47-.51,3.33-.81,4.77-2.23,9.5-4.33,13.86-.77,1.59-1.57,3.16-2.4,4.71-.01.02,0,.05.02.07,2.78,1.7,5.49,3.08,8.77,4.07,4.61,1.38,9.19,1.45,13.75.21,6.91-1.88,10.42-6.88,12.28-13.49.83-2.96,1.97-8.14,1.44-15.54-1.08-15.01-3.94-24.43-3.94-24.43,0,0-1.08-3.86-1.68-5.79-.09-.3-.46-.37-.8-.47-4.93-1.38-9.95-1.94-15.07-1.69-2.42.12-4.43.28-6.02.48-1.62.21-3.49.55-5.6,1.01-.84.19-1.46.34-1.85.47-.04.01-.08,0-.09-.04l-.02-.04s0-.08.04-.09c1.79-.7,3.1-1.15,3.91-1.34.51-.12,1.01-.25,1.51-.39.94-.26,2.03-.47,3.03-.8-6.31.42-12.64,2.2-18.07,5.36-2.71,1.58-5.12,3.61-7.23,5.93-.15.16-.27.3-.37.4-.01.01-.01.03,0,.04Zm28.24,3.39c.02-.8.22-1.52.59-2.16.17-.29.39-.57.64-.83,0,0,0,0,0,0,.08-.1,1.77-2.33,5.09.4,0,0,0,.02.02.03.64.76,1.14,1.64,1.49,2.62.93,2.63,1.53,5.33,1.55,8.1,0,.11-.03.32-.08.64.05.01.09.03.13.06.04.03.05.06.05.11-.25,1.67-.43,3.88-2.3,4.63-1.36.55-2.76.34-3.87-.63-.46-.4-.82-.84-1.06-1.32-1.03-2-1.49-4.2-1.37-6.61-.02-.03-.04-.06-.06-.11-.58-1.57-.85-3.21-.81-4.93Z"/>
      <path class="cls-4" d="m207.84,357.92s.04-.06.02-.07c-.01.04-.02.07-.02.07Z"/>
      <path class="cls-3" d="m210.21,357.36c.82.51,1.37,1.23,1.72,2.09.44,1.12.74,2.33.88,3.62.19,1.68.28,3.36.28,5.03-.18.72-.22,1.5-1.2,1.53-1.28.03-1.76-2.01-1.77-2.99,0-.04.03-.06.06-.06h.59s.09-.04.11-.08c.25-.6.24-1.21-.13-1.75-.1-.14-.06-.33.08-.43.15-.11.32-.17.5-.19.16-.02.22-.1.18-.25-.24-1-.94-4.56-2.64-3.93-.14.05-.31.24-.51.56-.63,1.01-.68,1.89-.89,2.98-.39-1.37-.48-2.74-.27-4.09.09-.57.12-.99.5-1.6.44-.7,1.71-.95,2.51-.45Z"/>
      <path class="cls-3" d="m198.52,357.82s1.16,1.67,1.5,2.66c.93,2.63,1.53,5.33,1.55,8.1,0,.11-.03.32-.08.64-.17,1.26-1.56,1.73-2.58,1.36-1.29-.47-1.9-2.49-1.97-3.71,0-.05.04-.09.09-.08.42.06,1.04.24,1.15-.41.04-.26.05-.52.02-.78-.04-.29-.3-.45-.34-.65-.1-.61.39-.71.86-.61.07.01.13-.05.11-.11-.41-1.42-1-3.59-2.49-4.26-2.25-1-3.15,2.5-3.17,3.94-.01.69-.05,1.21-.1,1.55-.02-.03-.04-.06-.06-.11-.58-1.57-.85-3.21-.81-4.93.03-1.17.33-2.56.92-3.15,1.36-1.34,3.73-1.19,5.4.56Z"/>
      <path class="cls-4" d="m179.43,360.52c-.66-2.4-1.49-4.59-2.43-6.92-.02-.05-.06-.06-.11-.04-3.2,1.54-6.27,3.19-9.14,5.31-.16.12-.25.25-.23.47.23,2.13.44,4.26.63,6.4,0,.05.02.09.06.12,5.57,4.43,6.24,13.48,1.48,18.72-.05.06-.08.14-.07.22.21,2.44.33,4.89.36,7.35,0,.18.09.29.22.4,1.69,1.48,3.34,3,4.95,4.58.29.28.86.79,1.25,1.23.02.02.06.02.07-.01,1.23-2.83,2.34-5.71,3.33-8.65.68-2.03,1.2-4.25,1.55-6.66.72-4.93.71-9.66-.03-14.19-.4-2.43-1.03-5.21-1.9-8.33h0Z"/>
      <path class="cls-1" d="m193.06,365.44c-.12,2.41.34,4.62,1.37,6.61.25.48.6.92,1.06,1.32,1.11.97,2.51,1.18,3.87.63,1.87-.76,2.04-2.97,2.3-4.63,0-.05,0-.08-.05-.11-.04-.03-.08-.04-.13-.06-.17,1.26-1.56,1.73-2.58,1.36-1.29-.47-1.9-2.49-1.97-3.71,0-.05.04-.09.09-.08.42.06,1.04.24,1.15-.41.04-.26.05-.52.02-.78-.04-.29-.3-.45-.34-.65-.1-.61.39-.71.86-.61.07.01.13-.05.11-.11-.41-1.42-1-3.59-2.49-4.26-2.25-1-3.15,2.5-3.17,3.94-.01.69-.05,1.21-.1,1.55h0Z"/>
      <path class="cls-1" d="m207.47,363.51c-.02,1.49.12,3,.4,4.53.25,1.34,1.12,4.66,3.08,4.37,1.18-.17,1.74-1.25,1.98-2.29.15-.68.2-1.35.16-2.01-.18.72-.22,1.5-1.2,1.53-1.28.03-1.76-2.01-1.77-2.99,0-.04.03-.06.06-.06h.59s.09-.04.11-.08c.25-.6.24-1.21-.13-1.75-.1-.14-.06-.33.08-.43.15-.11.32-.17.5-.19.16-.02.22-.1.18-.25-.24-1-.94-4.56-2.64-3.93-.14.05-.31.24-.51.56-.63,1.01-.68,1.89-.89,2.98h0Z"/>
      <path class="cls-4" d="m234.63,373.42c-.27.35-.55.63-.84.84-.32.24-.65.46-.99.66-.03.02-.07,0-.07-.05.16-.86.26-1.69,0-2.54-.13-.45-.45-.96-.66-1.43-.04-.08-.03-.18.03-.26.67-.95,1.49-1.67,2.31-2.48.32-.32.56-.68.7-1.08.02-.05.09-.08.13-.04,1.51.97,2.08,2.71,1.01,4.3-.49.73-1.09,1.39-1.63,2.08Z"/>
      <path class="cls-4" d="m164.93,373.14c.75.61,1.41,2.05,1.66,2.88.55,1.79-.05,3.97-.99,5.53,0,.01,0,.03,0,.04h0s.03,0,.04,0c.34-.44.66-.91.95-1.39,1.43-2.36,1.63-5.32.24-7.76-.85-1.5-2.48-3.06-4.32-2.4-1.1.4-2.16,1.27-3.14,2-.04.03-.05.07-.02.11,1.03,1.46,1.42,2.9.69,4.59-.18.43-.53.86-.82,1.27-.03.04-.03.08,0,.11,1.11,1.67,1.17,3.4.16,5.19-.06.1-.03.13.07.07.71-.36,1.39-.78,2.04-1.23,2.03-1.43,3.29-3.33,3.79-5.69.2-.96.13-2.35-.4-3.28-.05-.08-.03-.09.04-.03h0Z"/>
      <path class="cls-4" d="m235.39,378.29c-.12.05-.15.02-.09-.1.76-1.49.31-3.02-.83-4.16-.04-.04-.03-.07,0-.1.78-.66,1.48-1.2,2.1-1.63.68-.47,1.53-.6,2.26-.12.8.52,1.34,1.52,1.12,2.46-.4,1.74-3.1,3-4.56,3.65Z"/>
      <path class="cls-4" d="m154.24,378.9c-.07-.02-.13-.07-.15-.15-.3-.82-.88-1.38-1.72-1.71-.43-.16-.8.16-1.09.48-.87.97-1.68,1.85-2.36,2.92-.03.05-.1.06-.15.02-.68-.53-1.43-.9-2.27-1.11-.16-.04-.28-.02-.36.07-.31.34-.6.67-.89,1.02-.03.04-.02.06.03.05,1.19-.12,3.65,1.83,4.5,2.68.13.13.42.47.86,1.03.03.03.07.04.1.01.72-.68,1.73-1.61,2.71-1.83,1.32-.31,1.99.85,1.7,1.86-.12.42-.36.87-.71,1.33-.03.04-.02.06.04.06,1.16-.02,2.08-1.28,2.83-1.91,2.32-1.95,1.59-4.18-1.15-5.71-.08-.05-.11-.14-.07-.22.4-.74.64-1.51.16-2.27-.95-1.51-3.94-1.25-5.44-.87-.09.02-.09.05,0,.08,1.81.69,3.87,1.97,3.52,4.13,0,.03-.04.05-.08.04h0Z"/>
      <path class="cls-3" d="m198.09,394.07c-.27-.27-.57-.5-.9-.69-.15-.09-.35-.33-.62-.74-.17-.26-.33-.54-.47-.84-1.02-2.19-1.48-4.51-1.37-6.96.02-.55.05-1.07.09-1.57,0-.15.05-.15.1-.02.44,1.01,1.15,1.99,1.56,2.52.88,1.14,2.06,2.07,3.13,3.07.25.24.33.19.23-.14l-1.03-3.31c-.03-.09.05-.17.14-.16.9.14,1.9.19,2.54.93,1.66,1.93,2.3,5.02,2.57,7.49.04.31,0,.56-.14.74-.02.03-.01.08.02.1.03.02.07.02.12.02,1.41-.19,2.47-.64,3.68-1.35.05-.03.08-.02.11.02l1.06,1.57s.09.02.09-.03c-.17-1.08-.44-2.14-.81-3.17-.22-.61-.56-1.21-.87-1.81-.03-.05-.02-.12.01-.17,1.08-1.55,1.91-3.22,2.5-5.01.03-.09.09-.16.18-.2,1.34-.6,2.28-1.32,2.88-2.7.45-1.04.67-2.17.66-3.39,0-1.16-.38-2.78-1.77-2.97-1.36-.18-2.22,1.23-2.4,2.38-.03.16.02.19.15.08.4-.36.77-.81,1.32-.95.16-.04.28,0,.36.16.69,1.33.51,3.9-1.03,4.65-1.07.52-2.37.65-3.55.67-4.43.06-8.05-1.33-11.76-3.6-.03-.02-.05-.06-.03-.1.07-.15.17-.28.31-.39.84-.67,2.21-1.02,3.17-.4.3.2.5.41.61.64.2.44.25.42.16-.05-.14-.7-.59-1.24-1.37-1.61-1.59-.76-3.73-.04-4.89,1.15-.8.82-1.25,1.85-1.34,3.08,0,.08.02.09.07.03.67-.85,1.18-1.5,2.08-2.05.1-.06.13-.04.08.07-.36.82-.63,1.68-.82,2.6-.57,2.73-.79,5.84.05,8.48.77,2.45,2.84,3.34,5.14,3.92h0Z"/>
      <path class="cls-6" d="m198.09,394.07c.53.2,1.14.34,1.83.42,1.39.16,2.77.17,4.15.01-.05,0-.09,0-.12-.02-.03-.02-.05-.06-.02-.1.13-.18.17-.43.14-.74-.27-2.47-.91-5.56-2.57-7.49-.64-.75-1.64-.79-2.54-.93-.09-.01-.16.07-.14.16l1.03,3.31c.1.33.03.38-.23.14-1.07-1-2.25-1.93-3.13-3.07-.41-.53-1.12-1.51-1.56-2.52-.06-.13-.09-.13-.1.02-.04.5-.06,1.03-.09,1.57-.11,2.45.35,4.77,1.37,6.96.14.3.3.58.47.84.27.4.47.65.62.74.32.19.62.42.9.69h0Z"/>
      <path class="cls-1" d="m198.38,382.97c-.56-.18-1.22-.49-1.97-.92-.11-.06-.27-.23-.42-.31-.06-.03-.09-.01-.08.06.33,1.93,1.14,3.36,3.03,3.73,1.92.38,4.23.65,6.16.27.62-.12,1.25-1.21,1.69-1.87.02-.04.01-.05-.03-.05-2.94.24-5.74-.07-8.39-.92h0Z"/>
      <path class="cls-4" d="m149.69,386.87s0,.1-.04.18c-.18.41-.39.83-.63,1.25-.02.04,0,.08.05.07.37-.05,1.69-.35,1.78-.78.1-.45-.75-1.42-1.05-1.65-.55-.42-1.1-.83-1.66-1.23-.12-.09-.24-.08-.34.04-1.13,1.31-2.18,2.69-3.12,4.14-.1.15-.08.17.05.04.63-.59,1.23-1.21,1.81-1.86.05-.06.14-.06.19,0,.25.28,1.19,1.17,1.59.83.41-.35.82-.7,1.25-1.07.06-.05.1-.04.12.04h0Z"/>
      <path class="cls-2" d="m195.56,398.44c2.38,1.46,5.88,1.39,8.36.27.13-.06.25-.13.36-.22.07-.05.06-.07-.02-.05-2.98.61-5.81.24-8.49-1.1-1.17-.59-2.64-1.68-3.25-2.91-.03-.05-.04-.05-.05,0,0,.08,0,.16.03.23.62,1.65,1.64,2.9,3.05,3.77h0Z"/>
      <path class="cls-6" d="m178.1,418.71s-.03.02-.05,0h0s-.02-.03,0-.05c1.67-2.65,2.56-5.86,2.69-8.93.02-.36.05-.65.1-.84,0-.02,0-.03-.02-.04l-.04-.03s-.08-.02-.11.03c-1.16,2.75-2.65,5.37-4.45,7.86-.83,1.15-1.7,2.21-2.62,3.2-2.07,2.23-4.3,4.26-6.81,5.97-.08.05-.07.09.02.1,1.89.33,3.54,1.16,4.92,2.48.06.06.16.05.21-.02.13-.17.29-.33.46-.47,2.05-1.71,3.5-2.94,4.37-3.7,2.82-2.48,5.56-5.6,7.42-8.99.43-.79.8-1.69,1.17-2.55.08-.19.06-.21-.08-.05-1.52,1.8-3.23,2.95-5.39,4.39-.63.42-1.23.96-1.8,1.62h0Z"/>
      <path class="cls-4" d="m177.36,432.35c.29.68.55,1.3.74,2,.01.04.06.06.1.04,2.29-1.45,4.47-3.04,6.54-4.78,3.81-3.2,7.07-7.13,9.49-11.48.96-1.73,1.56-3.19,2.27-4.83,0-.02,0-.05-.03-.05-.89.09-1.78.11-2.68.05-.05,0-.09.02-.11.06-2.63,5.75-6,10.64-10.81,14.69-1.67,1.4-3.41,2.71-5.22,3.93-.1.07-.2.15-.28.24-.03.04-.04.07-.02.12h0Z"/>
      <path class="cls-4" d="m157.99,429c5.22-.8,10.92,2.05,12.64,7.22.04.12.12.21.24.25,1.31.43,2.55.99,3.71,1.68.05.03.1-.02.09-.07-.67-2.54-1.99-4.66-3.97-6.35-3.59-3.06-8.2-4.56-12.73-2.77,0,0-.01.01-.01.02,0,0,.01.01.02.01h0Z"/>
      <path class="cls-4" d="m169.82,441.52c.29-2.1-.1-5.05-1.94-6.55,0,0,0,0,0,0,.86,2.24,1.48,4.42,1.85,6.55.03.18.06.18.09,0h0Z"/>
      <path class="cls-6" d="m151.84,444.21c1.65,1.64,4.79,1.17,7.01-1.06,2.21-2.23,2.67-5.37,1.01-7.01-1.65-1.64-4.79-1.17-7.01,1.06-2.21,2.23-2.67,5.37-1.01,7.01h0Z"/>
    </g>
    <g>
      <path class="cls-3" d="m131.89,393.26c1.21-2.81,4.11-5.97,8.65-8.17-.99-2.52-.52-3.72.99-3.96.64-.1,1.47-.01,2.46.23.07-.11,6.75,1.48,9.35,4.45.66.76,1.07,1.81,1.14,2.53.06.64-.14,1.27-.64,1.88-.51.62-1.32,1.22-2.47,1.79h0c1.23,1.57,2.55,3.45,2.84,5.06.28,1.57-.45,2.84-3.24,3.24-1.26,2.44-2.46,3.91-3.62,4.39-1.27.53-2.52.08-3.75-1.39-1.61.5-2.98.51-4.12.08-1.26-.47-2.23-1.34-2.95-2.59-1.83,0-3.22-.63-4.17-1.65-.7-.75-1.07-1.69-1.12-2.72-.04-.96.18-2.04.66-3.17Z"/>
      <path class="cls-4" d="m133.71,396.63c.03.71.22,1.29.59,1.68.39.42,1.11.68,2.19.68.18,0,.37,0,.57-.02.05,0,.12,0,.19.03.28.09.6.35.7.58.42.93.96,1.54,1.62,1.79.86.32,1.99.25,3.43-.27.04-.02.09-.03.15-.02.24.02.58.24.75.49.44.64.9.97,1.38,1.01.2.02.41-.02.62-.11.48-.2.97-.62,1.48-1.26.51-.64,1.04-1.49,1.58-2.57.02-.05.07-.08.14-.09,2.26-.3,2.85-1.26,2.64-2.44-.22-1.2-1.26-2.66-2.23-3.9-.91-1.16-.89-1.79-.86-2.94,0-.18,0-.37.01-.49,0-.21.26-.25.58-.07.32.18.57.49.56.7,0,.23,0,.37-.01.5-.01.42-.02.76.02,1.08.75-.42,1.29-.85,1.65-1.28.37-.46.53-.91.48-1.36-.04-.38-.23-.76-.57-1.13-.66-.72-1.87-1.46-3.54-2.19-.58-.26-1.14-.49-1.66-.68-.57-.21-1.1-.39-1.58-.52-.02,0-.04,0-.06-.02-.81-.21-1.49-.3-1.99-.22-.87.13-1.22.77-.88,2.07.43-.19.88-.36,1.35-.53.19-.07.55.1.81.37.26.27.31.55.12.62-5.18,1.83-8.42,5.06-9.66,7.89-.41.94-.6,1.84-.57,2.63Z"/>
      <path class="cls-3" d="m146.73,390.24c.1-.17-.09-.52-.43-.78-.34-.26-.7-.33-.8-.15l-2.44,4.14c-.1.17.1.5.43.75.34.25.69.32.79.15l2.46-4.12h0Z"/>
      <path class="cls-3" d="m143.99,389.01c.1-.17-.1-.52-.44-.78-.34-.26-.7-.33-.8-.15l-2.39,4.17c-.1.17.1.51.44.76.34.25.69.32.79.15l2.41-4.15h0Z"/>
    </g>
    <path class="cls-5" d="m148.03,406.35s-.07-.03-.11-.03c.04.01.07.02.11.03Z"/>
    <path class="cls-6" d="m133.71,396.63c.03.71.22,1.29.59,1.68.39.42,1.11.68,2.19.68.18,0,.37,0,.57-.02.05,0,.12,0,.19.03.28.09.6.35.7.58.42.93.96,1.54,1.62,1.79.86.32,1.99.25,3.43-.27.04-.02.09-.03.15-.02.24.02.58.24.75.49.44.64.9.97,1.38,1.01-.02-.04-.03-.09-.04-.14-.32-1.06-.27-2.2-.22-3.31-1.4.58-2.95,1.16-4.37.66-1.16-.41-2.02-1.58-2.07-2.81-.97-.1-1.64-1.13-1.66-2.11-.02-.98.46-1.89.99-2.72.86-1.35,1.91-2.59,3.22-3.51,1.37-.96,2.81-1.32,4.45-1.43-.02-.04-.04-.08-.05-.12-.07-.16-.1-.33-.13-.51,0,0-.12-.63-.07-.94.04-.3.15-.59.33-.84.13-.19.31-.34.51-.46-.57-.21-1.1-.39-1.58-.52-.02,0-.04,0-.06-.02-.81-.21-1.49-.3-1.99-.22-.87.13-1.22.77-.88,2.07.43-.19.88-.36,1.35-.53.19-.07.55.1.81.37.26.27.31.55.12.62-5.18,1.83-8.42,5.06-9.66,7.89-.41.94-.6,1.84-.57,2.63Z"/>
    <path class="cls-5" d="m148.56,383.16c-.05-.04-.11-.07-.17-.1.06.03.11.07.17.1Z"/>
    <path class="cls-3" d="m226.62,369.77s.81,4.31-6.59,3.73l-.26,14.93s14.84.73,20.18-11.74l-13.32-6.91Z"/>
    <g>
      <path class="cls-3" d="m230.52,375.79s-2.22-1.21-3.27-2.84c-.97-1.51-1.21-2.87-1.26-4.15-.05-1.46.63-2.78,2.42-3.55l.03-.09c-.08-.14-.09-.24-.04-.3,1.96-2.91,3.84-4.92,5.51-6,1.02-.66,1.98-.99,2.84-.97,1.1.02,2.08.51,2.89,1.49.47.56.85,1.29,1.14,2.2,1.41.04,2.55.54,3.49,1.39.89.8,1.5,1.89,1.93,3.18,1.15.28,2.09.68,2.81,1.19.91.64,1.43,1.39,1.55,2.22.11.71-.08,1.52-.57,2.39-.7,1.25-2.02,2.67-3.96,4.21-1.46,1.16-2.71,1.78-3.74,1.92-.54.07-1.05.01-1.54-.17-.29-.11-3.7-2.46-3.95-2.64-.12.18-2.67,2.66-6.31.55Z"/>
      <path class="cls-4" d="m234.81,369.55c1.1-.32,2.36-1.2,3.82-2.65.1-.1-.05-.34-.33-.52-.29-.19-.6-.25-.71-.15-1.47,1.46-2.68,2.32-3.69,2.59-.05,0-.1.01-.13.03-.31.07-.59.09-.86.05-.79-.12-1.5-1.08-2.2-2.86,0-.01,0-.02-.01-.03-.03-.06-.05-.13-.08-.2,1.7-2.29,2.59-4.02,4.06-4.85.85-.48,1.62-.71,2.29-.68.46.02.85.19,1.15.51.42.45,1.52,1.28,1.79,2.18.05.18.34.42.64.53.12.04.22.06.3.06,1.18-.06,2,.18,2.56.64.67.55,1.16,1.42,1.54,2.5.06.18.36.42.66.52.05.02.09.03.13.04h0c1.07.21,1.86.48,2.36.81.41.26.66.61.74,1.03.1.52-.05,1.11-.44,1.76-.6.98-1.75,2.09-3.47,3.29-1.26.88-2.32,1.35-3.18,1.43-.33.03-.59,0-.8-.07-.11-.04-.22-.12-.33-.24-.01-.02-.03-.03-.04-.05-.02-.03-.04-.05-.06-.08-.3-.4-.53-1-.66-1.77,0-.04-.03-.08-.05-.12.98-.44,1.93-1.23,2.72-2.44.08-.12-.1-.36-.39-.53-.29-.18-.6-.22-.67-.11-1.14,1.75-2.6,2.57-3.94,2.72-.28.03-.55.03-.8,0-.02,0-.05,0-.07,0-.22-.03-.43-.08-.62-.14-.31-.11-.59-.3-.8-.55,0,0-.01-.02-.02-.02-.51-.62-.72-1.53-.4-2.63h0Z"/>
      <path class="cls-6" d="m231.47,375.07s-.03-.01-.04-.02c-.03-.01-.07-.03-.1-.04-1.02-.45-2.01-1.28-2.76-2.26-.81-1.05-1.34-2.26-1.38-3.39-.04-1.17.44-2.25,1.69-2.97.93,2.28,2.12,3.55,3.72,3.77.03,0,.07,0,.1.01-.13,1.15.16,2.16.73,2.93,0,.01.02.02.03.04.47.63,1.1,1.11,1.83,1.43-1.15.98-2.53,1.02-3.81.49h0Z"/>
    </g>
    <path class="cls-4" d="m235.57,379.58s-5.41,4.99-12.77,5.05c0,0-.53-2.13-.62-3.59,0,0,1.86,1.52,2.13,2.07s1.86-.79,1.15-2.43c-.71-1.64.27-3.83,2.93-2.56s3.28,2.56,3.99,2.01-3.55-2.8-3.55-2.8c0,0,4.52,1.03,6.74,1.03,2.22,0,1.24.97,1.24.97l-1.24.24Z"/>
    <path class="cls-6" d="m225.55,373.95s-2.57.86-3.28.93,1.5,4.63,1.64,4.56.14-3.49.78-4.06,2.42-.71,2.42-.71l-1.57-.71Z"/>
    <path class="cls-1" d="m242.37,365.21c.59.53.71,1.43,1.25,2.02.89.97,2.53.72,3.6,1.49.15.11.29.24.36.41.2.47-.18.98-.57,1.31-.53.45-1.14.8-1.8,1.04-.35.13-.73.22-1.09.15s-.71-.36-.74-.73c-.02-.25.09-.49.13-.74.1-.65-.33-1.27-.79-1.74s-.99-.93-1.18-1.57c-.15-.51-.08-1.13-.45-1.52-.47-.48.43-.88,1.28-.12Z"/>
    <path class="cls-1" d="m194.02,417.34c-.07.22-3.83,8.41-13.47,14.82l.15-.75s8.46-6.36,12.35-13.77l.97-.3Z"/>
    <path class="cls-3" d="m162.93,433.9c1.16,1.2,2.66,3.75-.05,8.63-.12.22-.46.09-.4-.15.43-1.91.97-5.44.07-8.29-.08-.24.21-.37.38-.19Z"/>
    <path class="cls-1" d="m149.31,393.82c0-.07.1-.1.13-.04.35.61,1.22,2.32.69,3.05-.66.9-1.47.57-1.72.9-.16.22-.61,1.04-.89,1.57-.04.08-.08.01-.14-.05-.54-.58-.72-1.55-.04-2.72.23-.4,1.52-.49,1.52-1.14l.46-1.58Z"/>
    <path class="cls-3" d="m197.67,353.54s-6.94-5-9.11,2.61c0,0-2-6.44,2.67-6.78,4.67-.33,6.44,4.17,6.44,4.17Z"/>
    <path class="cls-3" d="m211.41,354.12s-1.04-2.09-2.82-2.05c-1.78.04-2.87,1.95-2.87,1.95,0,0-.22-3.75,2.45-3.76,2.66-.01,3.25,3.86,3.25,3.86Z"/>
  </g>
  <g>
    <g>
      <path class="cls-6" d="m282.4,401.57c-.26-1.38-.79-2.56-1.58-3.54-.79-.98-1.84-1.75-3.14-2.29-1.3-.55-2.82-.82-4.56-.82h-28.75l-14.26-.06,1.75,1.02c1.32.76,2.28,1.79,2.89,3.11.58,1.26.73,2.59.48,3.99l-.87,4.2-.23,1.1h0s-3.35,16.13-3.35,16.13h0l-2.1,10.13h7.64l14.26.06-1.75-1.02c-1.32-.75-2.28-1.79-2.89-3.11-.58-1.27-.73-2.61-.48-4.01l.42-2.05h21.11c1.74,0,3.36-.27,4.87-.82,1.51-.55,2.87-1.31,4.07-2.29,1.21-.98,2.24-2.16,3.08-3.54.85-1.38,1.44-2.91,1.78-4.61l1.47-6.96c.34-1.7.38-3.24.11-4.61Zm-14.6,7.16l-.45,1.87c-.15.76-.51,1.36-1.08,1.81-.57.45-1.23.68-1.98.68h-16.05l.77-3.71.68-3.14h16.07c.75,0,1.32.23,1.7.68.38.45.49,1.06.34,1.81Z"/>
      <path class="cls-6" d="m326.63,430.47c-.59-1.28-.74-2.64-.47-4.06l.48-2.3.62-2.92-.02.02,2.51-12.14c.45-2.11.51-4.04.17-5.77-.34-1.74-1.01-3.23-2.01-4.47-1-1.25-2.32-2.21-3.96-2.89-.2-.08-.42-.15-.63-.22-1.15-.53-2.35-.8-3.58-.8h-28.36l-1.24,6.11c-.3,1.59-.07,2.85.71,3.79.77.94,1.95,1.42,3.54,1.42h20.86l-.68,3.3c-.21,0-.42-.02-.65-.02h-18.45c-1.62,0-3.14.25-4.56.76-1.42.51-2.69,1.23-3.82,2.15-1.13.93-2.09,2.06-2.89,3.4-.79,1.34-1.36,2.84-1.7,4.5-.45,2.11-.51,4.05-.17,5.8.34,1.75,1.02,3.25,2.04,4.5,1.02,1.25,2.35,2.21,3.99,2.89,1.64.68,3.56,1.02,5.74,1.02h3.23c2.72,0,5.39-.61,8.01-1.84,1.79-.84,3.47-1.84,5.04-2.98l-1,4.82h7.64l14.26.06-1.75-1.02c-1.32-.75-2.28-1.79-2.89-3.11Zm-27.73-7.24c-.57,0-.99-.17-1.27-.51-.28-.34-.37-.79-.25-1.36v-.06c.11-.57.39-1.02.82-1.36.43-.34.93-.51,1.5-.51h12.73l-.4,1.87c-.11.57-.39,1.03-.82,1.39-.43.36-.95.54-1.56.54h-10.75Z"/>
      <path class="cls-6" d="m372.36,394.92c-4.64,0-9.03.73-13.16,2.18-1.22.43-2.41.92-3.55,1.46l.75-3.64h-7.64l-14.26-.06,1.75,1.02c1.32.76,2.28,1.79,2.89,3.11.58,1.27.73,2.6.48,4.01l-.77,3.72-.33,1.56h0s-5.44,26.26-5.44,26.26h15.11l4.84-23.34c.35-1.47,1.06-2.66,2.15-3.57,1.11-.92,2.46-1.39,4.05-1.39h18.17l2.26-11.32h-7.3Z"/>
      <path class="cls-6" d="m403.89,406.24c2.04,0,3.8-.6,5.29-1.81,1.49-1.21,2.44-2.83,2.86-4.87l.96-4.64h-10.28l1-4.81h-15.11l-1,4.81h-5.68l-2.32,11.32h5.66l-3.68,17.77c-.34,1.58-.39,3.03-.14,4.33.24,1.3.74,2.41,1.5,3.31.75.91,1.73,1.61,2.94,2.12,1.21.51,2.62.76,4.24.76h15.56l2.38-11.32h-11.23l3.53-16.98h3.52Z"/>
      <path class="cls-6" d="m427.55,394.92c-1.47,0-2.87.24-4.19.71-1.32.47-2.5,1.13-3.54,1.98-1.04.85-1.92,1.87-2.66,3.06-.74,1.19-1.26,2.5-1.56,3.93l-.79,3.85c-.3,1.43-.34,2.77-.11,4.02.23,1.25.68,2.33,1.36,3.25.68.92,1.58,1.69,2.69,2.29,1.11.6,2.41.98,3.88,1.13l17.66,1.75c.75.08,1.06.47.91,1.19-.08.34-.24.61-.48.82-.25.21-.54.31-.88.31h-21.23c-2.04,0-3.81.6-5.32,1.81-1.51,1.21-2.47,2.83-2.89,4.87l-.96,4.64h33.28c1.47,0,2.87-.24,4.19-.71,1.32-.47,2.5-1.13,3.54-1.98,1.04-.85,1.91-1.87,2.63-3.06.72-1.19,1.23-2.5,1.53-3.93l.79-3.91c.3-1.43.34-2.77.11-4.02-.23-1.25-.69-2.33-1.39-3.25-.7-.92-1.6-1.69-2.72-2.29-1.11-.6-2.41-.98-3.88-1.13l-16.53-1.75c-.72-.08-1-.47-.85-1.19.19-.72.64-1.08,1.36-1.08h18.51c2.04,0,3.8-.6,5.29-1.81,1.49-1.21,2.44-2.83,2.86-4.87l.96-4.64h-31.58Z"/>
    </g>
    <g>
      <path class="cls-3" d="m524.05,430.47c-.58-1.27-.73-2.61-.48-4.01l.75-3.61.35-1.66h0s5.44-26.26,5.44-26.26h-22.02l-14.58,22.77-5.86-22.77h-27.39l1.75.96c1.32.76,2.28,1.79,2.89,3.11.58,1.27.73,2.6.48,4.01l-.77,3.72-.33,1.56h0s-5.44,26.26-5.44,26.26h15.11l3.91-18.9,4.86,18.9h15.11l13.22-20.66-4.28,20.66h7.64l14.26.06-1.75-1.02c-1.32-.75-2.28-1.79-2.89-3.11Z"/>
      <path class="cls-3" d="m581.27,409.01c.45-2.11.51-4.04.17-5.77-.34-1.74-1.01-3.22-2.01-4.44-1-1.23-2.32-2.18-3.96-2.86-1.64-.68-3.54-1.02-5.69-1.02h-20.04c-2.15,0-4.19.34-6.11,1.02-1.92.68-3.65,1.63-5.18,2.86-1.53,1.23-2.81,2.71-3.85,4.44-1.04,1.74-1.78,3.66-2.24,5.77l-2.32,11.43c-.45,2.11-.51,4.04-.17,5.77.34,1.74,1.01,3.22,2.01,4.44,1,1.23,2.32,2.18,3.96,2.86,1.64.68,3.54,1.02,5.69,1.02h20.04c2.15,0,4.19-.34,6.11-1.02s3.65-1.63,5.18-2.86c1.53-1.23,2.81-2.71,3.85-4.44,1.04-1.74,1.78-3.66,2.24-5.77l2.32-11.43Zm-15.62,2.26l-1.41,6.91c-.34,1.51-1.07,2.73-2.18,3.65-1.11.92-2.46,1.39-4.05,1.39h-8.32c-1.58,0-2.74-.46-3.48-1.39-.74-.92-.93-2.14-.59-3.65l1.41-6.91c.34-1.51,1.07-2.73,2.18-3.65,1.11-.92,2.46-1.39,4.05-1.39h8.32c1.58,0,2.74.46,3.48,1.39.74.92.93,2.14.59,3.65Z"/>
      <path class="cls-3" d="m610.61,394.92l-14.26-.06,1.75,1.02c1.32.76,2.28,1.79,2.89,3.11.58,1.27.73,2.61.48,4.01l-.75,3.64-.34,1.63h0s-3.1,14.94-3.1,14.94h-16.21l-2.38,11.32h22.41c1.36,0,2.63-.21,3.82-.62,1.19-.41,2.24-1.01,3.17-1.78.92-.77,1.72-1.7,2.38-2.77.66-1.08,1.12-2.27,1.39-3.59l6.4-30.85h-7.64Z"/>
      <path class="cls-3" d="m668.56,403.24c-.34-1.74-1.01-3.22-2.01-4.44-1-1.23-2.32-2.18-3.96-2.86-1.64-.68-3.54-1.02-5.69-1.02h-20.04c-2.15,0-4.19.34-6.11,1.02-1.92.68-3.65,1.63-5.18,2.86-1.53,1.23-2.81,2.71-3.85,4.44-1.04,1.74-1.78,3.66-2.24,5.77l-2.32,11.43c-.45,2.11-.51,4.04-.17,5.77.34,1.74,1.01,3.22,2.01,4.44,1,1.23,2.32,2.18,3.96,2.86,1.64.68,3.54,1.02,5.69,1.02h20.04c2.15,0,4.19-.34,6.11-1.02s3.65-1.63,5.18-2.86c1.53-1.23,2.81-2.71,3.85-4.44,1.04-1.74,1.78-3.66,2.24-5.77l2.32-11.43c.45-2.11.51-4.04.17-5.77Zm-15.79,8.04l-1.41,6.91c-.34,1.51-1.07,2.73-2.18,3.65-1.11.92-2.46,1.39-4.05,1.39h-8.32c-1.58,0-2.74-.46-3.48-1.39-.74-.92-.93-2.14-.59-3.65l1.41-6.91c.34-1.51,1.07-2.73,2.18-3.65,1.11-.92,2.46-1.39,4.05-1.39h8.32c1.58,0,2.74.46,3.48,1.39.74.92.93,2.14.59,3.65Z"/>
    </g>
  </g>
</svg>