<?xml version="1.0" encoding="UTF-8"?>
<svg id="Layer_1" data-name="Layer 1" xmlns="http://www.w3.org/2000/svg" viewBox="0 0 800 800">
  <defs>
    <style>
      .cls-1 {
        fill: #fff;
      }
    </style>
  </defs>
  <g>
    <path class="cls-1" d="m250.59,369.54c-.13-.83-.65-1.58-1.55-2.22-.72-.5-1.66-.91-2.82-1.19-.43-1.29-1.05-2.38-1.94-3.18-.94-.86-2.08-1.35-3.49-1.39-.29-.9-.67-1.64-1.14-2.2-.82-.97-1.79-1.46-2.9-1.48-.86-.02-1.82.3-2.84.97-1.67,1.09-3.54,3.1-5.5,6.01-.06.06-.05.16.03.3,0,.04-.02.06-.02.1-1.79.76-2.47,2.09-2.42,3.54.03.79.14,1.61.43,2.47-.44,1.08-1.73,2.34-5.33,2.29-.06-1.51-.14-3.06-.26-4.74-.38-5.92-2.32-12.64-3.78-18.39-.46-1.82-.96-3.64-1.51-5.45-.09-.3-.14-.71-.48-.84-2.25-.91-4.57-1.61-6.9-2.22-3.49-.9-7.04-1.37-10.65-1.39-5.25-.03-10.28.52-15.31,2.02-5.15,1.52-9.99,3.68-14.26,6.74-2.51,1.81-4.88,3.79-7.09,5.95-.02.02-.02.03-.02.06.34,2.62.5,5.24.5,7.88,0,.05.22,4.48.22,4.48,0,0-4.92.3-8.61,2.79-4.19,2.85-7.95,8-9.19,9.66-.29.38-.61.72-.92,1.07-.5-.06-.94-.07-1.32-.02-1.5.23-1.98,1.43-.98,3.96-4.55,2.19-7.44,5.35-8.66,8.17-.49,1.13-.7,2.21-.66,3.17.05,1.03.42,1.97,1.12,2.72.95,1.03,2.34,1.65,4.17,1.66.72,1.25,1.69,2.12,2.95,2.58,1.14.43,2.51.42,4.12-.08,1.24,1.47,2.49,1.92,3.76,1.39,1.15-.48,2.35-1.94,3.62-4.38,2.79-.4,3.51-1.67,3.24-3.24-.29-1.61-1.61-3.49-2.84-5.06h0c1.15-.58,1.97-1.18,2.47-1.8.44-.54.64-1.09.64-1.66.92-.8,2.42-1.72,4.03-2.57,2.86-1.51,6.47-1.58,6.47-1.54.06.34.2,4.46.22,4.74.09,1.7.18,3.4.3,5.1,0,.19.07.34.18.45,3.78,3.7,7.34,7.6,10.86,11.54.2.22.41.42.62.61.03.02.04.06.02.1-.96,1.5-1.94,3.01-2.93,4.51-1.23,1.86-2.86,3.9-4.86,6.09-1.82,1.99-3.83,3.86-6.06,5.59-.47.37-.98.86-1.55.91-2.67.25-5.29.59-7.9,1.23-.11.02-.22.1-.31.21-.43.5-.9.99-1.3,1.48-2.34,2.86-4.73,5.77-6.75,8.86-1.78,2.72-2.75,5.49-2.55,8.79,0,.15.07.31.18.48,1.9,2.68,4.7,4.69,7.98,5.26,2.79.5,5.98-.18,8-2.24.07-.07.06-.08-.02-.03-1.62.9-3.16,1.54-5.14,1.48-3.2-.1-5.79-2.31-6.49-5.42-.94-4.15,1.93-8.53,5.13-10.89,2.63-1.94,6.87-3.16,9.91-1.58,1.6.83,2.72,2.4,3.09,4.16.57,2.66-.24,5.23-1.63,7.54-1.18,1.95-2.58,3.9-4.25,5.47-.18.17-.16.21.07.12.67-.26,1.39-.51,2.15-.77.63-.22,1.47-.69,2.5-1.42,1.44-1.02,3.08-2.15,4.58-2.81,1.68-.73,3.44-1.13,5.3-1.21.06,0,.06.02.02.06-.54.54-.98,1.14-1.34,1.82-.02.03-.06.06-.1.06-1.85.07-3.49.61-4.94,1.77-1.65,1.31-2.93,3.18-4.18,4.62-.6.7-1.33,1.26-2.18,1.7-.07.04-.06.06,0,.06.29.02.57.02.84,0,1.18-.07,2.36-.14,3.54-.23.05,0,.05,0,0,.02-2.52.78-5.29,1.54-7.95,1.26-.06,0-.07,0-.02.05.1.06.24.08.33.13,1.18.62,2.28,1.21,3.54,1.65.11.04.11.07,0,.1-1.58.43-3.22.86-4.86.99-3.37.26-7.47-.2-10.45-1.97,0,0-.02,0-.02,0l-.02.03s0,.03,0,.05c6.12,4.9,14.55,5.6,21.76,2.95.54-.2,1.01-.87,1.39-1.3.64-.74,1.22-1.53,1.83-2.3.42-.53.81-1.02,1.14-1.46,2.65-3.54,5.42-7.01,7.94-10.62.04-.06.06-.13.03-.19l-1.27-4.23c-.04-.14,0-.25.14-.32,3.34-1.79,6.42-3.88,9.26-6.26,1.36-1.14,2.58-2.33,3.63-3.55,2.9-3.34,5.29-7.02,7.17-11.02.46-.97.85-2.05,1.26-3.09.1-.25.12-.8.46-.89.69-.18,1.38-.38,2.06-.57,2.21-.62,4.3-1.52,6.27-2.69,4.47-2.66,7.5-6.4,9.1-11.24.49-1.46,1.27-6.06,1.8-9.78,3-.05,14.42-.92,19.19-11.23.55.37.98.64,1.08.68.49.18,1,.25,1.54.18,1.03-.14,2.28-.76,3.74-1.92,1.94-1.54,3.26-2.96,3.96-4.21.49-.87.68-1.68.58-2.39Zm-99.13,20.18c-.35.43-.9.86-1.65,1.28-.05-.31-.03-.66-.02-1.08,0-.13,0-.26.02-.5,0-.21-.25-.53-.56-.7-.32-.18-.58-.14-.58.06,0,.12,0,.31,0,.5-.03,1.14-.05,1.77.86,2.93.97,1.24,2.01,2.7,2.22,3.9.22,1.18-.38,2.14-2.63,2.44-.07.02-.12.04-.14.09-.54,1.07-1.07,1.94-1.58,2.57-.51.64-1.01,1.06-1.49,1.26-.21.09-.42.12-.62.1-.48-.04-.94-.38-1.38-1.02-.18-.24-.51-.46-.75-.48-.06,0-.12,0-.15.02-1.44.52-2.57.59-3.43.27-.66-.25-1.2-.86-1.62-1.79-.1-.23-.42-.5-.7-.58-.08-.02-.14-.03-.19-.02-.2.02-.39.02-.58.02-1.07,0-1.79-.26-2.18-.68-.37-.39-.56-.98-.59-1.68-.03-.78.16-1.68.58-2.62,1.24-2.83,4.47-6.06,9.66-7.9.18-.06.14-.34-.12-.62-.26-.27-.62-.44-.82-.38-.46.17-.91.34-1.34.54-.34-1.3,0-1.94.87-2.07.5-.07,1.18,0,1.99.22.02,0,.04,0,.06.02.49.13,1.02.3,1.58.52.52.19,1.08.42,1.66.68,1.67.74,2.88,1.47,3.54,2.19.34.37.53.74.57,1.13.05.45-.1.9-.48,1.37Zm5.85-5.99c-.75.63-1.67,1.9-2.83,1.92-.06,0-.07-.02-.04-.06.35-.46.58-.91.71-1.33.3-1.01-.38-2.17-1.7-1.86-.97.22-1.98,1.15-2.7,1.83-.02.02-.07.02-.1-.02-.44-.55-.73-.9-.86-1.02-.84-.86-3.3-2.82-4.5-2.69-.05,0-.06,0-.02-.05.29-.34.58-.69.89-1.02.08-.08.2-.1.36-.06.83.22,1.59.58,2.26,1.11.05.04.12.02.15-.02.68-1.07,1.48-1.95,2.36-2.92.29-.32.66-.65,1.08-.48.84.32,1.42.89,1.72,1.7.03.08.08.13.15.15.04,0,.07,0,.08-.05.34-2.16-1.71-3.44-3.52-4.13-.08-.03-.08-.06,0-.08,1.5-.38,4.5-.63,5.44.87.48.76.25,1.53-.15,2.27-.05.08-.02.18.07.22,2.73,1.54,3.46,3.77,1.14,5.71Zm9.29-3.53c-.29.48-.6.94-.94,1.38,0,0-.02.02-.02.02,0,0-.02,0-.02,0-.02,0-.02-.02,0-.03.94-1.56,1.54-3.74.98-5.53-.26-.83-.91-2.27-1.66-2.88-.07-.06-.09-.06-.04.03.54.93.61,2.32.41,3.28-.5,2.36-1.77,4.26-3.79,5.69-.65.46-1.33.87-2.04,1.23-.1.06-.13.03-.07-.07,1-1.79.94-3.52-.17-5.19-.02-.03-.02-.07,0-.11.28-.42.63-.85.82-1.27.74-1.68.34-3.13-.69-4.58-.02-.05-.02-.08.02-.11.98-.73,2.05-1.6,3.14-2,1.84-.66,3.46.9,4.32,2.4,1.38,2.44,1.18,5.4-.25,7.76Zm9.87,18.15s-.05.04-.06.02c-.38-.45-.96-.95-1.25-1.23-1.61-1.58-3.26-3.1-4.95-4.58-.13-.11-.21-.22-.22-.4-.03-2.46-.15-4.91-.36-7.34,0-.08.02-.16.07-.22,4.76-5.24,4.1-14.29-1.48-18.72-.03-.03-.06-.07-.06-.12-.19-2.13-.4-4.26-.63-6.39-.02-.22.06-.35.22-.47,2.87-2.11,5.94-3.76,9.14-5.3.06-.02.09-.02.11.04.94,2.32,1.76,4.52,2.42,6.91.87,3.13,1.5,5.9,1.9,8.33.74,4.54.76,9.26.03,14.2-.35,2.41-.87,4.62-1.55,6.66-.98,2.93-2.1,5.82-3.34,8.64Zm-6.66,43.18c-.02.18-.05.18-.08,0-.38-2.13-.99-4.31-1.86-6.54h0s0,0,0,0c1.82,1.5,2.22,4.46,1.93,6.55Zm4.78-3.38c-1.17-.69-2.41-1.25-3.72-1.68-.12-.04-.2-.12-.24-.25-1.72-5.17-7.42-8.02-12.65-7.22,0,0-.02,0-.02-.02,0,0,0-.02,0-.02,4.54-1.79,9.14-.29,12.73,2.77,1.98,1.7,3.3,3.81,3.98,6.35,0,.05-.05.1-.09.06Zm-2.18-10.16c-.17.14-.33.3-.46.47-.05.06-.14.07-.21.02-1.38-1.32-3.02-2.14-4.92-2.47-.1-.02-.1-.06-.02-.1,2.51-1.71,4.74-3.74,6.81-5.97.92-.99,1.79-2.06,2.62-3.2,1.8-2.5,3.28-5.11,4.45-7.86.02-.05.06-.06.1-.03l.04.03s.02.02.02.04c-.06.19-.09.47-.1.84-.14,3.06-1.02,6.27-2.69,8.92,0,0,0,.02,0,.02,0,.02,0,.02.02.03.02,0,.03,0,.05,0,.58-.66,1.18-1.21,1.81-1.62,2.16-1.44,3.86-2.59,5.39-4.39.13-.16.16-.14.07.05-.37.86-.74,1.76-1.17,2.54-1.86,3.39-4.6,6.51-7.42,8.99-.86.76-2.32,1.99-4.37,3.7Zm21.82-9.85c-2.42,4.35-5.68,8.28-9.49,11.47-2.07,1.74-4.26,3.34-6.54,4.78-.03.02-.09,0-.1-.04-.2-.7-.46-1.33-.74-2.01-.02-.04,0-.08.02-.11.08-.1.18-.18.27-.25,1.82-1.22,3.55-2.52,5.22-3.93,4.8-4.05,8.18-8.94,10.81-14.69.02-.05.06-.07.1-.06.9.06,1.78.04,2.68-.05.02,0,.04.02.03.04-.71,1.64-1.3,3.1-2.27,4.84Zm23.41-29.38c-2.08,15.65-12.6,17.86-12.75,17.9.1-.07.2-.14.3-.21-.84.38-1.73.71-2.7.98-4.57,1.24-9.15,1.18-13.76-.21-3.28-.98-5.99-2.37-8.77-4.06-.02-.02-.03-.05-.02-.07.83-1.55,1.63-3.12,2.4-4.71,2.1-4.36,3.52-9.1,4.33-13.86.14-.86.42-2.25.51-3.33.22-2.57.22-5.22,0-7.95-.18-2.14-.31-3.5-.42-4.09-1.34-7.23-3.15-14.01-5.82-20.72-.02-.05-.07-.08-.13-.06-3.74,1.06-7.1,2.23-10.69,4.34-2.18,1.29-4.22,2.73-6.11,4.32,0,.02-.02.02-.04,0,0,0,0-.03,0-.04.1-.1.22-.24.38-.4,2.1-2.33,4.52-4.36,7.23-5.94,5.42-3.15,11.75-4.94,18.06-5.36,2.91-.27,5.82-.38,8.74-.33,4.55.07,9.02.52,13.31,2.06.2.08.23.22.25.28,0,0,0,0,0,.02.21.69,7.78,25.9,5.7,41.45Zm11.24-22.36c.93,2.27,2.12,3.54,3.72,3.77.04,0,.07,0,.1,0-.13,1.15.16,2.16.73,2.94,0,0,.02.02.02.04.47.62,1.1,1.11,1.83,1.43-1.14.98-2.52,1.02-3.81.5-.02,0-.03-.02-.04-.02-.04,0-.07-.02-.1-.04-1.02-.46-2.02-1.28-2.77-2.26-.81-1.05-1.34-2.26-1.38-3.38-.04-1.18.44-2.25,1.69-2.97Zm-6.61,8.49c.71-.07,3.28-.93,3.28-.93l1.57.71s-1.78.14-2.42.71c-.64.58-.64,3.99-.78,4.06-.14.07-2.35-4.49-1.64-4.56Zm14.54,4.46l-1.24.25s-5.42,4.98-12.78,5.05c0,0-.53-2.13-.62-3.59,0,0,1.86,1.52,2.13,2.07.26.54,1.86-.79,1.15-2.43-.71-1.65.26-3.83,2.93-2.56,2.66,1.28,3.28,2.56,3.99,2.01.7-.54-3.55-2.8-3.55-2.8,0,0,4.52,1.04,6.74,1.04s1.24.97,1.24.97Zm11.6-8.48c-.6.98-1.75,2.1-3.47,3.3-1.26.88-2.33,1.34-3.18,1.43-.32.02-.59,0-.8-.07-.1-.04-.22-.12-.32-.24-.02-.02-.03-.03-.05-.05-.02-.02-.03-.06-.06-.08-.3-.41-.52-1-.66-1.77,0-.04-.02-.08-.06-.13.98-.44,1.94-1.22,2.72-2.44.08-.11-.1-.35-.39-.53-.3-.18-.59-.22-.67-.1-1.14,1.74-2.6,2.57-3.94,2.72-.28.03-.54.03-.79,0-.02,0-.05,0-.07,0-.22-.02-.42-.07-.62-.14-.32-.11-.59-.3-.81-.55,0,0-.02-.02-.02-.02-.52-.62-.72-1.54-.41-2.63,1.1-.32,2.36-1.19,3.82-2.64.1-.1-.05-.34-.34-.53-.29-.18-.6-.25-.7-.14-1.47,1.46-2.68,2.31-3.69,2.59-.06,0-.1,0-.13.03-.3.07-.59.09-.86.05-.79-.12-1.5-1.09-2.2-2.86,0-.02,0-.02,0-.03-.03-.06-.06-.13-.08-.2,1.7-2.29,2.59-4.02,4.06-4.85.85-.48,1.62-.7,2.3-.68.46.02.85.19,1.15.51.42.44,1.52,1.27,1.78,2.18.06.18.34.42.64.53.12.04.22.06.3.06,1.18-.06,1.99.18,2.56.64.67.54,1.16,1.42,1.54,2.5.06.18.36.42.66.52.05.02.1.02.14.03,1.07.22,1.86.49,2.37.81.41.26.66.62.74,1.04.1.51-.05,1.1-.44,1.75Z"/>
    <path class="cls-1" d="m207.84,357.92s.04-.06.02-.07c-.01.04-.02.07-.02.07Z"/>
    <path class="cls-1" d="m213.08,368.11c-.18.72-.22,1.5-1.2,1.52-1.28.04-1.76-2.01-1.77-2.98,0-.03.02-.06.06-.06h.59s.09-.04.1-.08c.25-.61.25-1.22-.12-1.75-.1-.14-.06-.33.07-.42.15-.1.32-.17.5-.18.16-.02.22-.1.18-.26-.24-1-.94-4.56-2.64-3.93-.14.06-.31.24-.51.56-.62,1.02-.68,1.9-.89,2.98-.39-1.37-.48-2.74-.26-4.09.09-.57.11-.99.5-1.61.43-.7,1.7-.95,2.5-.46.82.51,1.38,1.23,1.72,2.1.44,1.13.74,2.34.88,3.62.18,1.68.28,3.36.28,5.04Z"/>
    <path class="cls-1" d="m201.57,368.57c0,.11-.03.33-.09.64-.17,1.26-1.55,1.74-2.58,1.36-1.29-.47-1.9-2.49-1.98-3.71,0-.05.04-.09.1-.09.42.06,1.04.24,1.14-.4.05-.26.05-.52.02-.78-.03-.3-.3-.45-.34-.66-.1-.62.39-.71.86-.61.06.02.13-.05.1-.11-.41-1.42-1-3.59-2.49-4.26-2.26-1.01-3.14,2.5-3.17,3.94-.02.69-.05,1.21-.1,1.55-.02-.02-.05-.06-.06-.1-.58-1.58-.85-3.22-.81-4.94.03-1.17.33-2.55.93-3.14,1.37-1.34,3.73-1.18,5.4.56,0,0,1.16,1.67,1.5,2.66.93,2.63,1.53,5.34,1.55,8.1Z"/>
    <path class="cls-1" d="m213.56,378.27c0,1.22-.21,2.35-.66,3.38-.6,1.38-1.54,2.1-2.88,2.7-.09.04-.15.11-.18.2-.6,1.79-1.43,3.46-2.51,5.01-.03.05-.03.11,0,.17.3.59.66,1.2.87,1.81.37,1.03.63,2.09.81,3.17,0,.05-.06.08-.09.03l-1.06-1.57s-.06-.04-.11-.02c-1.21.71-2.26,1.15-3.68,1.34h-.04s-.06,0-.08-.02c-.03-.02-.04-.06-.02-.1.12-.18.17-.43.14-.74-.27-2.46-.91-5.55-2.58-7.49-.1-.11-.2-.21-.31-.29,1.33.14,2.7.17,3.93-.07.62-.13,1.25-1.21,1.69-1.87.02-.03.02-.05-.02-.04-2.94.24-5.74-.07-8.39-.92-.56-.18-1.22-.49-1.98-.92-.1-.06-.26-.23-.42-.31-.06-.03-.09,0-.07.06.32,1.9,1.1,3.31,2.94,3.71l.99,3.19c.1.34.03.38-.22.14-1.07-.99-2.25-1.93-3.13-3.07-.41-.52-1.12-1.51-1.56-2.52-.06-.13-.1-.13-.1.02-.04.5-.06,1.02-.09,1.57-.1,2.45.35,4.78,1.37,6.97.14.3.3.58.46.83.27.41.48.65.62.74.33.19.62.42.9.7-2.3-.58-4.37-1.46-5.14-3.92-.83-2.65-.61-5.74-.05-8.48.19-.92.47-1.79.82-2.61.06-.11.02-.14-.08-.07-.9.55-1.41,1.2-2.08,2.06-.05.06-.07.06-.06-.02.09-1.24.54-2.26,1.34-3.09,1.16-1.19,3.3-1.91,4.9-1.15.78.38,1.22.9,1.37,1.61.09.47.04.49-.16.05-.1-.23-.3-.45-.61-.64-.95-.63-2.32-.28-3.16.39-.14.11-.25.25-.32.39,0,.04,0,.08.03.1,3.72,2.26,7.34,3.66,11.77,3.6,1.17-.02,2.47-.15,3.54-.67,1.54-.74,1.72-3.31,1.02-4.65-.08-.14-.2-.2-.36-.16-.54.14-.92.6-1.31.96-.13.1-.18.08-.15-.08.18-1.15,1.03-2.57,2.4-2.38,1.38.19,1.76,1.81,1.77,2.97Z"/>
    <path class="cls-1" d="m195.56,398.44c2.38,1.46,5.88,1.39,8.36.27.13-.06.25-.13.36-.22.07-.05.06-.07-.02-.05-2.98.61-5.81.24-8.49-1.1-1.17-.59-2.64-1.68-3.25-2.91-.03-.05-.04-.05-.05,0,0,.08,0,.16.03.23.62,1.65,1.64,2.9,3.05,3.77h0Z"/>
    <path class="cls-1" d="m151.84,444.21c1.65,1.64,4.79,1.17,7.01-1.06,2.21-2.23,2.67-5.37,1.01-7.01-1.65-1.64-4.79-1.17-7.01,1.06-2.21,2.23-2.67,5.37-1.01,7.01h0Z"/>
    <path class="cls-1" d="m146.73,390.23c.1-.17-.09-.52-.43-.78-.34-.26-.7-.33-.8-.15l-2.44,4.14c-.1.17.1.5.43.75.34.25.69.32.79.15l2.46-4.12h0Z"/>
    <path class="cls-1" d="m143.99,389c.1-.17-.1-.52-.44-.78-.34-.26-.7-.33-.8-.15l-2.39,4.17c-.1.17.1.51.44.76.34.25.69.32.79.15l2.41-4.15h0Z"/>
    <path class="cls-1" d="m148.03,406.35s-.07-.03-.11-.03c.04.01.07.02.11.03Z"/>
    <path class="cls-1" d="m148.56,383.16c-.05-.04-.11-.07-.17-.1.06.03.11.07.17.1Z"/>
    <path class="cls-1" d="m242.37,365.21c.59.53.71,1.43,1.25,2.02.89.97,2.53.72,3.6,1.49.15.11.29.24.36.41.2.47-.18.98-.57,1.31-.53.45-1.14.8-1.8,1.04-.35.13-.73.22-1.09.15s-.71-.36-.74-.73c-.02-.25.09-.49.13-.74.1-.65-.33-1.27-.79-1.74s-.99-.93-1.18-1.57c-.15-.51-.08-1.13-.45-1.52-.47-.48.43-.88,1.28-.12Z"/>
    <path class="cls-1" d="m162.93,433.89c1.16,1.2,2.66,3.75-.05,8.63-.12.22-.46.09-.4-.15.43-1.91.97-5.44.07-8.29-.08-.24.21-.37.38-.19Z"/>
    <path class="cls-1" d="m149.31,393.81c0-.07.1-.1.13-.04.35.61,1.22,2.32.69,3.05-.66.9-1.47.57-1.72.9-.16.22-.61,1.04-.89,1.57-.04.08-.08.01-.14-.05-.54-.58-.72-1.55-.04-2.72.23-.4,1.52-.49,1.52-1.14l.46-1.58Z"/>
    <path class="cls-1" d="m197.67,353.54s-6.94-5-9.11,2.61c0,0-2-6.44,2.67-6.78s6.44,4.17,6.44,4.17Z"/>
    <path class="cls-1" d="m211.41,354.11s-1.04-2.09-2.82-2.05c-1.78.04-2.87,1.95-2.87,1.95,0,0-.22-3.75,2.45-3.76,2.66-.01,3.25,3.86,3.25,3.86Z"/>
  </g>
  <g>
    <g>
      <path class="cls-1" d="m282.4,401.57c-.26-1.38-.79-2.56-1.58-3.54-.79-.98-1.84-1.75-3.14-2.29-1.3-.55-2.82-.82-4.56-.82h-28.75l-14.26-.06,1.75,1.02c1.32.76,2.28,1.79,2.89,3.11.58,1.26.73,2.59.48,3.99l-.87,4.2-.23,1.1h0s-3.35,16.13-3.35,16.13h0l-2.1,10.13h7.64l14.26.06-1.75-1.02c-1.32-.75-2.28-1.79-2.89-3.11-.58-1.27-.73-2.61-.48-4.01l.42-2.05h21.11c1.74,0,3.36-.27,4.87-.82,1.51-.55,2.87-1.31,4.07-2.29,1.21-.98,2.24-2.16,3.08-3.54.85-1.38,1.44-2.91,1.78-4.61l1.47-6.96c.34-1.7.38-3.24.11-4.61Zm-14.6,7.16l-.45,1.87c-.15.76-.51,1.36-1.08,1.81-.57.45-1.23.68-1.98.68h-16.05l.77-3.71.68-3.14h16.07c.75,0,1.32.23,1.7.68.38.45.49,1.06.34,1.81Z"/>
      <path class="cls-1" d="m326.63,430.46c-.59-1.28-.74-2.64-.47-4.06l.48-2.3.62-2.92-.02.02,2.51-12.14c.45-2.11.51-4.04.17-5.77-.34-1.74-1.01-3.23-2.01-4.47-1-1.25-2.32-2.21-3.96-2.89-.2-.08-.42-.15-.63-.22-1.15-.53-2.35-.8-3.58-.8h-28.36l-1.24,6.11c-.3,1.59-.07,2.85.71,3.79.77.94,1.95,1.42,3.54,1.42h20.86l-.68,3.3c-.21,0-.42-.02-.65-.02h-18.45c-1.62,0-3.14.25-4.56.76-1.42.51-2.69,1.23-3.82,2.15-1.13.92-2.09,2.06-2.89,3.4-.79,1.34-1.36,2.84-1.7,4.5-.45,2.11-.51,4.05-.17,5.8.34,1.75,1.02,3.25,2.04,4.5,1.02,1.25,2.35,2.21,3.99,2.89,1.64.68,3.56,1.02,5.74,1.02h3.23c2.72,0,5.39-.61,8.01-1.84,1.79-.84,3.47-1.84,5.04-2.98l-1,4.82h7.64l14.26.06-1.75-1.02c-1.32-.75-2.28-1.79-2.89-3.11Zm-27.73-7.24c-.57,0-.99-.17-1.27-.51-.28-.34-.37-.79-.25-1.36v-.06c.11-.57.39-1.02.82-1.36.43-.34.93-.51,1.5-.51h12.73l-.4,1.87c-.11.57-.39,1.03-.82,1.39-.43.36-.95.54-1.56.54h-10.75Z"/>
      <path class="cls-1" d="m372.36,394.92c-4.64,0-9.03.73-13.16,2.18-1.22.43-2.41.92-3.55,1.46l.75-3.64h-7.64l-14.26-.06,1.75,1.02c1.32.76,2.28,1.79,2.89,3.11.58,1.27.73,2.6.48,4.01l-.77,3.72-.33,1.56h0s-5.44,26.26-5.44,26.26h15.11l4.84-23.34c.35-1.47,1.06-2.66,2.15-3.57,1.11-.92,2.46-1.39,4.05-1.39h18.17l2.26-11.32h-7.3Z"/>
      <path class="cls-1" d="m403.89,406.24c2.04,0,3.8-.6,5.29-1.81,1.49-1.21,2.44-2.83,2.86-4.87l.96-4.64h-10.28l1-4.81h-15.11l-1,4.81h-5.68l-2.32,11.32h5.66l-3.68,17.77c-.34,1.58-.39,3.03-.14,4.33.24,1.3.74,2.41,1.5,3.31.75.91,1.73,1.61,2.94,2.12,1.21.51,2.62.76,4.24.76h15.56l2.38-11.32h-11.23l3.53-16.98h3.52Z"/>
      <path class="cls-1" d="m427.55,394.92c-1.47,0-2.87.24-4.19.71-1.32.47-2.5,1.13-3.54,1.98-1.04.85-1.92,1.87-2.66,3.06-.74,1.19-1.26,2.5-1.56,3.93l-.79,3.85c-.3,1.43-.34,2.77-.11,4.02.23,1.25.68,2.33,1.36,3.25.68.93,1.57,1.69,2.69,2.29,1.11.6,2.41.98,3.88,1.13l17.66,1.75c.75.08,1.06.47.91,1.19-.08.34-.24.61-.48.82-.25.21-.54.31-.88.31h-21.23c-2.04,0-3.81.6-5.32,1.81-1.51,1.21-2.47,2.83-2.89,4.87l-.96,4.64h33.28c1.47,0,2.87-.24,4.19-.71,1.32-.47,2.5-1.13,3.54-1.98,1.04-.85,1.91-1.87,2.63-3.06.72-1.19,1.23-2.5,1.53-3.93l.79-3.91c.3-1.43.34-2.77.11-4.02-.23-1.25-.69-2.33-1.39-3.25-.7-.92-1.6-1.69-2.72-2.29-1.11-.6-2.41-.98-3.88-1.13l-16.53-1.75c-.72-.08-1-.47-.85-1.19.19-.72.64-1.08,1.36-1.08h18.51c2.04,0,3.8-.6,5.29-1.81,1.49-1.21,2.44-2.83,2.86-4.87l.96-4.64h-31.58Z"/>
    </g>
    <g>
      <path class="cls-1" d="m524.05,430.46c-.58-1.27-.73-2.61-.48-4.01l.75-3.61.35-1.66h0s5.44-26.26,5.44-26.26h-22.02l-14.58,22.77-5.86-22.77h-27.39l1.75.96c1.32.76,2.28,1.79,2.89,3.11.58,1.27.73,2.6.48,4.01l-.77,3.72-.33,1.56h0s-5.44,26.26-5.44,26.26h15.11l3.91-18.9,4.86,18.9h15.11l13.22-20.66-4.28,20.66h7.64l14.26.06-1.75-1.02c-1.32-.75-2.28-1.79-2.89-3.11Z"/>
      <path class="cls-1" d="m581.27,409.01c.45-2.11.51-4.04.17-5.77-.34-1.74-1.01-3.22-2.01-4.44-1-1.23-2.32-2.18-3.96-2.86-1.64-.68-3.54-1.02-5.69-1.02h-20.04c-2.15,0-4.19.34-6.11,1.02-1.92.68-3.65,1.63-5.18,2.86-1.53,1.23-2.81,2.71-3.85,4.44-1.04,1.74-1.78,3.66-2.24,5.77l-2.32,11.43c-.45,2.11-.51,4.04-.17,5.77.34,1.74,1.01,3.22,2.01,4.44,1,1.23,2.32,2.18,3.96,2.86,1.64.68,3.54,1.02,5.69,1.02h20.04c2.15,0,4.19-.34,6.11-1.02s3.65-1.63,5.18-2.86c1.53-1.23,2.81-2.71,3.85-4.44,1.04-1.74,1.78-3.66,2.24-5.77l2.32-11.43Zm-15.62,2.26l-1.41,6.91c-.34,1.51-1.07,2.73-2.18,3.65-1.11.93-2.46,1.39-4.05,1.39h-8.32c-1.58,0-2.74-.46-3.48-1.39-.74-.92-.93-2.14-.59-3.65l1.41-6.91c.34-1.51,1.07-2.73,2.18-3.65,1.11-.92,2.46-1.39,4.05-1.39h8.32c1.58,0,2.74.46,3.48,1.39.74.93.93,2.14.59,3.65Z"/>
      <path class="cls-1" d="m610.61,394.92l-14.26-.06,1.75,1.02c1.32.76,2.28,1.79,2.89,3.11.58,1.27.73,2.61.48,4.01l-.75,3.64-.34,1.63h0s-3.1,14.94-3.1,14.94h-16.21l-2.38,11.32h22.41c1.36,0,2.63-.21,3.82-.62,1.19-.41,2.24-1.01,3.17-1.78.92-.77,1.72-1.7,2.38-2.77.66-1.07,1.12-2.27,1.39-3.59l6.4-30.85h-7.64Z"/>
      <path class="cls-1" d="m668.57,403.24c-.34-1.74-1.01-3.22-2.01-4.44-1-1.23-2.32-2.18-3.96-2.86-1.64-.68-3.54-1.02-5.69-1.02h-20.04c-2.15,0-4.19.34-6.11,1.02-1.92.68-3.65,1.63-5.18,2.86-1.53,1.23-2.81,2.71-3.85,4.44-1.04,1.74-1.78,3.66-2.24,5.77l-2.32,11.43c-.45,2.11-.51,4.04-.17,5.77.34,1.74,1.01,3.22,2.01,4.44,1,1.23,2.32,2.18,3.96,2.86,1.64.68,3.54,1.02,5.69,1.02h20.04c2.15,0,4.19-.34,6.11-1.02s3.65-1.63,5.18-2.86c1.53-1.23,2.81-2.71,3.85-4.44,1.04-1.74,1.78-3.66,2.24-5.77l2.32-11.43c.45-2.11.51-4.04.17-5.77Zm-15.79,8.04l-1.41,6.91c-.34,1.51-1.07,2.73-2.18,3.65-1.11.93-2.46,1.39-4.05,1.39h-8.32c-1.58,0-2.74-.46-3.48-1.39-.74-.92-.93-2.14-.59-3.65l1.41-6.91c.34-1.51,1.07-2.73,2.18-3.65,1.11-.92,2.46-1.39,4.05-1.39h8.32c1.58,0,2.74.46,3.48,1.39.74.93.93,2.14.59,3.65Z"/>
    </g>
  </g>
</svg>