<?xml version="1.0" encoding="UTF-8"?>
<svg id="Layer_1" data-name="Layer 1" xmlns="http://www.w3.org/2000/svg" viewBox="0 0 800 800">
  <defs>
    <style>
      .cls-1 {
        fill: #231f20;
      }
    </style>
  </defs>
  <g>
    <g>
      <path class="cls-1" d="m399.3,356.1c-.38-1.99-1.14-3.69-2.29-5.11-1.14-1.42-2.66-2.52-4.54-3.31-1.88-.79-4.08-1.19-6.58-1.19h-41.53l-20.6-.08,2.53,1.47c1.91,1.09,3.3,2.59,4.17,4.5.8,1.74,1.04,3.58.74,5.51l-1.28,6.19-.36,1.71h0s-4.83,23.3-4.83,23.3h0l-3.03,14.63h11.04l20.6.08-2.53-1.47c-1.91-1.09-3.3-2.59-4.17-4.5-.8-1.76-1.04-3.61-.74-5.55l.66-3.2h30.49c2.51,0,4.85-.39,7.03-1.19,2.18-.79,4.14-1.89,5.89-3.31,1.74-1.42,3.23-3.12,4.46-5.11,1.23-1.99,2.09-4.21,2.58-6.66l2.13-10.06c.49-2.45.54-4.67.16-6.66Zm-21.09,10.34l-.65,2.7c-.22,1.09-.74,1.96-1.55,2.62-.82.65-1.77.98-2.86.98h-23.18l1.11-5.35.98-4.54h23.22c1.09,0,1.91.33,2.45.98.54.65.71,1.53.49,2.62Z"/>
      <path class="cls-1" d="m463.18,397.83c-.82-1.8-1.06-3.69-.72-5.69l.73-3.53.89-4.19-.03.03,3.62-17.53c.65-3.05.74-5.83.25-8.34-.49-2.51-1.46-4.66-2.9-6.46-1.44-1.8-3.35-3.19-5.72-4.17-.29-.12-.61-.21-.91-.32-1.66-.76-3.39-1.15-5.18-1.15h-40.96l-1.8,8.83c-.44,2.29-.1,4.12,1.02,5.48,1.12,1.36,2.82,2.04,5.11,2.04h30.13l-.99,4.77c-.31-.01-.61-.03-.94-.03h-26.65c-2.34,0-4.54.37-6.58,1.1-2.04.74-3.88,1.77-5.52,3.11-1.64,1.34-3.02,2.97-4.17,4.91-1.14,1.94-1.96,4.1-2.45,6.5-.65,3.05-.74,5.85-.25,8.38.49,2.53,1.47,4.7,2.94,6.5,1.47,1.8,3.39,3.19,5.76,4.17,2.37.98,5.14,1.47,8.3,1.47h4.66c3.92,0,7.78-.89,11.57-2.66,2.59-1.21,5.01-2.66,7.29-4.31l-1.44,6.96h11.04l20.6.08-2.53-1.47c-1.91-1.09-3.3-2.59-4.17-4.5Zm-40.06-10.47c-.82,0-1.43-.25-1.84-.74-.41-.49-.53-1.14-.37-1.96v-.08c.16-.82.56-1.47,1.19-1.96.63-.49,1.35-.74,2.17-.74h18.4l-.57,2.7c-.16.82-.56,1.49-1.19,2-.63.52-1.38.78-2.25.78h-15.53Z"/>
      <path class="cls-1" d="m529.24,346.49c-6.7,0-13.04,1.05-19.01,3.15-1.77.62-3.48,1.33-5.14,2.11l1.09-5.25h-11.04l-20.6-.08,2.53,1.47c1.91,1.09,3.3,2.59,4.17,4.5.8,1.76,1.04,3.61.74,5.55l-1.13,5.45-.51,2.41v-.02s-7.85,37.95-7.85,37.95h21.83l7-33.8c.51-2.09,1.54-3.78,3.1-5.08,1.61-1.34,3.56-2,5.85-2h26.24l3.27-16.35h-10.55Z"/>
      <path class="cls-1" d="m574.77,362.84c2.94,0,5.49-.87,7.64-2.62,2.15-1.74,3.53-4.09,4.13-7.03l1.39-6.7h-14.85l1.44-6.95h-21.83l-1.44,6.95h-8.21l-3.35,16.35h8.18l-5.31,25.67c-.49,2.29-.56,4.37-.2,6.25.35,1.88,1.08,3.47,2.17,4.78,1.09,1.31,2.51,2.33,4.25,3.07,1.74.74,3.79,1.1,6.13,1.1h22.48l3.43-16.35h-16.23l5.09-24.53h5.08Z"/>
      <path class="cls-1" d="m608.95,346.49c-2.13,0-4.14.34-6.05,1.02-1.91.68-3.61,1.63-5.11,2.86-1.5,1.23-2.78,2.7-3.84,4.41-1.06,1.72-1.81,3.61-2.25,5.68l-1.14,5.56c-.44,2.07-.49,4.01-.16,5.81.33,1.8.98,3.37,1.96,4.7.98,1.34,2.28,2.44,3.88,3.31,1.61.87,3.47,1.42,5.6,1.63l25.51,2.53c1.09.11,1.53.68,1.31,1.72-.11.49-.34.89-.7,1.19-.36.3-.78.45-1.27.45h-30.66c-2.94,0-5.51.87-7.69,2.62-2.18,1.74-3.57,4.09-4.17,7.03l-1.39,6.7h48.07c2.13,0,4.14-.34,6.05-1.02,1.91-.68,3.61-1.63,5.11-2.86,1.5-1.23,2.77-2.7,3.8-4.41,1.03-1.72,1.77-3.61,2.21-5.68l1.14-5.64c.44-2.07.49-4.01.16-5.8-.33-1.8-1-3.37-2-4.7-1.01-1.34-2.32-2.44-3.92-3.31-1.61-.87-3.48-1.42-5.6-1.63l-23.87-2.53c-1.04-.11-1.44-.68-1.23-1.72.27-1.03.93-1.55,1.96-1.55h26.74c2.94,0,5.49-.87,7.64-2.62,2.15-1.74,3.53-4.09,4.13-7.03l1.39-6.7h-45.62Z"/>
    </g>
    <g>
      <path class="cls-1" d="m369.62,471.42c-.8-1.75-1.05-3.6-.74-5.54l1.15-5.53.49-2.33v.02s7.85-37.95,7.85-37.95h-31.8l-21.06,32.9-8.46-32.9h-39.57l2.53,1.39c1.91,1.09,3.3,2.59,4.17,4.5.8,1.76,1.04,3.6.74,5.54l-1.15,5.57-.48,2.3v-.02s-7.85,37.95-7.85,37.95h21.83l5.65-27.3,7.02,27.3h21.83l19.1-29.84-6.18,29.84h11.04l20.6.08-2.53-1.47c-1.91-1.09-3.3-2.59-4.17-4.5Z"/>
      <path class="cls-1" d="m452.28,440.43c.65-3.05.74-5.83.25-8.34-.49-2.51-1.46-4.65-2.9-6.42-1.44-1.77-3.35-3.15-5.72-4.13-2.37-.98-5.11-1.47-8.22-1.47h-28.94c-3.11,0-6.05.49-8.83,1.47-2.78.98-5.27,2.36-7.48,4.13-2.21,1.77-4.06,3.91-5.56,6.42-1.5,2.51-2.58,5.29-3.23,8.34l-3.35,16.52c-.65,3.05-.74,5.83-.25,8.34.49,2.51,1.46,4.65,2.9,6.42,1.44,1.77,3.35,3.15,5.72,4.13,2.37.98,5.11,1.47,8.22,1.47h28.94c3.11,0,6.05-.49,8.83-1.47,2.78-.98,5.27-2.36,7.48-4.13,2.21-1.77,4.06-3.91,5.56-6.42,1.5-2.51,2.58-5.29,3.23-8.34l3.35-16.52Zm-22.57,3.27l-2.04,9.97c-.49,2.18-1.54,3.94-3.15,5.27-1.61,1.34-3.56,2-5.85,2h-12.02c-2.29,0-3.97-.67-5.03-2-1.06-1.34-1.35-3.09-.86-5.27l2.04-9.97c.49-2.18,1.54-3.94,3.15-5.27,1.61-1.34,3.56-2,5.85-2h12.02c2.29,0,3.97.67,5.03,2,1.06,1.34,1.35,3.09.86,5.27Z"/>
      <path class="cls-1" d="m494.64,420.07l-20.6-.08,2.53,1.47c1.91,1.09,3.3,2.59,4.17,4.5.8,1.76,1.04,3.6.74,5.54l-1.15,5.57-.48,2.3v-.02s-4.46,21.6-4.46,21.6h-23.42l-3.43,16.35h32.38c1.96,0,3.8-.3,5.52-.9,1.72-.6,3.24-1.46,4.58-2.58,1.33-1.12,2.48-2.45,3.43-4.01.95-1.55,1.62-3.28,2-5.19l9.24-44.56h-11.04Z"/>
      <path class="cls-1" d="m578.36,432.09c-.49-2.51-1.46-4.65-2.9-6.42-1.44-1.77-3.35-3.15-5.72-4.13-2.37-.98-5.11-1.47-8.22-1.47h-28.94c-3.11,0-6.05.49-8.83,1.47-2.78.98-5.27,2.36-7.48,4.13-2.21,1.77-4.06,3.91-5.56,6.42-1.5,2.51-2.58,5.29-3.23,8.34l-3.35,16.52c-.65,3.05-.74,5.83-.25,8.34.49,2.51,1.46,4.65,2.9,6.42,1.44,1.77,3.35,3.15,5.72,4.13,2.37.98,5.11,1.47,8.22,1.47h28.94c3.11,0,6.05-.49,8.83-1.47,2.78-.98,5.27-2.36,7.48-4.13,2.21-1.77,4.06-3.91,5.56-6.42,1.5-2.51,2.58-5.29,3.23-8.34l3.35-16.52c.65-3.05.74-5.83.25-8.34Zm-22.81,11.61l-2.04,9.97c-.49,2.18-1.54,3.94-3.15,5.27-1.61,1.34-3.56,2-5.85,2h-12.02c-2.29,0-3.97-.67-5.03-2-1.06-1.34-1.35-3.09-.86-5.27l2.04-9.97c.49-2.18,1.54-3.94,3.15-5.27,1.61-1.34,3.56-2,5.85-2h12.02c2.29,0,3.97.67,5.03,2,1.06,1.34,1.35,3.09.86,5.27Z"/>
    </g>
  </g>
  <g>
    <path class="cls-1" d="m317.87,355.99c-.19-1.2-.94-2.28-2.24-3.2-1.04-.73-2.4-1.32-4.07-1.72-.62-1.86-1.51-3.43-2.8-4.59-1.35-1.24-3-1.95-5.04-2.01-.42-1.31-.97-2.37-1.65-3.18-1.18-1.4-2.59-2.11-4.18-2.14-1.25-.02-2.63.44-4.1,1.4-2.42,1.57-5.12,4.47-7.95,8.68-.08.08-.07.23.05.43-.01.06-.02.08-.03.14-2.59,1.1-3.57,3.02-3.5,5.12.05,1.14.2,2.32.62,3.57-.64,1.56-2.5,3.39-7.7,3.31-.09-2.18-.21-4.43-.37-6.85-.55-8.55-3.35-18.26-5.45-26.57-.66-2.63-1.39-5.26-2.18-7.87-.13-.44-.21-1.03-.69-1.21-3.25-1.32-6.6-2.32-9.97-3.21-5.04-1.31-10.17-1.98-15.38-2.01-7.58-.05-14.85.75-22.12,2.91-7.44,2.2-14.43,5.32-20.6,9.73-3.63,2.61-7.05,5.48-10.24,8.6-.02.02-.03.05-.03.08.49,3.78.73,7.57.73,11.38,0,.07.32,6.47.32,6.47,0,0-7.11.43-12.43,4.03-6.06,4.11-11.49,11.56-13.28,13.95-.42.55-.88,1.04-1.33,1.55-.72-.09-1.36-.1-1.91-.02-2.17.34-2.85,2.07-1.42,5.72-6.58,3.17-10.75,7.73-12.5,11.8-.7,1.63-1.02,3.19-.96,4.58.07,1.49.61,2.84,1.62,3.93,1.38,1.49,3.37,2.38,6.02,2.39,1.04,1.8,2.44,3.06,4.26,3.73,1.65.62,3.63.61,5.95-.12,1.79,2.13,3.59,2.77,5.43,2.01,1.66-.69,3.4-2.81,5.22-6.33,4.03-.58,5.07-2.42,4.68-4.68-.42-2.32-2.32-5.04-4.1-7.3h0c1.66-.83,2.84-1.7,3.57-2.6.64-.77.92-1.57.92-2.39,1.33-1.16,3.5-2.48,5.82-3.71,4.14-2.18,9.35-2.28,9.35-2.23.08.49.29,6.45.31,6.84.13,2.46.27,4.91.43,7.37.01.28.1.49.25.65,5.45,5.34,10.61,10.98,15.68,16.68.29.32.59.61.9.88.05.02.06.09.02.14-1.39,2.17-2.8,4.35-4.23,6.52-1.78,2.69-4.13,5.63-7.03,8.79-2.62,2.88-5.54,5.57-8.76,8.08-.68.53-1.41,1.25-2.24,1.32-3.86.36-7.64.86-11.41,1.78-.16.03-.31.14-.45.3-.62.72-1.31,1.43-1.87,2.14-3.37,4.13-6.83,8.33-9.75,12.79-2.57,3.93-3.98,7.93-3.69,12.7.01.22.1.45.27.69,2.75,3.87,6.79,6.77,11.53,7.6,4.03.72,8.63-.25,11.56-3.24.1-.1.08-.12-.03-.05-2.33,1.29-4.56,2.23-7.43,2.14-4.62-.15-8.37-3.34-9.37-7.82-1.35-6,2.78-12.32,7.41-15.73,3.8-2.8,9.93-4.56,14.32-2.29,2.31,1.2,3.93,3.47,4.46,6.01.82,3.85-.35,7.56-2.36,10.9-1.7,2.82-3.73,5.63-6.14,7.9-.27.24-.23.3.1.17.97-.37,2.01-.74,3.11-1.11.91-.31,2.13-.99,3.62-2.05,2.08-1.47,4.45-3.11,6.62-4.06,2.43-1.05,4.97-1.63,7.65-1.74.08,0,.09.02.03.08-.79.77-1.42,1.65-1.93,2.63-.03.05-.08.08-.15.09-2.67.1-5.04.88-7.14,2.55-2.38,1.9-4.23,4.59-6.03,6.68-.87,1.01-1.92,1.83-3.14,2.46-.1.06-.09.08.01.09.42.02.82.02,1.21,0,1.7-.1,3.41-.21,5.12-.34.07,0,.07.01,0,.02-3.64,1.12-7.64,2.22-11.49,1.83-.09-.01-.1.01-.03.07.14.09.35.12.47.18,1.7.89,3.29,1.74,5.11,2.38.16.06.16.1-.01.15-2.28.62-4.65,1.25-7.03,1.43-4.87.37-10.79-.29-15.09-2.84-.01,0-.02,0-.02.01l-.03.05s-.01.05.01.07c8.84,7.08,21.02,8.09,31.43,4.26.79-.29,1.46-1.26,2.01-1.88.92-1.06,1.77-2.21,2.65-3.33.61-.76,1.17-1.47,1.64-2.11,3.83-5.11,7.82-10.12,11.48-15.35.06-.09.08-.18.05-.28l-1.84-6.11c-.06-.21.01-.36.2-.46,4.82-2.59,9.27-5.6,13.38-9.05,1.96-1.65,3.72-3.36,5.25-5.13,4.19-4.83,7.64-10.15,10.35-15.92.66-1.4,1.23-2.96,1.81-4.46.14-.36.17-1.16.67-1.28.99-.27,1.99-.54,2.98-.82,3.19-.9,6.22-2.2,9.06-3.88,6.46-3.84,10.84-9.24,13.15-16.24.71-2.11,1.84-8.75,2.6-14.13,4.33-.07,20.82-1.33,27.72-16.22.8.53,1.42.92,1.56.98.71.27,1.44.36,2.22.25,1.49-.2,3.29-1.1,5.4-2.77,2.81-2.22,4.71-4.28,5.72-6.08.7-1.26.98-2.43.83-3.46Zm-143.19,29.14c-.51.62-1.29,1.25-2.38,1.85-.07-.45-.05-.95-.03-1.56.01-.18.01-.38.02-.72,0-.3-.36-.76-.81-1.01-.46-.25-.83-.21-.84.09,0,.17,0,.45-.01.72-.05,1.64-.07,2.55,1.25,4.23,1.4,1.79,2.9,3.91,3.21,5.64.31,1.71-.54,3.1-3.8,3.52-.1.02-.17.06-.2.13-.79,1.55-1.55,2.8-2.28,3.71-.74.92-1.46,1.53-2.15,1.83-.3.13-.6.17-.89.15-.69-.06-1.36-.54-2-1.47-.25-.35-.74-.67-1.09-.69-.09-.01-.17,0-.22.02-2.08.75-3.71.86-4.96.39-.96-.36-1.73-1.24-2.35-2.59-.15-.34-.6-.72-1.01-.84-.12-.02-.21-.05-.28-.03-.29.02-.57.03-.83.03-1.55,0-2.59-.37-3.15-.98-.53-.57-.81-1.41-.86-2.43-.05-1.13.23-2.43.83-3.79,1.79-4.09,6.46-8.76,13.95-11.41.27-.09.2-.5-.17-.89-.38-.39-.9-.64-1.18-.54-.67.24-1.32.5-1.94.77-.5-1.88.01-2.8,1.26-2.99.73-.1,1.7.01,2.88.32.03.01.06.01.08.02.71.18,1.47.44,2.29.75.75.28,1.56.61,2.4.98,2.42,1.06,4.16,2.13,5.12,3.17.49.53.76,1.07.82,1.63.07.65-.15,1.31-.69,1.98Zm8.45-8.66c-1.09.91-2.42,2.74-4.09,2.77-.08,0-.1-.03-.06-.09.51-.67.84-1.32,1.03-1.92.43-1.46-.55-3.13-2.46-2.68-1.4.32-2.87,1.66-3.91,2.65-.03.03-.1.03-.15-.02-.64-.8-1.05-1.29-1.24-1.48-1.21-1.24-4.77-4.07-6.49-3.88-.07.01-.09-.01-.03-.07.42-.5.84-.99,1.28-1.48.12-.12.29-.15.52-.09,1.2.31,2.3.84,3.27,1.61.07.06.17.03.22-.03.98-1.55,2.14-2.82,3.41-4.22.42-.46.95-.94,1.56-.69,1.21.46,2.05,1.28,2.48,2.46.05.12.12.18.22.22.06.01.1-.01.12-.07.5-3.12-2.47-4.97-5.08-5.96-.12-.05-.12-.08.01-.12,2.17-.54,6.49-.91,7.86,1.26.69,1.1.36,2.21-.22,3.28-.07.12-.02.25.1.31,3.94,2.22,5,5.44,1.65,8.25Zm13.42-5.1c-.42.69-.87,1.36-1.36,2-.01.01-.02.02-.02.02-.01,0-.02-.01-.02-.01-.02-.01-.03-.03-.01-.05,1.35-2.25,2.22-5.4,1.42-7.99-.37-1.2-1.32-3.28-2.4-4.16-.1-.09-.13-.08-.06.05.77,1.34.88,3.35.59,4.74-.73,3.41-2.55,6.15-5.48,8.22-.94.66-1.92,1.26-2.95,1.78-.15.08-.19.05-.1-.1,1.44-2.59,1.36-5.08-.24-7.5-.03-.05-.03-.1.01-.16.4-.6.91-1.23,1.18-1.84,1.06-2.43.5-4.52-.99-6.62-.03-.07-.03-.12.02-.16,1.42-1.05,2.96-2.31,4.54-2.89,2.66-.96,5,1.29,6.24,3.47,2,3.52,1.71,7.8-.36,11.21Zm14.26,26.22s-.07.06-.09.02c-.55-.65-1.39-1.38-1.8-1.78-2.32-2.28-4.7-4.48-7.15-6.62-.19-.16-.3-.31-.31-.58-.05-3.55-.22-7.1-.52-10.61-.01-.12.03-.23.1-.32,6.88-7.57,5.92-20.64-2.14-27.04-.05-.05-.08-.1-.08-.17-.28-3.07-.58-6.16-.91-9.23-.03-.32.09-.51.32-.68,4.15-3.05,8.57-5.43,13.2-7.66.08-.03.13-.02.16.06,1.35,3.35,2.54,6.53,3.5,9.98,1.26,4.52,2.17,8.53,2.74,12.03,1.07,6.55,1.1,13.38.05,20.51-.51,3.48-1.26,6.68-2.24,9.61-1.42,4.23-3.03,8.4-4.82,12.48Zm-9.61,62.37c-.03.27-.07.27-.12,0-.54-3.07-1.43-6.23-2.68-9.45h0s.01-.01.01-.01c2.63,2.17,3.21,6.44,2.79,9.46Zm6.91-4.88c-1.69-.99-3.48-1.8-5.37-2.43-.17-.06-.29-.17-.35-.36-2.48-7.47-10.72-11.59-18.27-10.42-.01,0-.02-.01-.02-.02-.01-.01,0-.02.01-.03,6.55-2.59,13.21-.42,18.39,4,2.87,2.45,4.77,5.5,5.74,9.18.01.07-.07.14-.13.09Zm-3.15-14.68c-.24.21-.47.44-.67.68-.07.09-.21.1-.3.02-2-1.91-4.37-3.1-7.11-3.57-.14-.02-.15-.08-.03-.15,3.63-2.47,6.84-5.41,9.83-8.62,1.33-1.43,2.59-2.97,3.79-4.62,2.6-3.61,4.74-7.38,6.43-11.36.02-.07.08-.09.15-.05l.06.05s.02.03.02.06c-.08.28-.13.68-.15,1.21-.2,4.43-1.48,9.06-3.88,12.88-.01.01-.01.02-.01.03,0,.02.01.03.02.05.02.01.05.01.07-.01.83-.96,1.7-1.74,2.61-2.35,3.12-2.08,5.58-3.74,7.79-6.34.18-.23.23-.21.1.07-.53,1.24-1.06,2.54-1.69,3.67-2.68,4.9-6.64,9.41-10.72,12.99-1.25,1.1-3.35,2.88-6.31,5.35Zm31.51-14.23c-3.49,6.29-8.2,11.96-13.71,16.57-2.99,2.52-6.15,4.82-9.45,6.91-.05.03-.13,0-.14-.06-.29-1.02-.66-1.92-1.07-2.9-.02-.06-.01-.12.03-.16.12-.14.25-.25.39-.36,2.62-1.76,5.13-3.64,7.55-5.67,6.93-5.85,11.81-12.92,15.61-21.22.03-.07.08-.1.15-.09,1.29.08,2.58.06,3.87-.07.03-.01.06.02.05.06-1.03,2.37-1.88,4.48-3.28,6.99Zm33.81-42.45c-3,22.6-18.2,25.79-18.42,25.86.15-.1.29-.2.43-.3-1.21.55-2.5,1.03-3.89,1.41-6.6,1.79-13.22,1.7-19.88-.3-4.74-1.42-8.66-3.42-12.67-5.87-.03-.02-.05-.07-.03-.1,1.2-2.24,2.36-4.51,3.47-6.81,3.04-6.3,5.08-13.14,6.25-20.03.21-1.24.6-3.25.74-4.81.32-3.71.32-7.55,0-11.49-.25-3.09-.45-5.05-.61-5.91-1.93-10.45-4.55-20.23-8.41-29.93-.02-.07-.1-.12-.18-.09-5.41,1.54-10.26,3.22-15.44,6.27-3.15,1.86-6.09,3.94-8.83,6.24-.01.02-.03.02-.06,0-.01-.01-.01-.05,0-.06.14-.15.32-.35.54-.58,3.04-3.36,6.53-6.3,10.45-8.57,7.84-4.55,16.98-7.13,26.09-7.74,4.21-.39,8.41-.54,12.63-.47,6.58.1,13.04.75,19.23,2.97.29.12.34.32.36.4,0,0,.01,0,.01.02.3.99,11.23,37.41,8.23,59.87Zm16.24-32.3c1.34,3.28,3.06,5.12,5.37,5.44.06,0,.1.01.15.01-.18,1.66.23,3.12,1.05,4.24.01.01.02.03.03.06.68.9,1.59,1.61,2.65,2.07-1.65,1.41-3.64,1.47-5.5.72-.02-.01-.05-.02-.06-.03-.06-.01-.1-.03-.15-.06-1.48-.66-2.91-1.85-4-3.27-1.17-1.51-1.93-3.26-1.99-4.89-.06-1.7.64-3.25,2.44-4.29Zm-9.55,12.26c1.03-.1,4.74-1.34,4.74-1.34l2.26,1.03s-2.58.21-3.5,1.03c-.92.83-.92,5.77-1.13,5.87-.21.1-3.4-6.48-2.37-6.59Zm21.01,6.44l-1.79.36s-7.82,7.2-18.45,7.29c0,0-.76-3.07-.89-5.19,0,0,2.68,2.2,3.07,2.99.38.79,2.68-1.14,1.66-3.51-1.03-2.38.38-5.54,4.23-3.7,3.84,1.85,4.74,3.7,5.77,2.9,1.02-.79-5.13-4.04-5.13-4.04,0,0,6.53,1.5,9.74,1.5s1.79,1.4,1.79,1.4Zm16.76-12.25c-.87,1.42-2.53,3.03-5.02,4.76-1.83,1.27-3.36,1.94-4.6,2.07-.46.03-.86.01-1.16-.1-.15-.06-.31-.17-.46-.35-.02-.02-.05-.05-.07-.07-.02-.03-.05-.08-.09-.12-.44-.59-.75-1.44-.95-2.55-.01-.06-.03-.12-.08-.18,1.41-.64,2.8-1.77,3.93-3.52.12-.16-.14-.51-.57-.76-.43-.25-.86-.32-.97-.15-1.64,2.52-3.76,3.71-5.7,3.93-.4.05-.79.05-1.14.01-.03,0-.07-.01-.1-.01-.31-.03-.61-.1-.89-.21-.46-.16-.85-.44-1.17-.8-.01-.01-.02-.02-.02-.03-.75-.9-1.04-2.22-.59-3.8,1.59-.46,3.41-1.72,5.52-3.81.15-.15-.07-.49-.49-.76-.42-.27-.87-.36-1.02-.21-2.13,2.1-3.87,3.34-5.33,3.74-.08,0-.14.01-.18.05-.44.1-.86.13-1.25.07-1.14-.17-2.16-1.57-3.18-4.13,0-.02-.01-.03-.01-.05-.05-.09-.08-.18-.12-.29,2.45-3.31,3.74-5.8,5.86-7,1.23-.69,2.33-1.02,3.32-.98.66.02,1.22.28,1.66.74.61.64,2.2,1.84,2.58,3.14.08.25.5.6.92.76.17.06.32.09.44.08,1.7-.09,2.88.25,3.7.92.97.79,1.68,2.05,2.22,3.62.09.27.52.6.95.75.07.02.14.03.2.05,1.55.31,2.68.7,3.42,1.17.59.38.95.89,1.06,1.5.15.74-.07,1.59-.64,2.53Z"/>
    <path class="cls-1" d="m256.12,339.22c.04-.05.05-.09.03-.1-.02.06-.03.1-.03.1Z"/>
    <path class="cls-1" d="m263.69,353.94c-.25,1.04-.31,2.16-1.73,2.2-1.85.06-2.54-2.9-2.55-4.31-.01-.05.03-.09.08-.09h.86c.07-.01.13-.06.15-.12.36-.88.36-1.76-.17-2.53-.14-.2-.09-.47.1-.61.22-.15.46-.24.73-.27.23-.02.31-.15.27-.37-.35-1.44-1.35-6.59-3.81-5.67-.2.08-.45.35-.74.81-.9,1.47-.98,2.74-1.28,4.31-.57-1.98-.69-3.95-.38-5.91.13-.82.16-1.43.72-2.32.62-1.02,2.46-1.38,3.62-.66,1.19.74,1.99,1.78,2.48,3.03.64,1.63,1.06,3.37,1.27,5.23.27,2.43.4,4.85.4,7.28Z"/>
    <path class="cls-1" d="m247.06,354.6c0,.16-.05.47-.13.92-.24,1.81-2.24,2.51-3.72,1.96-1.86-.68-2.75-3.59-2.85-5.36,0-.07.06-.13.14-.13.61.09,1.5.35,1.65-.58.07-.38.07-.75.02-1.13-.05-.43-.43-.65-.49-.95-.14-.89.57-1.03,1.25-.88.09.02.18-.07.15-.16-.59-2.06-1.44-5.19-3.59-6.15-3.26-1.46-4.54,3.61-4.58,5.69-.02.99-.07,1.74-.15,2.24-.03-.03-.07-.09-.09-.15-.83-2.28-1.23-4.65-1.17-7.13.05-1.69.47-3.69,1.34-4.54,1.98-1.94,5.39-1.71,7.8.81.01.01,1.68,2.42,2.17,3.84,1.34,3.8,2.21,7.71,2.24,11.69Z"/>
    <path class="cls-1" d="m264.38,368.61c.01,1.77-.3,3.4-.96,4.89-.87,2-2.23,3.04-4.16,3.91-.13.06-.22.16-.25.29-.87,2.59-2.07,4.99-3.63,7.23-.05.07-.05.16-.01.24.44.86.95,1.73,1.26,2.61.53,1.49.91,3.02,1.17,4.58.01.07-.08.12-.13.05l-1.53-2.27c-.03-.06-.09-.06-.16-.02-1.74,1.03-3.27,1.66-5.32,1.94h-.06s-.08-.01-.12-.02c-.05-.02-.06-.09-.02-.14.17-.27.24-.62.2-1.07-.39-3.56-1.32-8.02-3.72-10.82-.14-.16-.29-.3-.45-.42,1.92.21,3.91.24,5.67-.1.9-.18,1.8-1.74,2.44-2.7.03-.05.02-.07-.03-.06-4.25.35-8.3-.1-12.12-1.33-.81-.27-1.76-.7-2.85-1.33-.15-.09-.38-.34-.6-.45-.09-.05-.13-.01-.1.08.46,2.75,1.59,4.78,4.24,5.36l1.43,4.61c.15.49.05.55-.32.21-1.55-1.43-3.25-2.79-4.52-4.44-.59-.75-1.62-2.18-2.25-3.64-.09-.18-.14-.18-.15.03-.06.72-.09,1.48-.13,2.27-.15,3.54.51,6.9,1.98,10.07.21.43.43.83.67,1.2.39.59.69.94.9,1.06.47.28.9.61,1.29,1.01-3.33-.83-6.31-2.11-7.43-5.66-1.2-3.83-.88-8.3-.07-12.25.28-1.33.68-2.59,1.19-3.77.08-.16.03-.2-.12-.1-1.29.8-2.03,1.73-3,2.97-.07.09-.1.08-.09-.03.13-1.79.77-3.27,1.93-4.46,1.68-1.72,4.77-2.76,7.07-1.66,1.12.54,1.77,1.31,1.98,2.32.13.68.06.7-.23.07-.15-.34-.44-.65-.88-.92-1.38-.91-3.35-.4-4.56.57-.21.16-.36.36-.46.57-.01.06,0,.12.05.15,5.37,3.27,10.6,5.28,17,5.2,1.69-.02,3.57-.22,5.12-.97,2.22-1.07,2.48-4.78,1.48-6.71-.12-.21-.29-.29-.52-.23-.79.21-1.33.87-1.9,1.39-.18.15-.25.12-.22-.12.25-1.66,1.49-3.71,3.47-3.44,2,.28,2.54,2.61,2.55,4.29Z"/>
    <path class="cls-1" d="m238.38,397.74c3.43,2.11,8.49,2,12.08.39.19-.08.36-.19.52-.31.1-.08.09-.1-.03-.08-4.31.88-8.4.35-12.26-1.59-1.69-.85-3.81-2.43-4.69-4.2-.04-.08-.06-.08-.07.01-.01.12,0,.23.04.33.9,2.38,2.37,4.19,4.4,5.45h0Z"/>
    <path class="cls-1" d="m175.23,463.86c2.39,2.37,6.92,1.69,10.12-1.53,3.2-3.22,3.85-7.76,1.46-10.13-2.39-2.37-6.92-1.69-10.12,1.53-3.2,3.22-3.85,7.76-1.46,10.13h0Z"/>
    <path class="cls-1" d="m167.84,385.89c.15-.25-.13-.75-.62-1.12-.49-.37-1.01-.47-1.16-.22l-3.53,5.99c-.14.24.14.73.62,1.08.48.36.99.46,1.14.22l3.55-5.95h0Z"/>
    <path class="cls-1" d="m163.88,384.12c.15-.25-.14-.76-.63-1.13-.5-.37-1.02-.47-1.16-.22l-3.46,6.03c-.14.24.15.73.63,1.09.49.36,1,.46,1.14.22l3.48-5.99h0Z"/>
    <path class="cls-1" d="m169.72,409.17c-.05-.02-.11-.04-.16-.04.05.02.11.03.16.04Z"/>
    <path class="cls-1" d="m170.49,375.68c-.08-.05-.16-.1-.25-.14.08.05.16.1.25.14Z"/>
    <path class="cls-1" d="m305.99,349.74c.85.77,1.03,2.07,1.81,2.92,1.29,1.39,3.66,1.04,5.2,2.16.22.16.42.35.52.59.29.68-.25,1.41-.82,1.89-.77.65-1.65,1.16-2.6,1.5-.51.18-1.05.32-1.58.22s-1.02-.52-1.07-1.05c-.03-.36.13-.71.19-1.07.14-.95-.48-1.83-1.15-2.52s-1.44-1.35-1.71-2.26c-.22-.74-.11-1.64-.65-2.2-.67-.7.63-1.28,1.85-.17Z"/>
    <path class="cls-1" d="m191.24,448.96c1.67,1.74,3.85,5.41-.08,12.46-.18.32-.66.13-.58-.22.62-2.76,1.41-7.86.1-11.97-.11-.34.31-.53.56-.27Z"/>
    <path class="cls-1" d="m171.56,391.07c0-.11.14-.14.19-.05.5.89,1.76,3.35.99,4.41-.95,1.3-2.13.83-2.48,1.3-.23.31-.88,1.5-1.29,2.27-.06.11-.11.02-.2-.07-.78-.84-1.04-2.23-.06-3.93.33-.58,2.19-.7,2.19-1.65l.67-2.28Z"/>
    <path class="cls-1" d="m241.42,332.88s-10.03-7.22-13.16,3.77c0,0-2.89-9.31,3.85-9.79,6.74-.48,9.31,6.02,9.31,6.02Z"/>
    <path class="cls-1" d="m261.27,333.72s-1.5-3.02-4.08-2.97c-2.57.05-4.15,2.81-4.15,2.81,0,0-.31-5.41,3.54-5.43,3.85-.02,4.69,5.58,4.69,5.58Z"/>
  </g>
</svg>